<?xml version="1.0" encoding="UTF-8"?>
<svg id="Layer_1" data-name="Layer 1" xmlns="http://www.w3.org/2000/svg" viewBox="0 0 67.303 66.655">
  <defs>
    <style>
      .cls-1 {
        fill: none;
        stroke: #670e36;
        stroke-miterlimit: 10;
        stroke-width: 3px;
      }
    </style>
  </defs>
  <path class="cls-1" d="m23.992,16.968V3.676c0-1.202.974-2.176,2.176-2.176h13.744c1.202,0,2.176.974,2.176,2.176v13.293c.062.443.094,1.348-.517,2.382-.387.655-.831,1.171-1.277,1.49-.792.567-1.44,1.03-2.214.886-.924-.172-1.423-1.098-1.581-1.392-.427-.792-.392-1.549-.38-1.771.098-1.678,1.498-2.882,2.271-3.586,3.175-2.889,6.255-6.87,9.399-9.399.256-.206.807-.637,1.538-.637.748,0,1.307.451,1.538.637,3.589,2.889,5.47,4.442,9.718,9.718.187.232.637.791.637,1.538,0,.676-.369,1.206-.637,1.538-.914,1.133-4.47,4.716-9.399,9.399"/>
  <path class="cls-1" d="m51.534,27.439c-.35.333-1.37,1.41-2.538,1.692-.739.179-1.338.07-1.878-.027-.959-.173-1.742-.315-2.178-.971-.52-.783-.204-1.786-.104-2.104.271-.858.838-1.361,1.006-1.506,1.272-1.099,3.111-.934,4.155-.869,4.285.265,9.286-.299,13.291.193.326.04,1.019.135,1.529.66.521.536.587,1.251.615,1.547.428,4.588.625,7.019-.2,13.742-.036.295-.123,1.008-.66,1.529-.485.471-1.122.575-1.547.615-1.45.134-6.497.079-13.291-.193"/>
  <path class="cls-1" d="m49.995,41.702c-.482.033-1.954.212-3.034-.315-.683-.334-1.076-.799-1.429-1.219-.628-.745-1.141-1.354-1.058-2.137.099-.935.982-1.506,1.262-1.687.756-.488,1.513-.514,1.735-.519,1.681-.035,2.992,1.265,3.755,1.98,3.131,2.937,7.343,5.692,10.114,8.626.225.239.699.754.757,1.483.059.745-.346,1.338-.513,1.584-2.596,3.807-3.995,5.805-8.918,10.457-.216.204-.738.698-1.483.757-.674.054-1.231-.272-1.584-.513-1.202-.821-5.055-4.083-10.114-8.626"/>
  <path class="cls-1" d="m25.215,49.687v13.293c0,1.202.974,2.176,2.176,2.176h13.744c1.202,0,2.176-.974,2.176-2.176v-13.293c.062-.443.219-1.374-.392-2.408-.387-.655-.956-1.145-1.403-1.464-.792-.567-1.44-1.03-2.214-.886-.924.172-1.423,1.098-1.581,1.392-.427.792-.392,1.549-.38,1.771.098,1.678,1.498,2.882,2.271,3.586"/>
  <g>
    <path class="cls-1" d="m43.31,49.636v13.293c0,1.202-.974,2.176-2.176,2.176h-13.744c-1.202,0-2.176-.974-2.176-2.176,0-4.431,0-8.862,0-13.293-.062-.443-.219-1.374.392-2.408.387-.655.956-1.145,1.403-1.464.792-.567,1.44-1.03,2.214-.886.924.172,1.423,1.098,1.581,1.392.427.792.392,1.549.38,1.771-.098,1.678-1.498,2.882-2.271,3.586-3.175,2.889-6.255,6.87-9.399,9.399-.256.206-.807.637-1.538.637-.748,0-1.307-.451-1.538-.637-3.589-2.889-5.47-4.442-9.718-9.718-.187-.232-.637-.791-.637-1.538,0-.676.369-1.206.637-1.538.914-1.133,4.47-4.716,9.399-9.399"/>
    <path class="cls-1" d="m15.768,39.165c.35-.333,1.37-1.41,2.538-1.692.739-.179,1.338-.07,1.878.027.959.173,1.742.315,2.178.971.52.783.204,1.786.104,2.104-.271.858-.838,1.361-1.006,1.506-1.272,1.099-3.111.934-4.155.869-4.285-.265-9.286.299-13.291-.193-.326-.04-1.019-.135-1.529-.66-.521-.536-.587-1.251-.615-1.547-.428-4.588-.625-7.019.2-13.742.036-.295.123-1.008.66-1.529.485-.471,1.122-.575,1.547-.615,1.45-.134,6.497-.079,13.291.193"/>
    <path class="cls-1" d="m17.308,24.903c.482-.033,1.954-.212,3.034.315.683.334,1.076.799,1.429,1.219.628.745,1.141,1.354,1.058,2.137-.099.935-.982,1.506-1.262,1.687-.756.488-1.513.514-1.735.519-1.681.035-2.992-1.265-3.755-1.98-3.131-2.937-7.343-5.692-10.114-8.626-.225-.239-.699-.754-.757-1.483-.059-.745.346-1.338.513-1.584,2.596-3.807,3.995-5.805,8.918-10.457.216-.204.738-.698,1.483-.757.674-.054,1.231.272,1.584.513,1.202.821,5.055,4.083,10.114,8.626"/>
    <path class="cls-1" d="m23.992,3.625v13.293c-.062.443-.059,1.367.552,2.402.387.655.795,1.151,1.242,1.471.792.567,1.44,1.03,2.214.886.924-.172,1.423-1.098,1.581-1.392.427-.792.392-1.549.38-1.771-.098-1.678-1.498-2.882-2.271-3.586"/>
  </g>
</svg>