<?xml version="1.0" encoding="UTF-8"?>
<svg id="Layer_1" data-name="Layer 1" xmlns="http://www.w3.org/2000/svg" viewBox="0 0 233.581 66.655">
  <defs>
    <style>
      .cls-1, .cls-2 {
        fill: #154371;
      }

      .cls-3 {
        fill: none;
        stroke: #670e36;
        stroke-miterlimit: 10;
        stroke-width: 3px;
      }

      .cls-2 {
        font-family: ArialMT, Arial;
        font-size: 10.941px;
      }
    </style>
  </defs>
  <g>
    <g>
      <path class="cls-1" d="m78.795,39.056l2.19-2.541c2.19,2.146,5.169,3.549,8.411,3.549,3.943,0,6.221-1.884,6.221-4.513,0-3.066-2.234-3.942-5.125-5.169l-4.162-1.84c-2.848-1.14-6.177-3.154-6.177-7.404,0-4.38,3.943-7.622,9.419-7.622,3.592,0,6.747,1.445,8.849,3.549l-1.927,2.365c-1.884-1.665-4.074-2.672-7.053-2.672-3.33,0-5.563,1.576-5.563,4.161,0,2.76,2.672,3.768,5.125,4.731l4.03,1.796c3.548,1.402,6.352,3.417,6.352,7.667,0,4.556-3.855,8.191-10.164,8.191-4.206,0-7.841-1.664-10.426-4.249Z"/>
      <path class="cls-1" d="m106.396,14.041h3.724v14.369h.131l12.047-14.369h4.206l-16.384,19.582v9.156h-3.724V14.041Zm8.148,12.704l2.234-2.891,10.777,18.925h-4.162l-8.85-16.034Z"/>
      <path class="cls-1" d="m139.473,14.041h4.206l9.682,28.738h-3.943l-4.95-16.034c-1.007-3.197-1.971-6.352-2.848-9.681h-.175c-.92,3.329-1.84,6.483-2.847,9.681l-5.038,16.034h-3.768l9.682-28.738Zm-4.556,17.042h13.187v2.979h-13.187v-2.979Z"/>
      <path class="cls-1" d="m159.715,14.041h17.786v3.11h-14.106v8.98h11.916v3.11h-11.916v10.427h14.544v3.11h-18.224V14.041Z"/>
      <path class="cls-1" d="m186.002,14.041h17.786v3.11h-14.106v8.98h11.916v3.11h-11.916v10.427h14.544v3.11h-18.224V14.041Z"/>
      <path class="cls-1" d="m211.631,14.041h8.148c5.87,0,9.857,1.972,9.857,7.01,0,2.848-1.621,5.388-5.038,6.265v.175c4.206.657,6.659,2.936,6.659,6.878,0,5.651-4.381,8.411-10.82,8.411h-8.806V14.041Zm7.535,12.091c4.906,0,6.878-1.576,6.878-4.774,0-3.11-2.278-4.25-6.703-4.25h-4.074v9.024h3.899Zm.745,13.581c4.906,0,7.754-1.621,7.754-5.52,0-3.549-2.716-4.994-7.754-4.994h-4.644v10.514h4.644Z"/>
    </g>
    <text class="cls-2" transform="translate(75.86 61.603)"><tspan x="0" y="0">Trading &amp; Contracting Company</tspan></text>
  </g>
  <g>
    <path class="cls-3" d="m23.992,16.968V3.676c0-1.202.974-2.176,2.176-2.176h13.744c1.202,0,2.176.974,2.176,2.176v13.293c.062.443.094,1.348-.517,2.382-.387.655-.831,1.171-1.277,1.49-.792.567-1.44,1.03-2.214.886-.924-.172-1.423-1.098-1.581-1.392-.427-.792-.392-1.549-.38-1.771.098-1.678,1.498-2.882,2.271-3.586,3.175-2.889,6.255-6.87,9.399-9.399.256-.206.807-.637,1.538-.637.748,0,1.307.451,1.538.637,3.589,2.889,5.47,4.442,9.718,9.718.187.232.637.791.637,1.538,0,.676-.369,1.206-.637,1.538-.914,1.133-4.47,4.716-9.399,9.399"/>
    <path class="cls-3" d="m51.534,27.439c-.35.333-1.37,1.41-2.538,1.692-.739.179-1.338.07-1.878-.027-.959-.173-1.742-.315-2.178-.971-.52-.783-.204-1.786-.104-2.104.271-.858.838-1.361,1.006-1.506,1.272-1.099,3.111-.934,4.155-.869,4.285.265,9.286-.299,13.291.193.326.04,1.019.135,1.529.66.521.536.587,1.251.615,1.547.428,4.588.625,7.019-.2,13.742-.036.295-.123,1.008-.66,1.529-.485.471-1.122.575-1.547.615-1.45.134-6.497.079-13.291-.193"/>
    <path class="cls-3" d="m49.995,41.702c-.482.033-1.954.212-3.034-.315-.683-.334-1.076-.799-1.429-1.219-.628-.745-1.141-1.354-1.058-2.137.099-.935.982-1.506,1.262-1.687.756-.488,1.513-.514,1.735-.519,1.681-.035,2.992,1.265,3.755,1.98,3.131,2.937,7.343,5.692,10.114,8.626.225.239.699.754.757,1.483.059.745-.346,1.338-.513,1.584-2.596,3.807-3.995,5.805-8.918,10.457-.216.204-.738.698-1.483.757-.674.054-1.231-.272-1.584-.513-1.202-.821-5.055-4.083-10.114-8.626"/>
    <path class="cls-3" d="m25.215,49.687v13.293c0,1.202.974,2.176,2.176,2.176h13.744c1.202,0,2.176-.974,2.176-2.176v-13.293c.062-.443.219-1.374-.392-2.408-.387-.655-.956-1.145-1.403-1.464-.792-.567-1.44-1.03-2.214-.886-.924.172-1.423,1.098-1.581,1.392-.427.792-.392,1.549-.38,1.771.098,1.678,1.498,2.882,2.271,3.586"/>
    <g>
      <path class="cls-3" d="m43.31,49.636v13.293c0,1.202-.974,2.176-2.176,2.176h-13.744c-1.202,0-2.176-.974-2.176-2.176,0-4.431,0-8.862,0-13.293-.062-.443-.219-1.374.392-2.408.387-.655.956-1.145,1.403-1.464.792-.567,1.44-1.03,2.214-.886.924.172,1.423,1.098,1.581,1.392.427.792.392,1.549.38,1.771-.098,1.678-1.498,2.882-2.271,3.586-3.175,2.889-6.255,6.87-9.399,9.399-.256.206-.807.637-1.538.637-.748,0-1.307-.451-1.538-.637-3.589-2.889-5.47-4.442-9.718-9.718-.187-.232-.637-.791-.637-1.538,0-.676.369-1.206.637-1.538.914-1.133,4.47-4.716,9.399-9.399"/>
      <path class="cls-3" d="m15.768,39.165c.35-.333,1.37-1.41,2.538-1.692.739-.179,1.338-.07,1.878.027.959.173,1.742.315,2.178.971.52.783.204,1.786.104,2.104-.271.858-.838,1.361-1.006,1.506-1.272,1.099-3.111.934-4.155.869-4.285-.265-9.286.299-13.291-.193-.326-.04-1.019-.135-1.529-.66-.521-.536-.587-1.251-.615-1.547-.428-4.588-.625-7.019.2-13.742.036-.295.123-1.008.66-1.529.485-.471,1.122-.575,1.547-.615,1.45-.134,6.497-.079,13.291.193"/>
      <path class="cls-3" d="m17.308,24.903c.482-.033,1.954-.212,3.034.315.683.334,1.076.799,1.429,1.219.628.745,1.141,1.354,1.058,2.137-.099.935-.982,1.506-1.262,1.687-.756.488-1.513.514-1.735.519-1.681.035-2.992-1.265-3.755-1.98-3.131-2.937-7.343-5.692-10.114-8.626-.225-.239-.699-.754-.757-1.483-.059-.745.346-1.338.513-1.584,2.596-3.807,3.995-5.805,8.918-10.457.216-.204.738-.698,1.483-.757.674-.054,1.231.272,1.584.513,1.202.821,5.055,4.083,10.114,8.626"/>
      <path class="cls-3" d="m23.992,3.625v13.293c-.062.443-.059,1.367.552,2.402.387.655.795,1.151,1.242,1.471.792.567,1.44,1.03,2.214.886.924-.172,1.423-1.098,1.581-1.392.427-.792.392-1.549.38-1.771-.098-1.678-1.498-2.882-2.271-3.586"/>
    </g>
  </g>
</svg>