<?xml version="1.0" encoding="utf-8"?>
<!-- Generator: Adobe Illustrator 16.0.0, SVG Export Plug-In . SVG Version: 6.00 Build 0)  -->
<!DOCTYPE svg PUBLIC "-//W3C//DTD SVG 1.1//EN" "http://www.w3.org/Graphics/SVG/1.1/DTD/svg11.dtd">
<svg version="1.1" id="Layer_1" xmlns="http://www.w3.org/2000/svg" xmlns:xlink="http://www.w3.org/1999/xlink" x="0px" y="0px"
	 width="173px" height="36px" viewBox="0 0 173 36" enable-background="new 0 0 173 36" xml:space="preserve">
<g>
	<path fill="#0065B5" d="M101.436,33.191c0-1.52,1.255-2.752,2.786-2.752c1.207,0,2.241,0.775,2.628,1.877h-1.008
		c-0.255-0.522-0.882-0.973-1.612-0.973c-1.07,0-1.87,0.866-1.87,1.848c0,1.025,0.861,1.848,1.87,1.848
		c0.702,0,1.357-0.406,1.612-0.974h1.008c-0.387,1.104-1.421,1.877-2.628,1.877C102.69,35.942,101.436,34.71,101.436,33.191"/>
	<path fill="#0065B5" d="M107.903,33.979c0-1.111,0.924-2.02,2.048-2.02s2.042,0.908,2.042,2.02c0,1.11-0.918,2.02-2.042,2.02
		S107.903,35.09,107.903,33.979 M108.785,33.979c0,0.645,0.512,1.154,1.166,1.154c0.649,0,1.166-0.51,1.166-1.154
		s-0.517-1.154-1.166-1.154C109.297,32.825,108.785,33.335,108.785,33.979"/>
	<path fill="#0065B5" d="M115.964,35.864v-2.243c0-0.437-0.379-0.839-0.861-0.839c-0.47,0-0.862,0.396-0.862,0.832v2.25h-0.944
		v-3.719h0.944v0.336c0.317-0.301,0.717-0.473,1.214-0.473c0.869,0,1.455,0.717,1.455,1.447v2.408H115.964z"/>
	<polygon fill="#0065B5" points="119.777,35.821 118.805,35.821 118.805,32.861 118.177,32.861 118.177,32.095 118.805,32.095 
		118.805,30.776 119.777,30.776 119.777,32.095 120.405,32.095 120.405,32.861 119.777,32.861 	"/>
	<path fill="#0065B5" d="M122.61,35.864h-0.965v-3.74h0.965v0.595c0.193-0.409,0.814-0.817,1.27-0.695v0.788
		c-0.523-0.072-1.27,0.316-1.27,0.946V35.864z"/>
	<path fill="#0065B5" d="M124.673,33.979c0-1.111,0.924-2.02,2.047-2.02c1.125,0,2.042,0.908,2.042,2.02
		c0,1.11-0.917,2.02-2.042,2.02C125.597,35.999,124.673,35.09,124.673,33.979 M125.556,33.979c0,0.645,0.511,1.154,1.164,1.154
		c0.649,0,1.166-0.51,1.166-1.154s-0.517-1.154-1.166-1.154C126.066,32.825,125.556,33.335,125.556,33.979"/>
	<rect x="130.01" y="30.568" fill="#0065B5" width="0.979" height="5.245"/>
	<path fill="#0065B5" d="M132.216,34.761h0.945c0.027,0.215,0.206,0.459,0.538,0.459c0.379,0,0.531-0.315,0.531-0.431
		c0-0.165-0.132-0.314-0.449-0.444c-0.538-0.207-1.482-0.431-1.482-1.189c0-0.615,0.6-1.139,1.4-1.139
		c0.965,0,1.364,0.71,1.407,1.174h-0.946c-0.041-0.207-0.233-0.379-0.461-0.379c-0.263,0-0.47,0.164-0.47,0.387
		c0,0.523,1.931,0.431,1.931,1.605c0,0.602-0.564,1.196-1.461,1.196C132.727,36,132.258,35.284,132.216,34.761"/>
	<polygon fill="#0065B5" points="140.835,35.821 139.862,35.821 139.862,32.861 139.235,32.861 139.235,32.095 139.862,32.095 
		139.862,30.776 140.835,30.776 140.835,32.095 141.462,32.095 141.462,32.861 140.835,32.861 	"/>
	<path fill="#0065B5" d="M145.4,35.814v-2.25c0-0.437-0.379-0.839-0.862-0.839c-0.47,0-0.862,0.387-0.862,0.832v2.257h-0.944v-5.245
		h0.944v1.898c0.132-0.129,0.58-0.523,1.214-0.523c0.87,0,1.456,0.731,1.456,1.455v2.415H145.4z"/>
	<path fill="#0065B5" d="M149.669,35.184c0.454,0,0.73-0.187,0.89-0.422h0.958c-0.331,0.759-0.965,1.238-1.848,1.238
		c-1.111,0-2.021-0.888-2.021-1.991c0-1.098,0.91-1.993,2.021-1.993c0.909,0,2.116,0.73,1.985,2.271h-3.104
		C148.695,34.868,149.109,35.184,149.669,35.184 M148.551,33.6h2.151c-0.18-0.544-0.641-0.767-1.062-0.767
		C149.124,32.833,148.729,33.155,148.551,33.6"/>
	<path fill="#0065B5" d="M157.309,35.814h-0.987v-2.967h-0.551v-0.76h0.551v-0.272c0-0.868,0.608-1.289,1.677-1.238v0.815
		c-0.489-0.029-0.731,0.222-0.689,0.695h0.689v0.76h-0.689V35.814z"/>
	<rect x="159.211" y="30.568" fill="#0065B5" width="0.979" height="5.245"/>
	<path fill="#0065B5" d="M161.438,33.979c0-1.111,0.924-2.02,2.048-2.02s2.041,0.908,2.041,2.02c0,1.11-0.917,2.02-2.041,2.02
		S161.438,35.09,161.438,33.979 M162.321,33.979c0,0.645,0.51,1.154,1.165,1.154c0.648,0,1.165-0.51,1.165-1.154
		s-0.517-1.154-1.165-1.154C162.831,32.825,162.321,33.335,162.321,33.979"/>
	<polygon fill="#0065B5" points="169.485,35.871 168.933,33.535 168.375,35.871 167.279,35.871 166.237,32.152 167.266,32.152 
		167.864,34.811 168.443,32.152 169.423,32.152 169.982,34.804 170.596,32.152 171.623,32.152 170.575,35.871 	"/>
	<path fill="#0065B5" d="M92.075,0.091c-1.497,0.005-2.411,1.706-2.411,1.706L85.92,8.203l-1.096-8.112h-3.474l1.739,11.55h2.432
		c1.435-0.048,2.015-0.751,2.896-2.246l3.438-5.759l2.138-3.544L92.075,0.091z"/>
	<path fill="#0065B5" d="M96.856,25.192h-1.32l1.182-5.786c0.086-0.432,0.116-0.621-0.028-0.796
		c-0.119-0.144-0.211-0.175-0.601-0.175h-1.504c-0.433,0-0.573-0.034-0.804,0.094c-0.195,0.109-0.293,0.418-0.348,0.687
		l-1.293,5.977h-2.763c0,0,1.599-7.174,1.602-7.185c0.268-1.015,0.907-1.453,1.869-1.578c0.404-0.053,1.026,0,1.419-0.029
		l3.563,0.036c0.505,0.036,0.912,0.211,1.28,0.623c0.271,0.305,0.413,0.758,0.26,1.587c-0.151,0.817-0.505,2.576-0.657,3.395
		l-0.389,1.933C98.183,24.683,97.568,25.192,96.856,25.192"/>
	<path fill="#0065B5" d="M120.668,25.192h-1.32l1.181-5.786c0.086-0.432,0.117-0.621-0.027-0.796
		c-0.119-0.144-0.211-0.175-0.602-0.175h-1.504c-0.432,0-0.572-0.034-0.805,0.094c-0.193,0.109-0.293,0.418-0.347,0.687
		l-1.292,5.977h-2.763c0,0,1.598-7.174,1.601-7.185c0.269-1.015,0.908-1.453,1.869-1.578c0.405-0.053,1.025,0,1.42-0.029
		l3.563,0.036c0.504,0.036,0.912,0.211,1.28,0.623c0.271,0.305,0.412,0.758,0.261,1.587c-0.152,0.817-0.506,2.576-0.658,3.395
		l-0.389,1.933C121.993,24.683,121.38,25.192,120.668,25.192"/>
	<path fill="#0065B5" d="M149.612,18.318c-1.041-0.033-1.901,0.164-2.586,0.594c-0.684,0.431-1.095,0.941-1.234,1.534l-0.845,3.591
		c-0.16,0.679-0.755,1.156-1.439,1.156h-1.534l2.001-8.5h2.7l-0.128,0.542c0.833-0.567,2-0.825,3.504-0.774L149.612,18.318z"/>
	<path fill="#0065B5" d="M103.313,0l-2.649,11.645h0.838c0.729-0.004,1.57-0.246,1.868-1.55L105.68,0H103.313z"/>
	<path fill="#0065B5" d="M154.143,13.875c0.188,0.159,0.232,0.456,0.132,0.888c-0.102,0.432-0.285,0.728-0.549,0.888
		c-0.266,0.159-0.629,0.239-1.092,0.239s-0.789-0.08-0.979-0.239c-0.189-0.16-0.232-0.456-0.132-0.888
		c0.104-0.432,0.285-0.729,0.55-0.888c0.266-0.16,0.628-0.24,1.092-0.24C153.627,13.635,153.952,13.715,154.143,13.875"/>
	<path fill="#0065B5" d="M151.315,16.437l-1.949,8.734h0.839c0.729-0.004,1.571-0.245,1.868-1.552l1.604-7.182H151.315z"/>
	<path fill="#0065B5" d="M114.086,13.875c0.188,0.159,0.233,0.456,0.132,0.888c-0.103,0.432-0.286,0.728-0.549,0.888
		c-0.267,0.159-0.629,0.239-1.091,0.239c-0.464,0-0.79-0.08-0.98-0.239c-0.189-0.16-0.232-0.456-0.131-0.888
		c0.103-0.432,0.284-0.729,0.55-0.888c0.265-0.16,0.628-0.24,1.091-0.24C113.569,13.635,113.896,13.715,114.086,13.875"/>
	<path fill="#0065B5" d="M111.258,16.437l-1.948,8.734h0.839c0.729-0.004,1.57-0.245,1.869-1.552l1.604-7.182H111.258z"/>
	<path fill="#0065B5" d="M93.103,4.785h4.89c0.438,0,0.637,0.298,0.507,0.876l-0.108,0.474h-4.048c-1.226,0-2.037,0.907-2.271,1.932
		l-0.337,1.48c-0.254,1.119,0.472,2.076,1.479,2.098h4.048c1.842-0.021,2.539-1.284,2.807-2.462l0.777-3.412
		c0.376-1.656-0.355-2.856-1.74-2.86h-5.554L93.103,4.785z M97.736,9.032c-0.093,0.41-0.359,0.74-0.813,0.74h-2.319
		c-0.295,0-0.495-0.253-0.423-0.578c0.007-0.031,0.136-0.611,0.145-0.647c0.05-0.227,0.311-0.533,0.645-0.533h2.995L97.736,9.032z"
		/>
	<path fill="#0065B5" d="M122.083,2.911h-8.301c-1.127,0.012-1.813,1.29-1.813,1.29l-2.829,4.842l-0.828-6.132h-2.626L107,11.643
		h1.838c1.085-0.036,1.522-0.568,2.188-1.699l2.599-4.353c0,0,0.44-0.807,1.001-0.807h0.736l-0.911,4
		c-0.377,1.655,0.355,2.858,1.739,2.861h5.856l0.422-1.873h-5.164c-0.438,0-0.638-0.298-0.506-0.877l0.107-0.475h4.047
		c1.226,0,2.04-0.906,2.272-1.931l0.336-1.48C123.816,3.888,123.09,2.934,122.083,2.911 M121.116,5.363
		c-0.007,0.03-0.136,0.611-0.145,0.646c-0.051,0.229-0.311,0.535-0.645,0.535h-2.993l0.227-1.02c0.093-0.41,0.359-0.74,0.813-0.74
		h2.321C120.988,4.785,121.189,5.038,121.116,5.363"/>
	<path fill="#0065B5" d="M37.744,0.137L22.287,0.136l-1.599,7.063C20.62,7.55,20.872,7.856,21.2,7.914c0.004,0,0.008,0,0.011,0.002
		c0.128,0.021,0.271-0.029,0.271-0.029l8.524-3.419c0.579-0.233,1.5-0.17,2.046,0.142l7.307,4.193
		c0.378,0.215,0.357,0.525-0.046,0.686l-9.264,3.98c-0.579,0.234-1.5,0.169-2.045-0.142L12.96,4.345
		c-0.62-0.366-1.671-0.441-2.335-0.163L0.316,8.509c-0.403,0.163-0.424,0.472-0.045,0.689l8.145,4.574
		c0.621,0.367,1.672,0.441,2.338,0.163l9.003-3.602c0.132-0.055,0.215,0.015,0.183,0.159l-3.308,14.599l5.512-0.003
		c2.406,0,4.274-1.501,4.892-4.232l0.65-2.869h4.697c9.789,0,13.579-3.941,14.334-10.055C47.521,1.413,41.585,0.173,37.744,0.137"/>
	<path fill="#0065B5" d="M51.255,0.139l-5.658,24.954l4.711-0.007c2.596,0,4.865-0.775,5.819-4.97l4.526-19.978H51.255z"/>
	<path fill="#0065B5" d="M79.572,0.139H71.15c-1.933,0.1-3.145,1.14-3.453,1.434l-8.873,9.553c-0.638,0.667-0.723,1.149-0.309,1.89
		l6.85,12.083h9.404l-7.19-12.649L79.572,0.139z"/>
	<path fill="#0065B5" d="M131.116,8.731c0.112-0.189,0.225-0.406,0.335-0.643s0.209-0.502,0.293-0.785l0.04-0.134h-1.532
		l-0.023,0.073c-0.095,0.307-0.194,0.588-0.295,0.836c-0.075,0.184-0.157,0.351-0.245,0.499l-0.664-1.03
		c0.159-0.072,0.322-0.156,0.485-0.252c0.204-0.121,0.397-0.26,0.573-0.414c0.169-0.148,0.32-0.316,0.451-0.5
		c0.136-0.187,0.227-0.389,0.273-0.598c0.064-0.284,0.066-0.538,0.006-0.754c-0.061-0.217-0.165-0.402-0.316-0.555
		c-0.154-0.141-0.35-0.247-0.581-0.317c-0.469-0.142-1.058-0.132-1.568,0.004c-0.267,0.071-0.514,0.179-0.733,0.323
		c-0.221,0.145-0.412,0.328-0.565,0.548c-0.154,0.219-0.267,0.48-0.334,0.774c-0.069,0.314-0.057,0.598,0.038,0.842
		c0.075,0.194,0.165,0.383,0.269,0.566c-0.201,0.089-0.396,0.194-0.582,0.309c-0.217,0.138-0.415,0.289-0.586,0.45
		c-0.182,0.169-0.337,0.358-0.462,0.562c-0.126,0.206-0.216,0.428-0.27,0.661c-0.068,0.309-0.074,0.594-0.019,0.848
		c0.059,0.258,0.184,0.482,0.374,0.664c0.179,0.181,0.418,0.324,0.708,0.423c0.284,0.098,0.625,0.147,1.009,0.147
		c0.425,0,0.819-0.057,1.177-0.171c0.322-0.104,0.63-0.25,0.916-0.438l0.331,0.501h1.862l-1.049-1.512
		c0.107-0.124,0.214-0.254,0.316-0.39C130.873,9.105,130.997,8.925,131.116,8.731 M128.183,5.851
		c0.049-0.212,0.143-0.367,0.288-0.474c0.296-0.216,0.642-0.208,0.831-0.036c0.081,0.074,0.1,0.217,0.053,0.425
		c-0.022,0.102-0.068,0.197-0.136,0.282c-0.072,0.092-0.156,0.175-0.25,0.248c-0.096,0.076-0.199,0.145-0.306,0.204
		c-0.08,0.045-0.155,0.086-0.228,0.122c-0.075-0.106-0.145-0.222-0.204-0.347C128.166,6.137,128.15,5.999,128.183,5.851
		 M128.649,9.719c-0.119,0.095-0.265,0.183-0.434,0.261c-0.198,0.091-0.413,0.137-0.641,0.137c-0.364,0-0.625-0.087-0.778-0.26
		c-0.151-0.171-0.194-0.393-0.132-0.674c0.058-0.254,0.18-0.453,0.374-0.61c0.183-0.147,0.383-0.281,0.598-0.397L128.649,9.719z"/>
	<path fill="#0065B5" d="M124.571,18.31l-0.91,4c-0.377,1.655,0.356,2.857,1.74,2.86h5.856l0.421-1.872h-5.164
		c-0.438,0-0.638-0.298-0.507-0.877l0.109-0.477h4.046c1.227,0,2.04-0.906,2.273-1.931l0.336-1.48
		c0.255-1.121-0.473-2.076-1.479-2.099h-4.527c-1.016,0-1.902,0.703-2.151,1.705L124.571,18.31z M130.326,18.889
		c-0.007,0.03-0.136,0.611-0.144,0.646c-0.051,0.228-0.312,0.534-0.645,0.534h-2.995l0.228-1.02
		c0.094-0.409,0.359-0.739,0.813-0.739h2.319C130.198,18.311,130.399,18.564,130.326,18.889"/>
	<path fill="#0065B5" d="M134.045,18.31l-0.91,4c-0.378,1.655,0.356,2.857,1.739,2.86h5.855l0.422-1.872h-5.163
		c-0.438,0-0.639-0.298-0.507-0.877l0.108-0.477h4.046c1.227,0,2.041-0.906,2.273-1.931l0.336-1.48
		c0.255-1.121-0.473-2.076-1.479-2.099h-4.528c-1.016,0-1.902,0.703-2.151,1.705L134.045,18.31z M139.799,18.889
		c-0.007,0.03-0.136,0.611-0.144,0.646c-0.051,0.228-0.311,0.534-0.645,0.534h-2.995l0.228-1.02
		c0.095-0.409,0.359-0.739,0.814-0.739h2.319C139.671,18.311,139.873,18.564,139.799,18.889"/>
	<path fill="#0065B5" d="M89.912,16.176l0.674-2.748H80.548l-2.75,11.765h8.473c1.104,0,2.058-0.751,2.306-1.809l0.225-0.958h-7.306
		l0.474-1.976h5.423c0.628,0,1.172-0.429,1.31-1.031l0.409-1.771h-6.522l0.365-1.472H89.912z"/>
	<path fill="#0065B5" d="M108.921,17.216c-0.281-0.383-0.572-0.576-1.045-0.668c-0.479-0.095-0.972-0.076-1.457-0.081
		c-0.914-0.01-1.828-0.021-2.741-0.031c-0.76,0.014-1.405,0.034-1.927,0.42c-0.942,0.7-1.04,1.631-1.22,2.705l-0.376,1.937
		c-0.099,0.554-0.014,1.147,0.566,1.508c0.293,0.18,0.668,0.221,1.01,0.227c0.671,0.013,3.465-0.015,4.123-0.006l-0.343,1.338
		c-0.099,0.38-0.409,0.47-0.774,0.479l-2.85-0.01c-0.289,0.022-0.423-0.159-0.396-0.366c0.018-0.115,0.043-0.226,0.19-0.773
		c-0.01-0.001-2.106-0.09-2.106-0.09l-0.375,1.687c-0.086,0.401,0.063,0.739,0.195,0.899c0.283,0.337,0.762,0.446,1.19,0.47
		c0.719,0.041,2.728,0.012,3.447,0.002c0.69-0.01,1.589-0.001,2.277-0.05c1.541-0.111,1.451-1.348,1.836-2.909l0.97-4.635
		C109.202,18.748,109.469,17.96,108.921,17.216 M102.84,18.928c0.157-0.476,0.48-0.609,1.105-0.595l2.193-0.002
		c0.467,0.002,0.819,0.158,0.672,0.769l-0.634,2.361l-0.98,0.001l-1.585-0.001c-0.311-0.015-0.8,0.005-1.017-0.197
		c-0.219-0.203-0.203-0.416-0.117-0.87L102.84,18.928z"/>
	<path fill="#0065B5" d="M160.608,25.192h-1.32l1.18-5.786c0.088-0.432,0.118-0.621-0.026-0.796
		c-0.119-0.144-0.211-0.175-0.602-0.175h-1.504c-0.432,0-0.572-0.034-0.805,0.094c-0.193,0.109-0.293,0.418-0.347,0.687
		l-1.292,5.977h-2.763c0,0,1.598-7.174,1.602-7.185c0.268-1.015,0.907-1.453,1.868-1.578c0.405-0.053,1.025,0,1.42-0.029
		l3.563,0.036c0.504,0.036,0.912,0.211,1.28,0.623c0.271,0.305,0.412,0.758,0.26,1.587c-0.151,0.817-0.505,2.576-0.657,3.395
		l-0.389,1.933C161.934,24.683,161.32,25.192,160.608,25.192"/>
	<path fill="#0065B5" d="M172.664,17.216c-0.281-0.383-0.572-0.576-1.045-0.668c-0.479-0.095-0.971-0.076-1.458-0.081
		c-0.913-0.01-1.827-0.021-2.74-0.031c-0.76,0.014-1.405,0.034-1.926,0.42c-0.944,0.7-1.042,1.631-1.222,2.705l-0.374,1.937
		c-0.1,0.554-0.015,1.147,0.565,1.508c0.293,0.18,0.668,0.221,1.01,0.227c0.67,0.013,3.465-0.015,4.124-0.006l-0.344,1.338
		c-0.099,0.38-0.409,0.47-0.774,0.479l-2.851-0.01c-0.288,0.022-0.422-0.159-0.395-0.366c0.017-0.115,0.043-0.226,0.19-0.773
		c-0.01-0.001-2.105-0.09-2.105-0.09l-0.377,1.687c-0.084,0.401,0.063,0.739,0.196,0.899c0.283,0.337,0.763,0.446,1.19,0.47
		c0.719,0.041,2.728,0.012,3.447,0.002c0.691-0.01,1.589-0.001,2.275-0.05c1.543-0.111,1.453-1.348,1.838-2.909l0.97-4.635
		C172.945,18.748,173.212,17.96,172.664,17.216 M166.584,18.928c0.156-0.476,0.479-0.609,1.104-0.595l2.193-0.002
		c0.467,0.002,0.818,0.158,0.672,0.769l-0.634,2.361l-0.98,0.001l-1.585-0.001c-0.31-0.015-0.8,0.005-1.017-0.197
		c-0.218-0.203-0.203-0.416-0.118-0.87L166.584,18.928z"/>
</g>
</svg>
