<svg width="856" height="400" viewBox="0 0 856 400" fill="none" xmlns="http://www.w3.org/2000/svg">
<g clip-path="url(#clip0_131_300)">
<path d="M272.464 359.704L360.566 88.3516L89.2136 0.249641L1.11172 271.602L272.464 359.704Z" fill="#014DA2"/>
<path d="M272.464 359.704L360.566 88.3516L89.2136 0.249641L1.11172 271.602L272.464 359.704Z" stroke="#2E499A" stroke-width="0.081"/>
<path d="M576.672 379.127L556.018 94.585L271.455 115.241L292.11 399.783L576.672 379.127Z" fill="#009FDB"/>
<path d="M576.672 379.127L556.018 94.585L271.455 115.241L292.11 399.783L576.672 379.127Z" stroke="#0D99D6" stroke-width="0.081"/>
<path d="M540.729 348.033L572.034 64.46L855.562 95.7707L824.297 379.334L540.729 348.033Z" fill="#00AD7E"/>
<path d="M540.729 348.033L572.034 64.46L855.562 95.7707L824.297 379.334L540.729 348.033Z" stroke="#00A886" stroke-width="0.081"/>
<path d="M72.9417 155.964H137.106C188.233 155.964 182.282 180.214 172.814 206.893C163.372 233.556 152.153 257.796 101.056 257.796H36.8867L72.9417 155.964ZM87.8615 238.687H96.6577C113.782 238.687 117.401 234.411 127.169 206.888C136.933 179.374 136.286 175.063 119.167 175.063H110.402L87.8615 238.687Z" fill="white"/>
<path d="M258.535 153.983C303.686 153.983 313.893 168.812 300.408 206.893C286.914 244.968 266.211 259.802 221.05 259.802C175.873 259.802 165.692 244.968 179.187 206.893C192.645 168.812 213.343 153.983 258.535 153.983ZM227.402 241.817C240.943 241.817 245 234.411 254.743 206.887C264.491 179.374 265.697 171.937 252.157 171.937C238.616 171.937 234.565 179.369 224.817 206.887C215.074 234.411 213.867 241.817 227.402 241.817Z" fill="white"/>
<path d="M386.355 153.983C431.501 153.983 441.723 168.812 428.228 206.893C414.734 244.968 394.031 259.802 348.88 259.802C303.693 259.802 293.517 244.968 307.012 206.893C320.486 168.812 341.198 153.983 386.355 153.983ZM355.222 241.817C368.803 241.817 372.815 234.411 382.593 206.887C392.331 179.374 393.542 171.937 379.997 171.937C366.431 171.937 362.374 179.369 352.636 206.887C342.883 234.411 341.677 241.817 355.222 241.817Z" fill="white"/>
<path d="M510.402 185.351L511.236 182.912C513.354 176.921 511.109 171.943 502.532 171.943C493.044 171.943 487.179 176.361 485.581 180.937C478.455 201.024 554.194 191.215 541.03 228.41C533.324 250.1 508.742 259.802 469.755 259.802C433.15 259.802 415.406 252.238 422.883 231.143L424.135 227.545H466.915L466.054 229.957C462.98 238.687 467.821 241.818 476.357 241.818C485.403 241.818 492.137 237.547 494.123 231.983C501.239 211.871 428.269 221.869 441.035 185.778C448.325 165.228 470.621 153.974 507.963 153.974C546.467 153.974 559.478 163.503 551.761 185.34H510.402V185.351Z" fill="white"/>
<path d="M605.269 155.964H660.897L666.175 257.796H619.13L620.897 239.98H585.753L574.921 257.796H527.84L605.269 155.964ZM625.936 176.794H625.463L598.036 220.001H622.744L625.936 176.794Z" fill="white"/>
<path d="M707.729 155.964H757.161L763.458 218.723H763.931L786.166 155.964H827.525L791.445 257.796H742.934L735.772 194.905H735.293L713.002 257.796H671.648L707.729 155.964Z" fill="white"/>
</g>
<defs>
<clipPath id="clip0_131_300">
<rect width="854.955" height="400" fill="white" transform="translate(0.835938)"/>
</clipPath>
</defs>
</svg>
