<svg width="1147" height="400" viewBox="0 0 1147 400" fill="none" xmlns="http://www.w3.org/2000/svg">
<path d="M1146.84 0H749.41V397.426H1146.84V0Z" fill="url(#paint0_radial_131_75)"/>
<path d="M968.745 166.739C973.381 169.137 976.578 173.933 975.939 177.77C975.14 181.767 970.983 183.046 966.027 180.648C961.231 178.25 958.034 173.294 958.833 169.297C959.633 165.62 963.949 164.501 968.745 166.739Z" fill="white"/>
<path d="M982.652 90.1639C986.489 92.2422 989.207 95.5994 988.887 97.9974C988.407 100.395 985.05 100.715 981.213 98.7967C977.217 96.7184 974.499 93.2014 974.979 90.8034C975.458 88.5653 978.815 88.2456 982.652 90.1639Z" fill="white"/>
<path d="M983.933 82.6514C987.13 84.4099 989.368 87.1276 989.208 89.2059C988.889 91.1243 986.171 91.444 982.814 89.6855C979.457 87.9269 977.218 85.0493 977.538 83.131C978.018 81.0527 980.735 80.8929 983.933 82.6514Z" fill="white"/>
<path d="M985.212 75.1348C988.25 76.7335 990.328 79.2913 990.008 81.0498C989.689 82.8084 987.131 82.9682 984.093 81.3696C981.056 79.7709 978.978 77.0532 979.138 75.2947C979.617 73.5361 982.175 73.5361 985.212 75.1348Z" fill="white"/>
<path d="M986.33 67.7842C989.047 69.223 991.126 71.621 990.806 73.2197C990.486 74.8183 988.248 74.8183 985.37 73.3795C982.493 71.9407 980.574 69.5427 980.894 67.9441C981.214 66.1855 983.612 66.1856 986.33 67.7842Z" fill="white"/>
<path d="M987.448 60.9062C990.006 62.345 991.764 64.4233 991.604 65.8621C991.444 67.3009 989.206 67.3009 986.648 65.8621C984.091 64.4233 982.172 62.345 982.492 60.9062C982.652 59.4675 984.89 59.4675 987.448 60.9062Z" fill="white"/>
<path d="M988.408 54.831C990.806 56.1099 992.405 58.0282 992.245 59.3072C992.085 60.5861 990.007 60.5861 987.609 59.3072C985.211 58.0282 983.452 55.95 983.772 54.6711C984.092 53.3922 986.01 53.552 988.408 54.831Z" fill="white"/>
<path d="M989.368 48.7566C991.447 50.0355 993.045 51.4743 992.885 52.9131C992.726 54.192 990.807 53.8723 988.729 52.7532C986.491 51.4743 984.892 49.8757 985.052 48.5968C985.372 47.3179 987.13 47.6375 989.368 48.7566Z" fill="white"/>
<path d="M990.326 42.8426C992.244 43.9616 993.523 45.2405 993.523 46.3596C993.363 47.4786 991.765 47.159 989.846 46.1998C987.928 45.0807 986.489 43.8018 986.649 42.6827C986.809 41.4038 988.407 41.7235 990.326 42.8426Z" fill="white"/>
<path d="M991.129 37.0864C992.887 38.0456 994.166 39.3245 994.006 40.2837C993.846 41.2429 992.407 40.9232 990.649 39.964C988.89 39.0048 987.611 37.7258 987.771 36.7666C988.091 35.8075 989.53 36.1272 991.129 37.0864Z" fill="white"/>
<path d="M992.085 31.4908C993.523 32.2901 994.643 33.4092 994.643 34.2085C994.483 35.0078 993.363 34.6881 991.765 33.8887C990.326 33.0894 989.207 31.9703 989.207 31.171C989.367 30.3717 990.486 30.6914 992.085 31.4908Z" fill="white"/>
<path d="M992.884 26.3765C994.163 27.1758 995.122 27.9751 995.122 28.7745C994.962 29.5738 994.003 29.2541 992.564 28.4548C991.285 27.6554 990.326 26.8561 990.326 26.0568C990.486 25.2574 991.605 25.5771 992.884 26.3765Z" fill="white"/>
<path d="M963.789 193.437C959.792 191.359 957.234 187.202 957.714 183.845C958.513 180.488 962.03 179.369 966.027 181.287C969.864 183.206 972.581 187.362 971.942 190.719C971.302 194.236 967.785 195.355 963.789 193.437Z" fill="white"/>
<path d="M960.59 209.744C956.594 207.826 954.196 203.669 954.835 200.152C955.634 196.795 959.151 195.516 962.988 197.434C966.825 199.353 969.383 203.349 968.743 206.866C968.104 210.383 964.587 211.662 960.59 209.744Z" fill="white"/>
<path d="M957.233 226.688C953.397 224.77 950.999 220.613 951.638 217.096C952.437 213.579 955.795 212.3 959.631 214.059C963.308 215.977 965.706 219.974 965.227 223.491C964.587 227.167 961.23 228.446 957.233 226.688Z" fill="white"/>
<path d="M953.556 245.392C949.879 243.634 947.481 239.477 948.281 235.8C949.08 232.283 952.437 230.845 956.114 232.603C959.791 234.362 962.029 238.358 961.39 242.035C960.75 245.552 957.393 247.151 953.556 245.392Z" fill="white"/>
<path d="M949.883 264.095C946.685 262.496 944.607 258.819 945.246 255.462C946.046 252.265 948.923 250.826 952.121 252.265C955.318 253.863 957.236 257.38 956.757 260.737C956.117 264.095 953.08 265.533 949.883 264.095Z" fill="white"/>
<path d="M945.245 286.638C942.048 285.199 940.29 281.522 940.929 278.005C941.728 274.648 944.606 273.209 947.803 274.488C950.841 275.927 952.759 279.603 952.12 282.961C951.32 286.478 948.443 288.076 945.245 286.638Z" fill="white"/>
<path d="M940.129 311.098C937.251 309.819 935.653 306.461 936.292 303.264C936.932 300.067 939.649 298.628 942.527 299.747C945.245 301.026 946.843 304.383 946.364 307.421C945.564 310.618 943.007 312.217 940.129 311.098Z" fill="white"/>
<path d="M935.014 335.557C932.616 334.597 931.337 331.56 931.976 328.682C932.616 325.805 935.014 324.366 937.412 325.325C939.81 326.284 941.089 329.322 940.609 332.199C939.81 334.917 937.412 336.356 935.014 335.557Z" fill="white"/>
<path d="M985.368 175.85C989.045 177.768 991.603 181.605 991.283 184.802C990.804 188 987.606 188.959 983.77 187.2C979.933 185.282 977.375 181.285 977.855 178.088C978.334 175.051 981.531 174.091 985.368 175.85Z" fill="white"/>
<path d="M1001.84 182.724C1006.31 185.122 1009.67 190.078 1009.35 194.075C1008.87 198.072 1005.03 199.51 1000.24 197.112C995.603 194.714 992.246 189.599 992.725 185.602C993.365 181.605 997.202 180.486 1001.84 182.724Z" fill="white"/>
<path d="M1115.98 176.811C1114.06 175.692 1112.78 176.012 1113.1 177.61C1113.42 179.369 1115.02 181.607 1116.94 182.886C1118.86 184.165 1120.14 183.685 1119.82 181.927C1119.5 180.168 1117.9 177.93 1115.98 176.811Z" fill="white"/>
<path d="M1102.71 167.698C1100.16 166.26 1098.4 166.579 1098.72 168.817C1099.04 170.896 1101.12 173.933 1103.67 175.372C1106.23 176.811 1107.83 176.491 1107.67 174.253C1107.35 172.015 1105.11 169.137 1102.71 167.698Z" fill="white"/>
<path d="M1065.62 291.593C1062.42 289.675 1060.03 290.954 1059.87 294.791C1059.87 298.627 1062.42 303.263 1065.62 305.342C1068.82 307.42 1071.22 305.981 1071.38 301.985C1071.22 298.148 1068.66 293.672 1065.62 291.593Z" fill="white"/>
<path d="M1049.8 260.261C1046.12 258.183 1043.08 259.621 1042.92 263.618C1042.76 267.775 1045.64 272.571 1049.48 274.809C1053.31 277.047 1056.19 275.448 1056.19 271.292C1056.19 267.135 1053.47 262.339 1049.8 260.261Z" fill="white"/>
<path d="M1033.17 233.084C1029.49 231.165 1026.46 232.284 1026.3 235.961C1026.14 239.638 1028.85 244.114 1032.53 246.352C1036.21 248.431 1039.24 246.992 1039.4 243.315C1039.4 239.478 1036.69 235.162 1033.17 233.084Z" fill="white"/>
<path d="M1022.94 121.817C1019.58 120.059 1016.86 120.378 1016.7 122.776C1016.54 125.174 1019.1 128.372 1022.46 130.29C1025.82 132.049 1028.53 131.569 1028.69 129.171C1028.69 126.773 1026.14 123.576 1022.94 121.817Z" fill="white"/>
<path d="M1090.88 171.055C1088.33 169.616 1086.41 170.096 1086.57 172.334C1086.73 174.572 1088.97 177.61 1091.52 179.208C1094.08 180.807 1096 180.168 1095.84 177.929C1095.52 175.691 1093.44 172.654 1090.88 171.055Z" fill="white"/>
<path d="M1077.45 163.06C1074.74 161.462 1072.66 161.941 1072.82 164.18C1072.98 166.418 1075.22 169.615 1078.09 171.214C1080.81 172.812 1082.89 172.333 1082.73 169.935C1082.41 167.697 1080.17 164.659 1077.45 163.06Z" fill="white"/>
<path d="M1050.76 158.585C1047.56 156.826 1045 157.466 1045 160.024C1045 162.582 1047.56 166.099 1050.76 168.017C1054.11 169.776 1056.51 169.136 1056.51 166.418C1056.35 163.701 1053.79 160.344 1050.76 158.585Z" fill="white"/>
<path d="M1064.19 154.91C1061.15 153.152 1058.75 153.791 1058.91 156.189C1059.07 158.747 1061.47 161.945 1064.67 163.863C1067.86 165.621 1070.1 164.982 1069.94 162.424C1069.78 159.866 1067.22 156.669 1064.19 154.91Z" fill="white"/>
<path d="M1050.12 146.756C1046.6 144.838 1044.04 145.477 1043.88 148.035C1043.88 150.753 1046.6 154.43 1050.12 156.348C1053.63 158.266 1056.35 157.627 1056.35 154.909C1056.19 152.192 1053.47 148.674 1050.12 146.756Z" fill="white"/>
<path d="M1036.37 150.274C1032.85 148.355 1029.97 148.995 1029.81 151.713C1029.81 154.59 1032.53 158.267 1036.21 160.345C1039.89 162.264 1042.76 161.624 1042.76 158.747C1042.76 155.869 1039.89 152.192 1036.37 150.274Z" fill="white"/>
<path d="M1017.18 207.025C1013.35 205.106 1010.31 206.225 1009.83 209.742C1009.51 213.259 1012.23 217.576 1016.06 219.654C1019.9 221.572 1023.1 220.453 1023.42 216.776C1023.74 213.419 1021.02 209.103 1017.18 207.025Z" fill="white"/>
<path d="M1018.3 192.157C1014.31 190.078 1010.95 191.197 1010.47 194.715C1010.15 198.391 1013.19 203.028 1017.34 205.266C1021.5 207.344 1024.86 206.225 1025.18 202.548C1025.34 198.871 1022.46 194.395 1018.3 192.157Z" fill="white"/>
<path d="M1019.42 178.09C1014.94 175.852 1011.43 176.812 1010.95 180.648C1010.63 184.485 1013.98 189.281 1018.46 191.679C1022.94 194.077 1026.61 192.798 1026.77 188.961C1026.93 185.125 1023.74 180.488 1019.42 178.09Z" fill="white"/>
<path d="M1020.22 164.822C1015.91 162.584 1012.39 163.543 1012.07 166.9C1011.91 170.417 1014.95 175.053 1019.26 177.451C1023.58 179.69 1027.1 178.73 1027.42 175.053C1027.58 171.696 1024.54 167.22 1020.22 164.822Z" fill="white"/>
<path d="M1020.86 153.471C1017.18 151.552 1014.14 152.192 1013.83 155.069C1013.67 158.107 1016.38 161.943 1020.22 164.022C1024.06 165.94 1027.09 165.141 1027.25 162.263C1027.41 159.226 1024.7 155.389 1020.86 153.471Z" fill="white"/>
<path d="M1021.66 141.799C1017.66 139.721 1014.31 140.361 1013.99 143.398C1013.83 146.435 1016.86 150.592 1021.02 152.83C1025.18 154.908 1028.37 154.269 1028.69 151.071C1028.69 148.034 1025.82 144.037 1021.66 141.799Z" fill="white"/>
<path d="M1022.3 131.25C1018.3 129.172 1015.1 129.651 1014.94 132.529C1014.78 135.407 1017.82 139.403 1021.82 141.641C1025.81 143.72 1029.01 143.08 1029.17 140.202C1029.17 137.165 1026.29 133.328 1022.3 131.25Z" fill="white"/>
<path d="M996.72 98.7954C994.002 97.3566 991.604 97.5165 991.285 99.275C991.125 101.034 993.043 103.591 995.921 105.19C998.798 106.629 1001.04 106.309 1001.36 104.551C1001.52 102.792 999.438 100.394 996.72 98.7954Z" fill="white"/>
<path d="M997.362 90.6426C994.805 89.3637 992.726 89.5235 992.407 90.9623C992.247 92.561 994.005 94.7991 996.563 96.2379C999.121 97.5168 1001.2 97.357 1001.52 95.7583C1001.68 94.1596 999.76 91.9215 997.362 90.6426Z" fill="white"/>
<path d="M997.683 82.8096C995.445 81.6905 993.686 81.6905 993.366 82.9694C993.207 84.2484 994.805 86.1667 997.043 87.4457C999.282 88.5647 1001.04 88.5647 1001.2 87.1259C1001.52 85.847 999.921 83.9286 997.683 82.8096Z" fill="white"/>
<path d="M997.999 75.2949C996.081 74.1759 994.482 74.1759 994.163 75.4548C994.003 76.7337 995.441 78.3324 997.52 79.4514C999.598 80.5705 1001.2 80.5705 1001.36 79.2916C1001.52 77.8528 1000.08 76.2541 997.999 75.2949Z" fill="white"/>
<path d="M998.478 68.26C996.56 67.3008 995.121 67.1409 994.961 68.26C994.802 69.379 996.24 70.8178 997.999 71.9369C999.917 72.8961 1001.36 73.0559 1001.52 71.9369C1001.68 70.658 1000.24 69.2192 998.478 68.26Z" fill="white"/>
<path d="M998.801 61.0671C997.202 60.2678 995.923 59.948 995.764 61.0671C995.604 62.0263 996.883 63.3052 998.481 64.2644C1000.08 65.2236 1001.52 65.3835 1001.52 64.2644C1001.52 63.3052 1000.4 62.0263 998.801 61.0671Z" fill="white"/>
<path d="M999.121 54.8329C997.682 54.0335 996.404 53.8736 996.244 54.673C996.084 55.6322 997.203 56.7512 998.802 57.5505C1000.4 58.3499 1001.52 58.5097 1001.68 57.7104C1001.68 56.9111 1000.56 55.792 999.121 54.8329Z" fill="white"/>
<path d="M999.279 48.4393C998 47.64 996.881 47.4801 996.721 48.2794C996.721 49.0787 997.68 50.038 998.959 50.8373C1000.24 51.6366 1001.36 51.7965 1001.52 50.9972C1001.68 50.1978 1000.72 49.2386 999.279 48.4393Z" fill="white"/>
<path d="M981.854 200.471C984.732 201.91 987.29 200.951 987.769 198.393C988.089 195.835 986.171 192.798 983.293 191.359C980.415 189.92 977.858 190.72 977.378 193.277C976.898 195.835 978.817 198.873 981.854 200.471Z" fill="white"/>
<path d="M979.297 216.775C982.174 218.054 984.572 217.254 984.892 214.697C985.212 212.139 983.293 209.101 980.576 207.662C977.858 206.384 975.3 207.183 974.821 209.741C974.661 212.299 976.419 215.336 979.297 216.775Z" fill="white"/>
<path d="M975.458 233.564C978.335 234.842 980.733 233.883 981.053 231.166C981.373 228.608 979.614 225.57 976.896 224.131C974.179 222.852 971.781 223.812 971.301 226.37C970.822 229.087 972.58 232.285 975.458 233.564Z" fill="white"/>
<path d="M971.78 251.948C974.337 253.227 976.736 252.108 977.055 249.55C977.375 246.992 975.776 244.115 973.218 242.836C970.661 241.717 968.422 242.676 967.943 245.234C967.623 247.632 969.222 250.669 971.78 251.948Z" fill="white"/>
<path d="M967.464 270.174C969.862 271.293 972.1 270.174 972.419 267.616C972.739 265.058 971.3 262.34 968.902 261.221C966.504 260.102 964.266 261.221 963.947 263.619C963.627 266.177 965.066 269.055 967.464 270.174Z" fill="white"/>
<path d="M962.511 291.912C964.749 292.872 966.827 291.752 967.307 289.354C967.627 286.797 966.188 284.239 963.95 283.12C961.712 282.161 959.633 283.12 959.154 285.678C958.834 288.076 960.273 290.793 962.511 291.912Z" fill="white"/>
<path d="M1036.05 139.403C1032.69 137.645 1030.13 138.124 1029.97 140.522C1029.97 143.08 1032.53 146.437 1035.89 148.356C1039.25 150.114 1041.8 149.635 1041.96 147.077C1041.96 144.519 1039.41 141.162 1036.05 139.403Z" fill="white"/>
<path d="M1035.41 162.262C1032.37 160.664 1029.97 161.303 1029.81 163.701C1029.81 166.099 1032.05 169.297 1035.09 171.055C1038.13 172.654 1040.53 172.014 1040.69 169.456C1040.69 167.058 1038.45 163.861 1035.41 162.262Z" fill="white"/>
<path d="M1035.09 174.091C1031.73 172.333 1029.01 172.972 1028.69 175.85C1028.53 178.728 1031.25 182.564 1034.61 184.483C1038.13 186.401 1040.84 185.442 1040.84 182.564C1041 179.527 1038.45 175.85 1035.09 174.091Z" fill="white"/>
<path d="M1033.49 216.459C1030.13 214.701 1027.42 215.66 1027.26 218.857C1027.1 222.055 1029.65 226.051 1033.01 227.97C1036.37 229.728 1039.09 228.609 1039.25 225.412C1039.25 222.214 1036.69 218.378 1033.49 216.459Z" fill="white"/>
<path d="M1089.76 159.545C1086.89 157.946 1084.97 158.426 1085.13 160.664C1085.45 163.062 1087.68 166.099 1090.56 167.858C1093.44 169.457 1095.36 168.977 1095.2 166.579C1094.88 164.341 1092.48 161.144 1089.76 159.545Z" fill="white"/>
<path d="M1048.52 280.564C1045.48 278.806 1042.92 280.085 1042.76 283.602C1042.76 287.119 1045 291.435 1048.2 293.354C1051.4 295.112 1053.79 293.833 1053.95 290.156C1053.95 286.479 1051.72 282.323 1048.52 280.564Z" fill="white"/>
<path d="M1065.78 312.697C1062.9 310.779 1060.51 312.217 1060.51 315.894C1060.51 319.571 1062.74 324.047 1065.78 326.126C1068.82 328.044 1071.06 326.605 1071.06 322.769C1070.9 318.932 1068.66 314.615 1065.78 312.697Z" fill="white"/>
<path d="M1031.73 250.828C1028.37 249.07 1025.5 250.348 1025.34 253.866C1025.18 257.542 1027.74 261.859 1031.09 263.777C1034.61 265.696 1037.33 264.257 1037.49 260.58C1037.65 256.903 1035.09 252.747 1031.73 250.828Z" fill="white"/>
<path d="M1015.9 224.451C1012.55 222.692 1009.67 223.811 1009.35 227.008C1009.03 230.365 1011.59 234.362 1014.94 236.121C1018.46 237.879 1021.18 236.76 1021.5 233.403C1021.66 230.046 1019.26 226.209 1015.9 224.451Z" fill="white"/>
<path d="M1000.4 198.714C996.721 196.796 993.524 197.915 993.045 201.272C992.725 204.629 995.283 208.785 998.959 210.704C1002.8 212.622 1005.83 211.343 1006.31 207.986C1006.63 204.629 1004.08 200.632 1000.4 198.714Z" fill="white"/>
<path d="M1034.13 202.071C1031.09 200.473 1028.53 201.272 1028.37 204.15C1028.21 207.027 1030.61 210.704 1033.81 212.463C1037.01 214.221 1039.4 213.262 1039.56 210.224C1039.4 207.347 1037.17 203.83 1034.13 202.071Z" fill="white"/>
<path d="M1023.26 112.703C1020.38 111.105 1017.98 111.424 1017.82 113.343C1017.66 115.261 1019.9 118.139 1022.94 119.737C1025.98 121.336 1028.21 121.016 1028.37 118.938C1028.37 117.02 1026.14 114.302 1023.26 112.703Z" fill="white"/>
<path d="M1076.65 152.672C1074.42 151.393 1072.66 151.712 1072.82 153.631C1072.98 155.549 1074.9 157.947 1077.13 159.386C1079.53 160.665 1081.13 160.345 1080.97 158.427C1080.81 156.508 1079.05 153.951 1076.65 152.672Z" fill="white"/>
<path d="M1050.76 183.846C1048.04 182.408 1046.12 183.047 1045.96 185.285C1045.96 187.523 1048.04 190.561 1050.6 192.159C1053.31 193.598 1055.23 192.959 1055.23 190.561C1055.39 188.163 1053.31 185.285 1050.76 183.846Z" fill="white"/>
<path d="M1049.48 242.835C1046.28 241.076 1043.72 242.196 1043.56 245.553C1043.56 248.91 1045.96 253.066 1049.32 255.145C1052.67 257.063 1055.23 255.784 1055.23 252.267C1055.07 248.75 1052.67 244.753 1049.48 242.835Z" fill="white"/>
<path d="M1034.61 188.32C1031.57 186.721 1029.17 187.521 1029.01 190.078C1028.85 192.796 1031.25 196.153 1034.29 197.912C1037.33 199.51 1039.72 198.711 1039.88 195.993C1039.88 193.276 1037.65 189.919 1034.61 188.32Z" fill="white"/>
<path d="M1065.94 205.904C1063.06 204.305 1060.82 205.105 1060.82 207.822C1060.82 210.7 1063.22 214.217 1066.26 215.976C1069.3 217.734 1071.38 216.935 1071.38 214.057C1071.06 211.18 1068.82 207.663 1065.94 205.904Z" fill="white"/>
<path d="M1078.57 348.666C1076.17 346.907 1074.42 348.186 1074.42 351.543C1074.42 354.9 1076.33 358.897 1078.73 360.815C1081.13 362.574 1082.89 361.295 1082.89 357.778C1082.73 354.421 1080.97 350.424 1078.57 348.666Z" fill="white"/>
<path d="M1064.66 166.737C1061.95 165.298 1059.87 165.778 1059.87 168.016C1060.03 170.254 1062.11 173.291 1064.82 174.89C1067.54 176.489 1069.62 175.849 1069.62 173.611C1069.46 171.373 1067.38 168.336 1064.66 166.737Z" fill="white"/>
<path d="M1009.51 105.831C1006.79 104.392 1004.71 104.712 1004.39 106.47C1004.23 108.229 1006.15 110.627 1008.87 112.226C1011.59 113.664 1013.67 113.345 1013.99 111.586C1014.15 109.668 1012.23 107.27 1009.51 105.831Z" fill="white"/>
<path d="M1036.52 111.425C1033.97 110.146 1032.05 110.306 1031.89 111.904C1031.89 113.663 1033.81 116.061 1036.36 117.5C1038.92 118.779 1040.84 118.619 1041 116.86C1041 115.262 1039.08 112.864 1036.52 111.425Z" fill="white"/>
<path d="M1063.7 145.478C1061.62 144.359 1060.03 144.679 1060.03 146.277C1060.19 147.876 1061.78 150.114 1063.86 151.393C1065.94 152.512 1067.54 152.192 1067.54 150.594C1067.54 148.835 1065.94 146.597 1063.7 145.478Z" fill="white"/>
<path d="M1050.12 197.272C1047.4 195.834 1045.32 196.473 1045.32 199.031C1045.32 201.589 1047.4 204.626 1050.12 206.225C1052.83 207.664 1054.91 207.024 1054.91 204.466C1054.91 201.908 1052.83 198.871 1050.12 197.272Z" fill="white"/>
<path d="M1064.98 192.319C1062.58 191.04 1060.82 191.519 1060.82 193.757C1060.82 195.836 1062.74 198.553 1065.14 199.992C1067.54 201.271 1069.3 200.792 1069.14 198.553C1069.14 196.315 1067.38 193.757 1064.98 192.319Z" fill="white"/>
<path d="M1080.33 215.019C1077.77 213.42 1075.85 214.22 1075.85 216.778C1076.01 219.335 1078.09 222.693 1080.65 224.291C1083.21 225.89 1085.13 225.091 1085.13 222.533C1084.97 219.815 1082.89 216.618 1080.33 215.019Z" fill="white"/>
<path d="M1103.67 179.849C1101.75 178.73 1100.32 179.05 1100.48 180.808C1100.63 182.567 1102.39 184.965 1104.31 186.244C1106.23 187.523 1107.67 187.043 1107.51 185.285C1107.19 183.366 1105.59 181.128 1103.67 179.849Z" fill="white"/>
<path d="M1036.53 103.433C1034.29 102.314 1032.53 102.314 1032.53 103.753C1032.53 105.191 1034.29 107.27 1036.53 108.549C1038.77 109.828 1040.52 109.508 1040.52 108.069C1040.52 106.63 1038.77 104.712 1036.53 103.433Z" fill="white"/>
<path d="M1036.37 120.539C1033.97 119.26 1032.21 119.58 1032.05 121.179C1032.05 122.777 1033.81 125.015 1036.21 126.454C1038.6 127.733 1040.36 127.413 1040.36 125.815C1040.52 124.056 1038.76 121.818 1036.37 120.539Z" fill="white"/>
<path d="M1081.13 326.765C1078.41 324.847 1076.34 326.285 1076.34 329.802C1076.5 333.479 1078.57 337.796 1081.29 339.714C1084.01 341.632 1086.09 340.353 1085.93 336.677C1085.93 333 1083.85 328.683 1081.13 326.765Z" fill="white"/>
<path d="M1023.74 104.713C1021.34 103.434 1019.58 103.594 1019.42 105.193C1019.42 106.631 1021.18 108.869 1023.42 110.148C1025.82 111.427 1027.58 111.108 1027.74 109.669C1027.74 108.23 1025.98 105.992 1023.74 104.713Z" fill="white"/>
<path d="M1050.12 171.215C1047.88 169.936 1046.12 170.415 1045.96 172.334C1045.96 174.252 1047.72 176.81 1050.12 178.089C1052.52 179.368 1054.27 178.888 1054.27 176.81C1054.11 175.052 1052.36 172.494 1050.12 171.215Z" fill="white"/>
<path d="M1049.96 138.283C1048.04 137.324 1046.6 137.484 1046.6 138.923C1046.6 140.362 1048.2 142.28 1050.12 143.399C1052.03 144.518 1053.47 144.198 1053.47 142.76C1053.31 141.161 1051.88 139.242 1049.96 138.283Z" fill="white"/>
<path d="M1049.8 227.328C1047.56 226.049 1045.64 226.849 1045.64 229.087C1045.64 231.325 1047.4 234.202 1049.64 235.641C1052.03 236.92 1053.79 236.121 1053.79 233.883C1053.79 231.485 1052.03 228.607 1049.8 227.328Z" fill="white"/>
<path d="M1065.94 272.25C1063.39 270.652 1061.31 271.771 1061.15 274.648C1061.15 277.686 1063.23 281.363 1065.94 283.121C1068.66 284.72 1070.58 283.601 1070.58 280.563C1070.74 277.686 1068.66 274.009 1065.94 272.25Z" fill="white"/>
<path d="M1036.21 131.088C1034.45 130.129 1033.01 130.449 1033.01 131.568C1033.01 132.847 1034.29 134.606 1036.05 135.565C1037.81 136.524 1039.25 136.204 1039.25 134.925C1039.41 133.646 1037.97 132.048 1036.21 131.088Z" fill="white"/>
<path d="M1064.66 334.278C1062.58 333 1060.98 333.959 1060.82 336.836C1060.82 339.714 1062.42 342.911 1064.5 344.35C1066.58 345.789 1068.18 344.67 1068.34 341.792C1068.34 338.914 1066.74 335.717 1064.66 334.278Z" fill="white"/>
<path d="M1078.25 175.533C1076.01 174.254 1074.42 174.734 1074.58 176.652C1074.74 178.571 1076.49 181.128 1078.73 182.407C1080.97 183.686 1082.57 183.207 1082.41 181.288C1082.25 179.37 1080.49 176.812 1078.25 175.533Z" fill="white"/>
<path d="M1049.8 110.947C1047.72 109.828 1046.28 109.987 1046.28 111.266C1046.28 112.545 1047.88 114.464 1049.96 115.583C1052.03 116.702 1053.47 116.542 1053.47 115.103C1053.31 113.984 1051.71 112.066 1049.8 110.947Z" fill="white"/>
<path d="M1128.93 185.602C1127.33 184.643 1126.37 184.963 1126.53 186.401C1126.85 187.84 1128.13 189.918 1129.73 191.037C1131.33 192.156 1132.45 191.677 1132.13 190.238C1131.97 188.639 1130.53 186.721 1128.93 185.602Z" fill="white"/>
<path d="M1095.04 224.61C1092.8 223.172 1091.04 223.811 1091.2 226.209C1091.36 228.607 1093.28 231.645 1095.68 233.243C1098.08 234.682 1099.67 234.043 1099.51 231.645C1099.19 229.247 1097.28 226.209 1095.04 224.61Z" fill="white"/>
<path d="M1087.85 372.004C1085.93 370.406 1084.49 371.525 1084.49 374.562C1084.65 377.76 1086.09 381.436 1088.01 383.195C1089.92 384.794 1091.36 383.675 1091.2 380.477C1091.36 377.44 1089.76 373.763 1087.85 372.004Z" fill="white"/>
<path d="M1047.88 301.987C1045.48 300.709 1043.72 301.668 1043.56 304.545C1043.56 307.423 1045.16 310.62 1047.56 312.059C1049.96 313.498 1051.72 312.379 1051.88 309.501C1051.88 306.624 1050.12 303.426 1047.88 301.987Z" fill="white"/>
<path d="M1079.69 202.07C1078.09 201.111 1076.81 201.591 1076.81 203.029C1076.97 204.628 1078.25 206.547 1079.85 207.666C1081.45 208.625 1082.73 208.145 1082.73 206.547C1082.73 204.948 1081.29 203.03 1079.69 202.07Z" fill="white"/>
<path d="M1049 102.792C1047.24 101.833 1045.96 101.833 1045.96 103.112C1045.96 104.391 1047.4 105.83 1049 106.789C1050.76 107.748 1052.04 107.748 1052.04 106.469C1052.04 105.19 1050.76 103.751 1049 102.792Z" fill="white"/>
<path d="M1061.15 109.985C1059.71 109.186 1058.75 109.186 1058.75 110.145C1058.91 111.104 1060.03 112.383 1061.31 113.182C1062.75 113.982 1063.71 113.982 1063.71 112.863C1063.71 112.063 1062.59 110.784 1061.15 109.985Z" fill="white"/>
<path d="M1030.93 272.569C1028.86 271.45 1027.1 272.249 1026.94 274.647C1026.78 276.885 1028.38 279.603 1030.45 280.722C1032.53 281.841 1034.29 280.882 1034.45 278.644C1034.45 276.406 1032.85 273.688 1030.93 272.569Z" fill="white"/>
<path d="M1013.83 244.113C1011.75 243.154 1010.15 243.793 1009.83 245.871C1009.67 247.95 1011.11 250.348 1013.19 251.467C1015.27 252.586 1017.02 251.786 1017.18 249.708C1017.34 247.63 1015.75 245.232 1013.83 244.113Z" fill="white"/>
<path d="M998.001 217.575C995.923 216.616 994.324 217.256 994.004 219.174C993.844 221.092 995.283 223.331 997.202 224.45C999.28 225.409 1001.04 224.769 1001.2 222.851C1001.36 220.933 999.919 218.695 998.001 217.575Z" fill="white"/>
<path d="M1060.51 102.313C1059.07 101.514 1057.95 101.514 1057.95 102.473C1058.11 103.592 1059.23 104.871 1060.67 105.67C1062.11 106.47 1063.23 106.47 1063.23 105.511C1063.07 104.392 1061.95 103.113 1060.51 102.313Z" fill="white"/>
<path d="M1069.94 102.474C1068.66 101.834 1067.7 101.674 1067.7 102.634C1067.86 103.593 1068.82 104.712 1070.1 105.351C1071.38 105.991 1072.34 106.151 1072.34 105.191C1072.34 104.392 1071.38 103.273 1069.94 102.474Z" fill="white"/>
<path d="M1109.43 235.8C1107.99 234.841 1107.03 235.32 1107.03 236.919C1107.19 238.517 1108.47 240.596 1109.9 241.555C1111.34 242.514 1112.3 242.035 1112.3 240.436C1112.14 238.837 1110.86 236.759 1109.43 235.8Z" fill="white"/>
<path d="M1096.16 239.477C1094.24 238.358 1092.96 238.838 1093.12 240.916C1093.28 242.994 1094.72 245.552 1096.64 246.831C1098.56 248.11 1099.84 247.47 1099.68 245.392C1099.36 243.154 1097.92 240.756 1096.16 239.477Z" fill="white"/>
<path d="M1081.13 230.045C1079.37 228.926 1078.09 229.565 1078.25 231.324C1078.41 233.082 1079.69 235.321 1081.45 236.44C1083.21 237.559 1084.49 236.919 1084.33 235.161C1084.17 233.402 1082.73 231.164 1081.13 230.045Z" fill="white"/>
<path d="M1065.78 221.094C1064.18 220.135 1062.9 220.614 1062.9 222.213C1062.9 223.811 1064.18 225.73 1065.78 226.689C1067.38 227.648 1068.66 227.169 1068.66 225.57C1068.66 223.971 1067.38 222.053 1065.78 221.094Z" fill="white"/>
<path d="M1050.11 211.979C1048.52 211.02 1047.24 211.5 1047.24 213.099C1047.24 214.697 1048.52 216.616 1050.11 217.575C1051.71 218.534 1052.99 218.054 1052.99 216.456C1052.99 214.857 1051.71 212.939 1050.11 211.979Z" fill="white"/>
<path d="M1110.22 249.87C1108.78 248.911 1107.67 249.39 1107.83 250.989C1107.99 252.748 1109.26 254.826 1110.7 255.945C1112.14 257.064 1113.26 256.425 1113.1 254.666C1112.94 253.067 1111.82 250.829 1110.22 249.87Z" fill="white"/>
<path d="M1125.1 261.06C1123.82 260.1 1122.86 260.58 1123.02 262.179C1123.18 263.777 1124.3 265.856 1125.58 266.815C1126.85 267.774 1127.81 267.294 1127.65 265.696C1127.49 264.097 1126.37 262.019 1125.1 261.06Z" fill="white"/>
<path d="M1049.48 119.579C1047.88 118.62 1046.6 118.78 1046.6 119.899C1046.6 121.178 1047.88 122.617 1049.64 123.576C1051.24 124.535 1052.51 124.375 1052.51 123.096C1052.51 121.977 1051.24 120.538 1049.48 119.579Z" fill="white"/>
<path d="M951.319 158.906C947.482 157.148 943.965 157.947 943.166 160.985C942.366 164.182 944.924 168.019 948.921 169.937C952.917 171.696 956.435 170.737 957.074 167.699C957.554 164.662 955.156 160.825 951.319 158.906Z" fill="white"/>
<path d="M934.534 149.472C929.578 147.234 925.102 148.353 923.823 152.03C922.704 155.866 925.742 160.662 930.857 163.06C935.973 165.299 940.449 164.18 941.568 160.343C942.368 156.506 939.33 151.87 934.534 149.472Z" fill="white"/>
<path d="M822.467 31.0124C825.025 31.9716 826.304 33.5702 825.505 34.8491C824.545 36.1281 821.668 36.2879 819.11 35.4886C816.392 34.5294 815.113 32.9308 816.073 31.6518C816.872 30.5328 819.749 30.2131 822.467 31.0124Z" fill="white"/>
<path d="M840.853 36.7701C844.05 38.049 845.649 40.1273 844.53 41.566C843.411 43.1647 840.213 43.3246 836.856 42.2055C833.659 40.9266 832.06 38.8484 833.179 37.2497C834.458 35.9708 837.655 35.651 840.853 36.7701Z" fill="white"/>
<path d="M833.819 183.206C836.856 184.325 838.135 187.043 837.176 189.441C836.057 191.839 832.859 192.958 829.822 191.679C826.785 190.56 825.346 187.682 826.465 185.284C827.744 183.046 830.941 182.087 833.819 183.206Z" fill="white"/>
<path d="M860.357 169.937C864.353 171.536 866.432 175.373 865.153 178.57C863.714 181.767 859.557 183.046 855.401 181.448C851.244 179.689 849.166 175.852 850.605 172.655C852.044 169.458 856.36 168.339 860.357 169.937Z" fill="white"/>
<path d="M887.054 162.264C891.21 164.182 893.608 168.019 892.489 171.376C891.21 174.734 887.054 176.012 882.578 174.094C878.261 172.176 875.863 168.179 877.142 164.822C878.421 161.625 882.738 160.505 887.054 162.264Z" fill="white"/>
<path d="M936.772 77.3749C940.289 79.1334 942.528 82.1708 942.048 84.2491C941.408 86.4872 938.051 86.8069 934.374 85.0484C930.698 83.2899 928.459 80.2524 929.099 78.0143C929.738 75.9361 933.095 75.6163 936.772 77.3749Z" fill="white"/>
<path d="M852.521 51.9549C855.878 53.2338 857.637 55.6318 856.678 57.3903C855.559 59.1488 852.202 59.4685 848.684 58.3495C845.327 57.0705 843.409 54.6726 844.528 52.9141C845.647 50.9957 849.164 50.6759 852.521 51.9549Z" fill="white"/>
<path d="M869.629 58.3507C872.986 59.7895 874.904 62.1874 873.945 64.1058C872.826 66.0242 869.469 66.344 865.952 64.9052C862.435 63.4664 860.516 60.9086 861.635 58.9902C862.754 57.3915 866.271 57.0717 869.629 58.3507Z" fill="white"/>
<path d="M898.083 81.5282C901.76 83.2867 903.998 86.1643 903.039 88.5623C902.079 90.8004 898.403 91.28 894.566 89.6814C890.729 87.9228 888.491 84.8854 889.45 82.6473C890.729 80.2493 894.406 79.7697 898.083 81.5282Z" fill="white"/>
<path d="M886.255 64.9054C889.932 66.5041 892.011 69.3817 891.051 71.4599C890.092 73.5382 886.415 73.8579 882.578 72.4191C878.902 70.8205 876.663 67.9429 877.783 65.8646C878.902 63.6265 882.578 63.3068 886.255 64.9054Z" fill="white"/>
<path d="M902.721 71.9386C906.557 73.6971 908.795 76.7346 907.996 79.1326C907.037 81.3707 903.2 81.8503 899.204 80.0918C895.207 78.3332 892.969 75.1359 893.928 72.8978C895.047 70.6597 898.884 70.34 902.721 71.9386Z" fill="white"/>
<path d="M914.392 88.4042C918.389 90.3226 920.787 93.6797 919.988 96.2376C919.029 98.7954 915.192 99.275 911.035 97.5165C906.879 95.5981 904.481 92.0811 905.44 89.5232C906.559 87.1252 910.396 86.6457 914.392 88.4042Z" fill="white"/>
<path d="M911.671 155.549C915.827 157.467 918.225 161.304 917.266 164.661C916.147 168.019 912.15 169.138 907.834 167.219C903.518 165.301 901.12 161.304 902.239 157.947C903.358 154.75 907.354 153.791 911.671 155.549Z" fill="white"/>
<path d="M915.827 141.8C920.303 143.878 922.861 148.034 922.062 151.392C920.943 154.749 916.627 155.868 911.99 153.79C907.354 151.711 904.796 147.395 905.756 144.038C907.035 140.841 911.351 139.881 915.827 141.8Z" fill="white"/>
<path d="M919.664 128.851C924.46 131.09 927.338 135.406 926.379 138.923C925.26 142.44 920.624 143.399 915.668 141.321C910.712 138.923 907.834 134.447 908.953 130.93C910.232 127.572 914.868 126.613 919.664 128.851Z" fill="white"/>
<path d="M923.664 116.701C928.3 118.939 931.178 123.095 930.218 126.293C929.099 129.65 924.783 130.449 919.987 128.211C915.191 125.973 912.313 121.657 913.432 118.459C914.392 115.422 918.868 114.623 923.664 116.701Z" fill="white"/>
<path d="M926.859 106.31C930.856 108.228 933.413 111.905 932.614 114.623C931.655 117.341 927.818 117.98 923.662 116.062C919.505 113.983 916.947 110.466 917.906 107.589C919.025 104.871 922.862 104.392 926.859 106.31Z" fill="white"/>
<path d="M930.696 95.5973C935.012 97.6756 937.73 101.512 937.09 104.39C936.131 107.268 932.135 107.907 927.498 105.669C923.022 103.431 920.304 99.5939 921.104 96.7164C922.223 94.1585 926.219 93.5191 930.696 95.5973Z" fill="white"/>
<path d="M933.892 86.0075C938.208 88.0857 940.766 91.7626 940.127 94.4804C939.327 97.1981 935.331 97.6777 930.854 95.5994C926.538 93.5212 923.82 89.8442 924.62 87.1265C925.739 84.4088 929.735 83.9292 933.892 86.0075Z" fill="white"/>
<path d="M967.946 83.7695C970.824 85.2083 972.742 87.7661 972.422 89.3648C971.943 91.1233 969.545 91.2831 966.667 89.8444C963.79 88.4056 961.871 85.8477 962.191 84.0892C962.511 82.4905 965.069 82.3307 967.946 83.7695Z" fill="white"/>
<path d="M970.183 75.9346C972.741 77.3734 974.5 79.4516 974.34 81.0503C974.02 82.4891 971.782 82.649 969.064 81.37C966.507 79.9313 964.588 77.6931 964.908 76.2543C965.228 74.8155 967.466 74.6556 970.183 75.9346Z" fill="white"/>
<path d="M972.419 68.7416C974.657 70.0206 976.096 71.7791 975.936 73.058C975.617 74.337 973.698 74.337 971.46 73.2179C969.222 71.939 967.623 70.0206 967.943 68.7416C968.103 67.6226 970.021 67.6226 972.419 68.7416Z" fill="white"/>
<path d="M974.34 61.7073C976.418 62.8263 977.697 64.2651 977.537 65.544C977.218 66.8229 975.459 66.6631 973.541 65.7039C971.462 64.5848 970.024 62.9862 970.343 61.7073C970.663 60.5882 972.262 60.7481 974.34 61.7073Z" fill="white"/>
<path d="M976.261 55.4725C978.179 56.4317 979.458 57.8705 979.298 58.9896C978.978 60.1086 977.38 59.9488 975.621 58.9896C973.703 58.0304 972.424 56.5916 972.584 55.4725C972.744 54.1936 974.342 54.3534 976.261 55.4725Z" fill="white"/>
<path d="M978.015 49.3977C979.614 50.3569 980.893 51.4759 980.733 52.595C980.573 53.5542 979.134 53.3943 977.376 52.595C975.777 51.6358 974.498 50.5167 974.658 49.3977C974.978 48.2786 976.417 48.4385 978.015 49.3977Z" fill="white"/>
<path d="M979.617 44.2821C981.216 45.0814 982.175 46.2004 982.015 47.1596C981.855 48.1188 980.576 47.7991 978.978 46.9998C977.379 46.2005 976.42 45.0814 976.58 44.1222C976.74 43.3229 978.019 43.4827 979.617 44.2821Z" fill="white"/>
<path d="M981.216 39.1649C982.654 39.9642 983.454 40.9234 983.454 41.7227C983.294 42.522 982.175 42.3622 980.736 41.5628C979.297 40.7635 978.338 39.8044 978.498 39.005C978.658 38.2057 979.777 38.3655 981.216 39.1649Z" fill="white"/>
<path d="M945.726 182.727C942.689 181.288 940.771 178.251 941.41 175.693C942.049 173.295 944.767 172.496 947.805 173.934C950.842 175.373 952.601 178.411 952.121 180.809C951.482 183.366 948.764 184.166 945.726 182.727Z" fill="white"/>
<path d="M942.366 198.714C939.488 197.275 937.73 194.397 938.209 191.839C938.849 189.442 941.567 188.482 944.444 189.921C947.322 191.36 949.08 194.237 948.601 196.795C947.961 199.033 945.403 199.993 942.366 198.714Z" fill="white"/>
<path d="M939.327 215.656C936.449 214.377 934.691 211.339 935.33 208.621C935.97 206.064 938.688 205.104 941.565 206.383C944.443 207.662 946.041 210.7 945.562 213.258C944.922 215.815 942.205 216.935 939.327 215.656Z" fill="white"/>
<path d="M936.45 233.885C933.732 232.606 932.134 229.728 932.773 227.17C933.413 224.612 935.971 223.653 938.688 224.932C941.246 226.211 942.845 228.929 942.365 231.487C941.726 234.044 939.168 235.164 936.45 233.885Z" fill="white"/>
<path d="M932.776 253.865C930.218 252.746 928.779 249.869 929.419 247.471C930.058 245.073 932.456 243.954 934.854 245.073C937.412 246.192 938.851 248.909 938.211 251.467C937.732 253.865 935.334 254.984 932.776 253.865Z" fill="white"/>
<path d="M928.937 276.567C926.54 275.448 925.261 272.89 925.9 270.332C926.54 267.934 928.778 266.815 931.176 267.774C933.414 268.893 934.853 271.451 934.213 273.849C933.574 276.407 931.335 277.526 928.937 276.567Z" fill="white"/>
<path d="M918.548 79.4536C922.225 81.2121 924.463 84.2495 923.823 86.4877C923.024 88.7258 919.507 89.2054 915.67 87.4469C911.833 85.6883 909.595 82.491 910.395 80.2529C911.194 78.0148 914.871 77.6951 918.548 79.4536Z" fill="white"/>
<path d="M910.234 99.276C913.591 100.875 915.509 103.752 914.87 105.831C914.07 108.069 910.873 108.548 907.356 106.95C903.999 105.351 901.921 102.473 902.72 100.235C903.519 98.3168 906.716 97.8372 910.234 99.276Z" fill="white"/>
<path d="M906.399 109.828C910.235 111.586 912.474 114.943 911.674 117.501C910.715 120.059 907.038 120.698 903.041 119.1C899.045 117.341 896.807 113.984 897.766 111.266C898.725 108.709 902.402 108.229 906.399 109.828Z" fill="white"/>
<path d="M892.17 147.716C896.007 149.474 898.085 152.832 897.126 155.869C896.007 158.747 892.17 159.706 888.333 158.107C884.496 156.349 882.258 152.832 883.377 149.794C884.496 146.917 888.333 146.117 892.17 147.716Z" fill="white"/>
<path d="M858.117 42.8433C861.634 44.2821 863.552 46.8399 862.433 48.5984C861.314 50.357 857.637 50.6767 853.96 49.2379C850.284 47.7991 848.365 45.2412 849.644 43.3228C850.763 41.5643 854.44 41.4045 858.117 42.8433Z" fill="white"/>
<path d="M853.323 187.841C857 189.439 858.918 192.956 857.799 196.154C856.36 199.351 852.523 200.63 848.687 199.191C844.85 197.593 842.931 193.916 844.37 190.718C845.649 187.521 849.646 186.402 853.323 187.841Z" fill="white"/>
<path d="M826.785 198.391C830.622 199.83 832.381 203.507 830.942 206.704C829.343 209.902 825.187 211.34 821.35 209.902C817.513 208.463 815.755 204.626 817.193 201.429C818.792 198.391 822.949 197.112 826.785 198.391Z" fill="white"/>
<path d="M880.818 178.891C884.815 180.649 886.893 184.326 885.774 187.683C884.495 191.041 880.499 192.16 876.502 190.561C872.505 188.802 870.427 184.966 871.546 181.608C872.985 178.411 876.982 177.132 880.818 178.891Z" fill="white"/>
<path d="M906.395 171.533C910.072 173.292 912.31 176.809 911.351 179.846C910.391 182.884 906.715 184.003 902.878 182.404C899.041 180.646 896.963 176.969 897.922 173.931C899.041 170.894 902.718 169.935 906.395 171.533Z" fill="white"/>
<path d="M930.059 164.341C933.896 166.26 936.294 170.096 935.654 173.134C934.695 176.331 931.018 177.45 927.021 175.532C923.025 173.613 920.627 169.777 921.586 166.579C922.385 163.542 926.222 162.583 930.059 164.341Z" fill="white"/>
<path d="M896.965 134.287C900.482 135.886 902.56 139.083 901.761 141.641C900.802 144.199 897.285 144.998 893.608 143.559C889.931 141.96 888.013 138.763 888.972 136.045C889.931 133.647 893.448 132.848 896.965 134.287Z" fill="white"/>
<path d="M939.33 69.0595C942.367 70.6582 944.446 73.216 943.966 74.9745C943.327 76.7331 940.449 77.0528 937.252 75.4541C934.054 73.8555 931.976 71.2976 932.616 69.3793C933.255 67.7806 936.133 67.6207 939.33 69.0595Z" fill="white"/>
<path d="M874.744 50.5176C877.621 51.7966 879.06 53.8748 878.261 55.3136C877.461 56.7524 874.584 56.9123 871.706 55.7932C868.828 54.5143 867.23 52.4361 868.189 50.9973C868.988 49.3986 871.866 49.2387 874.744 50.5176Z" fill="white"/>
<path d="M888.811 103.271C891.849 104.71 893.607 107.108 892.808 109.186C892.008 111.105 888.971 111.744 885.774 110.465C882.576 109.026 880.978 106.468 881.777 104.55C882.736 102.472 885.774 101.832 888.811 103.271Z" fill="white"/>
<path d="M866.753 154.271C870.59 155.869 872.668 159.386 871.549 162.424C870.27 165.461 866.273 166.58 862.276 164.982C858.28 163.223 856.202 159.706 857.481 156.669C858.919 153.631 862.916 152.672 866.753 154.271Z" fill="white"/>
<path d="M901.442 122.456C904.799 124.054 906.878 127.092 906.078 129.49C905.119 131.888 901.762 132.527 898.245 131.088C894.728 129.49 892.809 126.452 893.609 123.895C894.568 121.656 897.925 121.017 901.442 122.456Z" fill="white"/>
<path d="M865.472 106.947C869.149 108.386 871.068 111.423 869.949 113.661C868.829 116.059 865.152 116.699 861.476 115.26C857.799 113.661 855.88 110.784 856.999 108.386C858.118 106.148 861.795 105.508 865.472 106.947Z" fill="white"/>
<path d="M803.762 209.9C806.48 210.859 807.599 213.417 806.48 215.815C805.201 218.213 802.164 219.332 799.446 218.373C796.728 217.414 795.609 214.856 796.728 212.458C798.007 209.9 801.044 208.941 803.762 209.9Z" fill="white"/>
<path d="M881.137 74.6549C884.335 76.0937 886.253 78.6516 885.454 80.57C884.495 82.4884 881.297 82.9679 877.94 81.5291C874.583 80.0903 872.824 77.5325 873.624 75.6141C874.583 73.6957 877.78 73.2161 881.137 74.6549Z" fill="white"/>
<path d="M953.877 76.7358C956.594 78.1746 958.513 80.5726 958.033 82.1713C957.554 83.7699 954.996 84.0897 952.278 82.6509C949.4 81.2121 947.642 78.8141 948.121 77.2154C948.601 75.4569 950.999 75.297 953.877 76.7358Z" fill="white"/>
<path d="M913.112 49.0794C915.19 49.8787 916.629 51.4774 916.309 52.5965C915.99 53.7155 914.071 54.0352 911.993 53.2359C909.755 52.4366 908.476 50.8379 908.796 49.7189C909.115 48.4399 911.034 48.2801 913.112 49.0794Z" fill="white"/>
<path d="M890.249 56.9101C892.647 58.0291 894.086 59.9476 893.606 61.2265C892.967 62.5054 890.409 62.8251 887.851 61.7061C885.293 60.587 883.855 58.6686 884.494 57.2298C885.293 56.1108 887.691 55.9509 890.249 56.9101Z" fill="white"/>
<path d="M883.536 115.263C886.733 116.702 888.492 119.26 887.692 121.498C886.733 123.576 883.696 124.216 880.339 122.937C877.141 121.498 875.383 118.78 876.182 116.702C877.141 114.464 880.339 113.984 883.536 115.263Z" fill="white"/>
<path d="M871.07 96.2377C873.947 97.3568 875.386 99.7547 874.587 101.513C873.787 103.272 870.91 103.751 868.032 102.632C865.155 101.353 863.556 99.1153 864.515 97.3568C865.315 95.5983 868.192 95.1187 871.07 96.2377Z" fill="white"/>
<path d="M846.608 100.393C849.965 101.672 851.724 104.23 850.605 106.308C849.486 108.386 845.969 109.026 842.611 107.747C839.254 106.468 837.496 103.91 838.615 101.672C839.734 99.7534 843.251 99.114 846.608 100.393Z" fill="white"/>
<path d="M835.097 46.519C837.815 47.4782 839.094 49.2367 838.295 50.5156C837.335 51.7946 834.618 52.1143 831.9 51.315C829.182 50.3558 827.743 48.5972 828.703 47.3183C829.662 45.8795 832.539 45.5598 835.097 46.519Z" fill="white"/>
<path d="M916.789 41.7252C919.027 42.6843 920.626 44.283 920.306 45.4021C919.986 46.5212 917.908 46.8409 915.67 45.8817C913.272 44.9225 911.833 43.3238 912.153 42.2048C912.312 41.0857 914.391 40.9258 916.789 41.7252Z" fill="white"/>
<path d="M924.782 62.3467C927.66 63.7855 929.258 66.0237 928.779 67.6223C928.139 69.221 925.581 69.3808 922.704 68.1019C919.826 66.6631 918.068 64.425 918.707 62.8264C919.347 61.2277 922.064 61.0678 924.782 62.3467Z" fill="white"/>
<path d="M928.14 54.5117C930.538 55.7906 932.136 57.8689 931.817 59.1478C931.337 60.5866 929.099 60.5866 926.541 59.3077C923.983 58.0288 922.385 55.9505 922.864 54.6716C923.344 53.3927 925.742 53.3927 928.14 54.5117Z" fill="white"/>
<path d="M893.129 93.0415C895.847 94.3204 897.285 96.3987 896.646 98.1572C895.846 99.9157 893.289 100.235 890.571 99.1163C887.853 97.8374 886.255 95.7592 887.054 94.0007C887.693 92.2421 890.411 91.9224 893.129 93.0415Z" fill="white"/>
<path d="M906.237 64.5853C908.475 65.5445 909.754 67.303 909.274 68.5819C908.795 69.8608 906.556 70.0207 904.318 68.9016C902.08 67.7826 900.801 66.1839 901.281 64.905C901.92 63.6261 903.999 63.4662 906.237 64.5853Z" fill="white"/>
<path d="M872.506 141.001C875.223 142.12 876.662 144.518 875.863 146.596C875.064 148.674 872.186 149.314 869.468 148.195C866.751 147.076 865.152 144.518 866.111 142.6C866.91 140.521 869.788 139.882 872.506 141.001Z" fill="white"/>
<path d="M921.105 71.7793C923.023 72.7384 924.302 74.3371 923.823 75.4561C923.343 76.5752 921.585 76.7351 919.506 75.7759C917.588 74.8167 916.309 73.218 916.789 72.099C917.268 70.9799 919.187 70.8201 921.105 71.7793Z" fill="white"/>
<path d="M941.567 61.7064C943.805 62.8254 945.244 64.7438 944.924 66.0227C944.605 67.3017 942.686 67.3016 940.288 66.3424C938.05 65.2234 936.611 63.305 936.931 62.0261C937.251 60.7472 939.329 60.5873 941.567 61.7064Z" fill="white"/>
<path d="M863.714 68.2637C866.432 69.3828 867.871 71.4611 867.231 72.8998C866.432 74.4985 863.554 74.8182 860.837 73.6992C858.119 72.5801 856.52 70.5019 857.319 68.9032C858.119 67.4644 860.837 67.1447 863.714 68.2637Z" fill="white"/>
<path d="M804.084 25.0967C806.322 25.7361 807.281 27.0151 806.482 28.1341C805.523 29.0933 803.125 29.413 800.886 28.7736C798.648 28.1341 797.529 26.8552 798.488 25.7361C799.448 24.6171 801.846 24.4572 804.084 25.0967Z" fill="white"/>
<path d="M827.264 93.6815C830.301 94.8006 831.9 97.0387 830.941 98.9571C829.822 100.875 826.465 101.515 823.267 100.396C820.07 99.2768 818.471 97.0387 819.59 95.1203C820.869 93.2019 824.067 92.5625 827.264 93.6815Z" fill="white"/>
<path d="M797.049 227.168C799.607 228.127 800.566 230.525 799.287 232.763C798.008 235.001 795.131 236.12 792.733 235.321C790.175 234.362 789.216 231.964 790.495 229.566C791.774 227.328 794.651 226.369 797.049 227.168Z" fill="white"/>
<path d="M777.705 237.239C779.943 238.039 780.743 240.117 779.624 242.035C778.505 243.954 775.947 244.913 773.709 244.273C771.471 243.474 770.671 241.396 771.79 239.477C772.909 237.559 775.467 236.6 777.705 237.239Z" fill="white"/>
<path d="M846.447 205.108C849.325 206.227 850.604 209.104 849.644 211.662C848.525 214.22 845.488 215.339 842.61 214.22C839.733 213.101 838.294 210.223 839.413 207.666C840.532 204.948 843.57 203.989 846.447 205.108Z" fill="white"/>
<path d="M819.91 216.457C822.788 217.576 824.066 220.454 823.107 223.012C821.988 225.57 818.951 226.689 816.073 225.57C813.196 224.451 811.757 221.573 812.876 219.015C813.995 216.297 817.032 215.338 819.91 216.457Z" fill="white"/>
<path d="M852.521 89.844C854.599 90.6433 855.718 92.242 855.079 93.5209C854.439 94.7998 852.201 95.1195 850.123 94.3202C848.045 93.5209 846.926 91.9222 847.565 90.6433C848.205 89.3644 850.443 89.0447 852.521 89.844Z" fill="white"/>
<path d="M907.197 30.8549C908.956 31.6542 910.235 32.7732 909.915 33.7324C909.595 34.6916 907.997 34.6916 906.078 34.0522C904.32 33.2528 903.041 32.1338 903.361 31.1746C903.84 30.2154 905.439 30.2154 907.197 30.8549Z" fill="white"/>
<path d="M874.584 196.314C876.982 197.273 878.261 199.671 877.461 201.909C876.662 203.987 874.264 204.787 871.706 203.828C869.308 202.708 868.029 200.31 868.829 198.232C869.628 196.154 872.186 195.355 874.584 196.314Z" fill="white"/>
<path d="M900.801 187.362C903.039 188.321 904.318 190.719 903.838 192.637C903.199 194.555 900.961 195.355 898.563 194.396C896.325 193.436 895.046 191.038 895.685 189.12C896.165 187.202 898.403 186.402 900.801 187.362Z" fill="white"/>
<path d="M925.103 181.926C927.181 182.885 928.46 185.123 928.141 186.882C927.661 188.64 925.583 189.28 923.345 188.321C921.107 187.361 919.828 185.123 920.307 183.365C920.787 181.606 922.865 180.967 925.103 181.926Z" fill="white"/>
<path d="M806.32 88.2425C808.398 88.8819 809.357 90.3207 808.718 91.5997C807.919 92.7187 805.68 93.1983 803.442 92.5589C801.364 91.9194 800.245 90.4806 801.044 89.2017C802.004 88.0826 804.242 87.603 806.32 88.2425Z" fill="white"/>
<path d="M820.068 103.434C822.626 104.394 823.745 106.152 822.945 107.751C821.986 109.349 819.269 109.829 816.711 109.03C814.153 108.071 812.874 106.312 813.833 104.713C814.952 103.115 817.51 102.635 820.068 103.434Z" fill="white"/>
<path d="M839.893 112.225C842.131 113.024 843.25 114.783 842.451 116.221C841.652 117.66 839.254 118.14 837.016 117.34C834.777 116.541 833.658 114.783 834.458 113.184C835.417 111.905 837.655 111.425 839.893 112.225Z" fill="white"/>
<path d="M859.398 120.059C861.317 120.858 862.436 122.457 861.796 123.896C861.157 125.174 859.079 125.654 857.16 124.855C855.082 124.055 854.123 122.457 854.762 121.018C855.402 119.739 857.48 119.259 859.398 120.059Z" fill="white"/>
<path d="M877.94 127.892C879.859 128.691 880.978 130.29 880.338 131.729C879.699 133.008 877.78 133.487 875.862 132.688C873.943 131.889 872.824 130.13 873.464 128.851C874.103 127.412 876.022 127.093 877.94 127.892Z" fill="white"/>
<path d="M919.985 35.8109C921.744 36.4504 922.863 37.5694 922.703 38.5286C922.383 39.4878 920.945 39.4878 919.186 38.8483C917.427 38.2089 916.308 37.0898 916.468 36.1306C916.788 35.1714 918.227 35.1715 919.985 35.8109Z" fill="white"/>
<path d="M910.871 25.097C912.47 25.7365 913.429 26.6957 913.269 27.6549C912.949 28.4542 911.67 28.4542 910.072 27.8148C908.473 27.1753 907.514 26.2161 907.674 25.2569C907.993 24.4576 909.272 24.4576 910.871 25.097Z" fill="white"/>
<path d="M901.121 15.9857C902.559 16.6252 903.519 17.4245 903.359 18.2239C903.199 19.0232 901.92 19.0232 900.481 18.5436C899.042 17.9041 898.083 17.1048 898.243 16.3054C898.563 15.3463 899.682 15.3462 901.121 15.9857Z" fill="white"/>
<path d="M930.535 48.2799C932.454 49.2391 933.573 50.5181 933.253 51.6371C932.933 52.7562 931.335 52.5963 929.416 51.797C927.498 50.8378 926.379 49.399 926.699 48.2799C927.178 47.3207 928.777 47.3207 930.535 48.2799Z" fill="white"/>
<path d="M799.608 97.5144C801.687 98.1539 802.806 99.5927 802.006 101.031C801.207 102.31 798.809 102.79 796.571 102.151C794.333 101.511 793.374 100.072 794.173 98.6335C795.132 97.3546 797.37 96.875 799.608 97.5144Z" fill="white"/>
<path d="M780.262 92.2428C782.341 92.7224 783.14 94.0013 782.501 95.2802C781.701 96.3993 779.463 96.8789 777.385 96.3993C775.307 95.9197 774.347 94.6408 775.147 93.3619C776.106 92.2428 778.344 91.7632 780.262 92.2428Z" fill="white"/>
<path d="M943.485 85.2071C942.846 87.4452 944.764 90.3228 948.121 92.5609C944.285 91.282 940.927 91.9214 940.128 94.4793C939.489 96.7174 941.087 99.4351 943.805 101.833C940.448 101.194 937.89 101.993 937.091 104.391C936.291 107.109 938.529 110.626 942.206 113.184C938.05 111.905 934.693 112.864 933.734 115.741C933.094 118.139 934.373 121.017 937.091 123.575C933.734 123.255 931.176 124.374 930.376 126.772C929.577 129.65 931.336 133.007 934.533 135.565C930.696 134.925 927.659 136.204 926.699 139.082C925.58 143.078 928.938 148.034 934.213 150.592C938.529 152.51 942.526 152.191 944.604 149.793C945.084 153.31 948.121 156.987 952.438 159.065C956.115 160.823 959.472 160.664 961.55 159.225C962.669 162.262 965.387 165.3 968.904 167.218C972.581 168.977 975.778 168.817 977.697 167.218C978.816 170.415 981.533 173.453 985.21 175.211C988.887 176.97 992.084 176.81 994.003 175.052C995.122 178.409 998 181.606 1001.52 183.524C1006.63 186.082 1010.63 184.803 1011.11 180.647C1011.27 177.45 1009.35 173.773 1006.15 171.055C1009.51 171.694 1011.91 170.415 1012.23 167.378C1012.39 164.66 1010.79 161.463 1008.07 158.905C1010.95 159.225 1013.03 158.106 1013.19 155.388C1013.35 152.351 1010.95 148.514 1007.43 145.956C1011.11 147.235 1013.99 146.276 1014.31 143.238C1014.47 140.68 1012.71 137.643 1009.83 135.245C1012.71 135.884 1014.79 134.925 1015.11 132.527C1015.26 129.81 1012.87 126.293 1009.35 123.895C1012.55 125.014 1014.95 124.374 1015.26 121.976C1015.42 119.258 1012.55 115.741 1008.71 113.663C1005.35 111.905 1002.48 112.064 1001.52 113.663C1001.04 111.105 998.479 108.228 995.122 106.469C991.925 104.871 989.047 104.711 987.928 106.309C987.289 103.592 984.571 100.554 981.054 98.6358C977.377 96.7174 974.18 96.7174 972.741 98.4759C972.261 96.0779 969.863 93.3602 966.506 91.6017C962.509 89.5235 958.992 89.6833 958.193 92.2412C958.673 89.6833 955.955 86.3261 951.798 84.2479C947.962 82.3295 944.285 82.6492 943.485 85.2071ZM995.761 161.623C997.68 162.582 999.119 164.66 998.959 166.259C998.799 167.858 997.04 168.337 995.122 167.218C993.204 166.099 991.765 164.181 991.925 162.582C992.084 161.143 993.843 160.664 995.761 161.623ZM980.254 154.109C982.013 155.068 983.292 156.827 982.972 158.106C982.652 159.545 981.214 159.864 979.455 159.065C977.697 158.106 976.418 156.347 976.737 154.909C976.897 153.63 978.336 153.15 980.254 154.109ZM964.428 146.276C966.186 147.235 967.465 148.993 967.145 150.272C966.826 151.711 965.227 152.031 963.469 151.072C961.71 150.112 960.431 148.354 960.751 147.075C961.071 145.796 962.669 145.317 964.428 146.276ZM950.2 141.959C949.88 143.398 947.962 143.878 945.883 142.919C943.805 141.8 942.526 139.881 942.846 138.442C943.325 137.004 945.084 136.524 947.162 137.483C949.241 138.602 950.519 140.521 950.2 141.959ZM997.84 150.592C999.598 151.551 1000.72 153.15 1000.56 154.589C1000.4 155.868 998.959 156.347 997.2 155.388C995.442 154.429 994.323 152.67 994.482 151.391C994.642 150.113 996.081 149.793 997.84 150.592ZM949.88 126.612C951.639 127.571 952.757 129.17 952.598 130.449C952.278 131.728 950.679 132.048 948.761 131.248C947.002 130.289 945.883 128.691 946.043 127.412C946.523 126.133 948.121 125.813 949.88 126.612ZM999.119 139.082C1000.72 139.881 1002 141.64 1001.84 142.919C1001.68 144.198 1000.24 144.517 998.639 143.558C996.88 142.599 995.761 141 995.921 139.721C996.081 138.442 997.52 138.282 999.119 139.082ZM952.598 115.582C954.356 116.541 955.475 117.98 955.156 119.258C954.836 120.378 953.237 120.697 951.479 119.898C949.72 118.939 948.601 117.34 948.921 116.221C949.4 114.942 950.839 114.782 952.598 115.582ZM1000.4 128.211C1002 129.01 1003.12 130.609 1003.12 131.728C1002.96 133.007 1001.68 133.167 999.918 132.367C998.319 131.568 997.04 129.969 997.2 128.691C997.36 127.571 998.799 127.412 1000.4 128.211ZM955.156 105.35C956.914 106.149 957.873 107.588 957.713 108.867C957.394 109.986 955.955 110.146 954.196 109.347C952.438 108.388 951.319 106.949 951.638 105.83C951.958 104.551 953.557 104.391 955.156 105.35ZM1001.04 117.18C1002.8 118.139 1004.07 119.738 1003.91 121.017C1003.75 122.296 1002.32 122.456 1000.56 121.497C998.799 120.537 997.52 118.939 997.68 117.66C997.84 116.381 999.278 116.221 1001.04 117.18ZM987.129 110.146C988.727 110.945 989.846 112.384 989.686 113.503C989.527 114.622 988.088 114.782 986.489 113.983C984.89 113.184 983.771 111.745 983.931 110.626C984.251 109.347 985.53 109.347 987.129 110.146ZM973.061 102.952C974.659 103.752 975.778 105.19 975.618 106.309C975.458 107.428 974.02 107.588 972.421 106.789C970.822 105.99 969.703 104.551 969.863 103.432C970.023 102.153 971.462 101.993 973.061 102.952ZM957.713 94.799C959.472 95.7582 960.751 97.3569 960.431 98.4759C960.111 99.595 958.513 99.9147 956.594 98.9555C954.836 97.9964 953.557 96.3977 953.877 95.2786C954.356 94.1595 955.955 93.9997 957.713 94.799Z" fill="white"/>
<path d="M561.413 34.0557H533.756V194.721H561.413V34.0557Z" fill="#5F646A"/>
<path d="M542.866 218.221V244.919C551.819 246.517 558.213 246.997 564.448 246.997C602.976 246.997 621.68 229.412 621.68 193.122V97.043H592.744V193.442C592.744 211.667 582.513 222.697 566.526 222.697C556.295 222.697 548.941 220.299 546.223 219.34L542.866 218.221Z" fill="#5F646A"/>
<path d="M667.881 51.3184H640.225V194.718H667.881V51.3184Z" fill="#5F646A"/>
<path d="M194.838 184.01C208.427 192.962 219.777 194.721 245.675 194.721H255.267C254.948 213.265 244.556 222.377 224.733 222.377C215.781 222.377 205.07 221.098 193.399 217.102L191.481 216.462V243.32C205.709 245.718 216.42 246.997 226.332 246.997C264.22 246.997 283.564 229.411 284.203 194.721H446.946C491.868 194.721 515.529 183.05 515.529 141.166C515.529 114.148 497.943 86.6514 458.616 86.6514C426.643 86.6514 409.378 104.237 409.378 137.808V171.06H384.119C387.796 164.026 390.034 155.394 390.034 144.842C390.034 121.182 375.007 93.6855 333.122 93.6855H329.445L383.639 34.0557H350.068C329.765 56.7566 299.23 90.0086 295.553 93.5256V117.505H334.88C346.87 117.505 361.418 122.142 361.418 143.723C361.418 163.707 352.466 171.06 328.166 171.06H283.244V137.808C283.244 104.237 265.978 86.6514 234.005 86.6514C194.678 86.6514 176.773 113.988 176.773 141.166C176.613 160.989 183.168 176.016 194.838 184.01ZM437.354 141.006C437.354 120.383 444.708 110.471 460.695 110.471C476.681 110.471 486.913 122.142 486.913 140.366C486.913 161.948 477.001 171.22 453.98 171.22H437.354V141.006ZM231.767 110.471C247.754 110.471 254.788 120.383 254.788 141.006V171.22H238.801C215.461 171.22 205.549 161.948 205.549 140.366C205.549 122.142 215.781 110.471 231.767 110.471Z" fill="#5F646A"/>
<path d="M674.593 26.0612H659.246C652.851 25.7415 651.253 24.4625 651.253 19.6666C651.253 14.0713 653.171 12.9522 659.885 12.9522C664.202 12.9522 667.239 13.9114 671.875 17.2686V3.68001L669.797 2.72081C666.44 1.12216 663.402 0.642578 659.566 0.642578C645.338 0.642578 637.344 7.35689 637.344 19.9863C637.344 22.704 637.984 24.6224 638.623 26.2211H633.348V38.5307H674.593V26.0612Z" fill="#5F646A"/>
<path d="M619.918 291.596C590.023 291.596 565.724 315.895 565.724 345.79C565.724 375.685 590.023 399.985 619.918 399.985C649.813 399.985 673.793 375.685 673.793 345.79C673.793 316.055 649.813 291.596 619.918 291.596ZM619.918 375.365C603.452 375.365 590.343 361.937 590.343 345.79C590.343 329.644 603.452 316.535 619.918 316.535C636.064 316.535 649.173 329.644 649.173 345.79C649.173 361.937 636.064 375.365 619.918 375.365Z" fill="#5F646A"/>
<path d="M421.525 290.479C409.695 290.479 397.545 292.876 387.794 296.873C379.8 292.237 372.287 290.479 361.256 290.479C347.508 290.479 333.599 292.237 318.412 297.513L315.694 298.472V398.068H342.712V316.537C348.147 314.778 352.463 314.139 357.899 314.139C371.328 314.139 375.324 318.455 375.324 332.363V398.068H402.661V330.445C402.661 324.37 402.341 320.373 401.382 316.697C406.818 314.938 411.134 313.979 415.93 313.979C428.719 313.979 434.474 319.734 434.474 332.203V397.908H461.652V329.965C461.652 316.537 459.573 308.703 453.498 301.989C446.784 294.795 435.594 290.479 421.525 290.479Z" fill="#5F646A"/>
<path d="M530.077 376.485C512.012 376.485 501.621 365.294 501.621 345.791C501.621 325.807 512.012 314.297 530.236 314.297C534.073 314.297 537.271 314.617 540.308 315.576C540.308 315.576 545.903 317.175 550.859 321.011L562.369 301.348C556.135 296.072 548.781 293.834 546.223 293.195C539.189 291.117 528.798 290.797 528.798 290.797C496.185 290.797 474.443 313.338 474.443 346.91C474.443 379.202 495.226 399.985 527.359 399.985C527.359 399.985 548.941 400.944 563.329 387.516L549.9 370.25C542.546 374.886 537.43 376.485 530.077 376.485Z" fill="#5F646A"/>
<path d="M176.933 291.437C138.246 291.437 120.341 308.542 120.341 344.672V397.907H147.998V346.75V344.352C147.998 326.127 158.389 314.777 174.535 314.777C181.25 314.777 186.365 316.056 190.042 316.855L196.437 292.875C185.726 291.437 176.933 291.437 176.933 291.437Z" fill="#5F646A"/>
<path d="M299.71 341.636V397.909H262.621C237.043 397.909 225.852 396.151 212.424 387.198C200.913 379.205 194.519 364.337 194.519 344.834C194.519 317.976 212.104 290.959 251.111 290.959C282.764 291.119 299.71 308.704 299.71 341.636ZM272.693 344.674C272.693 324.211 264.7 314.299 248.873 314.299C232.726 314.299 222.335 326.129 222.335 344.194C222.335 365.776 232.726 375.208 255.747 375.208H272.533V344.674H272.693Z" fill="#5F646A"/>
<path d="M105.313 341.636V397.909H68.5442C42.9657 397.909 31.7751 396.151 18.3463 387.198C6.83602 379.205 0.441406 364.337 0.441406 344.834C0.441406 317.976 18.0266 290.959 57.0338 290.959C88.5273 291.119 105.313 308.704 105.313 341.636ZM77.3368 344.674C77.3368 324.051 69.9829 314.299 53.8365 314.299C37.6901 314.299 27.2988 326.129 27.2988 344.194C27.2988 365.776 37.6901 375.208 60.7107 375.208H77.1769V344.674H77.3368Z" fill="#5F646A"/>
<defs>
<radialGradient id="paint0_radial_131_75" cx="0" cy="0" r="1" gradientUnits="userSpaceOnUse" gradientTransform="translate(571.21 505.264) scale(765.97 765.97)">
<stop offset="0.29" stop-color="#7FBF3F"/>
<stop offset="0.44" stop-color="#5FB644"/>
<stop offset="0.685" stop-color="#009848"/>
<stop offset="0.705" stop-color="#0062AF"/>
<stop offset="0.9" stop-color="#00A4E5"/>
<stop offset="1" stop-color="#00ACEC"/>
</radialGradient>
</defs>
</svg>
