<svg width="1773" height="400" viewBox="0 0 1773 400" fill="none" xmlns="http://www.w3.org/2000/svg">
<path d="M1484.78 98.7735C1505.23 81.8006 1528.78 71.8898 1555.41 69.0409C1567.41 67.758 1579.55 68.1766 1591.82 70.2967C1595.6 70.9479 1599.38 71.7909 1603.16 72.8258C1630.13 80.1824 1652.57 94.5254 1670.47 115.855C1673 118.87 1675.35 121.95 1677.53 125.093C1689.1 141.841 1696.41 160.403 1699.48 180.779C1700.32 186.299 1700.75 191.849 1700.79 197.43C1700.79 197.69 1700.85 198.109 1700.97 198.686C1701.06 199.113 1701.08 199.549 1701.03 199.994C1700.85 201.448 1700.75 202.903 1700.73 204.361C1700.7 206.628 1700.66 208.08 1700.61 208.715C1698.35 239.285 1687.12 265.801 1666.93 288.262C1654.74 301.824 1640.17 312.425 1623.22 320.064C1619.68 321.661 1616.08 323.089 1612.41 324.349C1592.86 331.078 1572.79 333.159 1552.19 330.593C1548.39 330.12 1544.57 329.444 1540.74 328.564C1511.52 321.828 1487.26 307.062 1467.98 284.268C1465.48 281.31 1463.13 278.237 1460.92 275.047C1442.38 248.206 1434.75 218.345 1438.04 185.465C1438.43 181.558 1439.02 177.727 1439.8 173.971C1445.21 147.82 1457.34 125.365 1476.17 106.605C1478.93 103.861 1481.79 101.25 1484.78 98.7735ZM1611.11 133.541C1603.52 133.378 1593.91 132.992 1582.3 132.384C1571.06 131.795 1559.82 131.659 1548.58 131.977C1543.44 132.12 1538.38 133.151 1533.41 135.07C1530.51 136.194 1527.98 137.597 1525.84 139.279C1523.39 141.194 1521.39 143.326 1519.83 145.675C1516.4 150.857 1514.25 156.89 1513.37 163.773C1513.25 164.708 1513.55 165.335 1514.29 165.657C1514.74 165.859 1515.33 165.81 1516.04 165.512C1522.97 162.593 1530.18 160.977 1537.66 160.663C1540.39 160.551 1542.62 160.452 1544.37 160.366C1546.61 160.254 1548.86 160.254 1551.1 160.366C1555.48 160.584 1557.67 160.692 1557.69 160.692C1564.15 160.87 1570.62 161.124 1577.08 161.454C1582.25 161.721 1586.12 161.896 1588.69 161.977C1597.11 162.241 1603.51 162.318 1607.88 162.21C1613.58 162.066 1618.91 161.339 1623.87 160.029C1630.85 158.184 1636.46 154.248 1640.69 148.221C1643.76 143.845 1645.81 138.485 1646.85 132.14C1646.85 132.124 1646.94 131.706 1647.13 130.884C1647.4 129.706 1647.08 128.808 1646.17 128.192C1645.91 128.018 1645.58 127.989 1645.29 128.111C1637.57 131.367 1629.8 133.13 1621.98 133.401C1617.57 133.556 1613.95 133.603 1611.11 133.541ZM1463.27 225.151C1463.64 225.372 1464.08 225.413 1464.48 225.262C1473.68 221.766 1483.25 219.624 1493.19 218.837C1503.19 218.047 1513.2 217.723 1523.23 217.866C1523.43 217.87 1523.94 217.936 1524.77 218.064C1525.2 218.126 1525.72 218.161 1526.34 218.169C1535.56 218.258 1547.14 218.646 1561.08 219.332C1567.04 219.626 1576.12 219.886 1588.3 220.111C1588.33 220.111 1591.79 220.221 1598.68 220.442C1602.38 220.558 1606.08 220.564 1609.78 220.46C1614.53 220.324 1618.4 220.151 1621.39 219.942C1625.36 219.659 1629.58 219.165 1634.04 218.46C1640.49 217.44 1646.49 215.56 1652.04 212.82C1655.72 211.002 1658.92 208.851 1661.66 206.367C1666.27 202.196 1669.86 197.19 1672.44 191.349C1674.25 187.248 1675.6 183 1676.48 178.605C1676.89 176.547 1676.17 175.227 1674.3 174.646C1674.12 174.587 1673.93 174.599 1673.74 174.669C1664.55 178.177 1654.91 180.322 1644.8 181.105C1634.23 181.927 1624.1 182.221 1614.43 181.989C1614.17 181.985 1613.91 181.981 1613.65 181.977C1607.46 181.892 1601.27 181.704 1595.08 181.413C1589.5 181.146 1585.63 180.977 1583.47 180.907C1577.29 180.698 1571.12 180.508 1564.94 180.337C1563.49 180.295 1561.01 180.194 1557.51 180.035C1555.04 179.927 1552.56 179.853 1550.08 179.814C1547.6 179.779 1543.89 179.686 1538.94 179.535C1535.37 179.43 1531.8 179.436 1528.23 179.553C1523.71 179.7 1520.32 179.841 1518.05 179.977C1514.86 180.163 1511.47 180.491 1507.88 180.96C1503.15 181.58 1498.64 182.545 1494.33 183.855C1490.35 185.064 1486.8 186.589 1483.68 188.43C1472.64 194.942 1465.55 204.748 1462.41 217.849C1462.12 219.062 1461.85 220.277 1461.58 221.494C1461.25 223.053 1461.81 224.272 1463.27 225.151ZM1492.02 271.855C1492.23 272.012 1492.52 272.047 1492.76 271.936C1499.38 268.975 1506.36 267.272 1513.69 266.826C1521.09 266.376 1527.63 266.291 1533.32 266.57C1547.78 267.283 1558.82 267.768 1566.46 268.023C1573.79 268.272 1581.73 268.272 1590.29 268.023C1590.89 268.008 1591.74 267.905 1592.85 267.715C1593.66 267.572 1594.51 267.448 1595.38 267.343C1600.4 266.742 1604.8 265.359 1608.57 263.192C1612.66 260.839 1615.86 257.932 1618.16 254.471C1621.5 249.444 1623.67 243.684 1624.66 237.192C1624.77 236.467 1624.79 235.923 1624.73 235.558C1624.6 234.787 1624.2 234.343 1623.54 234.227C1623.11 234.153 1622.46 234.306 1621.58 234.686C1616.2 237.02 1610.56 238.446 1604.68 238.965C1599.29 239.442 1595.03 239.68 1591.89 239.68C1586.71 239.68 1579.63 239.446 1570.67 238.977C1559.78 238.407 1548.88 237.973 1537.97 237.675C1531.2 237.492 1524.47 237.981 1517.8 239.14C1510.48 240.411 1504.49 243.644 1499.83 248.837C1497.56 251.365 1495.68 254.38 1494.19 257.884C1492.78 261.19 1491.8 264.647 1491.24 268.256C1491.24 268.279 1491.16 268.605 1491.03 269.233C1490.79 270.31 1491.12 271.184 1492.02 271.855Z" fill="#0066CC"/>
<path d="M102.601 180.273C98.5934 183.537 94.295 185.089 89.7058 184.93C85.6438 184.791 82.0547 183.51 78.9384 181.087C75.3376 178.285 73.202 174.32 72.5314 169.192C72.1206 166.052 72.3706 163.052 73.2814 160.192C74.2116 157.277 75.7562 154.799 77.9151 152.756C80.0004 150.791 82.4384 149.423 85.2291 148.651C86.8802 148.194 89.5973 147.965 93.3803 147.965C98.1399 147.965 102.938 147.965 107.776 147.965C107.991 147.965 108.165 148.14 108.165 148.355C108.223 155.611 108.192 162.737 108.072 169.733C108.029 172.186 108.216 173.828 108.63 174.657C109.471 176.339 111.159 177.18 113.694 177.18C132.481 177.18 151.266 177.18 170.049 177.18C172.878 177.18 175.123 177.021 176.781 176.704C179.014 176.273 181.183 175.632 183.287 174.779C185.121 174.031 187.076 172.952 189.154 171.541C190.96 170.312 192.758 168.977 194.549 167.535C194.816 167.32 194.781 166.895 194.479 166.727C189.134 163.692 183.801 160.698 178.479 157.744C174.82 155.709 170.981 155.116 166.962 155.965C165.295 156.314 164.169 156.407 163.584 156.244C162.293 155.876 161.469 154.907 161.113 153.337C160.911 152.454 160.872 151.57 160.997 150.686C161.02 150.512 161.148 150.366 161.316 150.308C161.96 150.099 162.595 149.87 163.223 149.622C167.964 147.742 172.566 147.459 177.031 148.773C178.547 149.219 182.01 150.944 187.421 153.948C192.739 156.897 198.099 159.876 203.502 162.884C203.863 163.087 204.101 163.436 204.136 163.82L204.636 169.297C204.654 169.488 204.572 169.669 204.427 169.779L201.752 171.773C201.322 172.099 201.107 172.616 201.206 173.093C201.539 174.69 202.295 175.835 203.473 176.529C204.21 176.963 205.446 177.18 207.183 177.18C208.869 177.18 210.555 177.18 212.241 177.18C213.338 177.18 214.343 176.636 215.258 175.547C216.386 174.202 216.946 172.324 216.938 169.913C216.907 155.339 216.892 140.766 216.892 126.192C216.892 123.715 216.958 122.25 217.09 121.797C217.613 120.002 219.097 119.163 221.543 119.279C222.318 119.314 223.109 119.331 223.915 119.331C224.212 119.331 224.45 119.57 224.45 119.866C224.45 136.998 224.45 154.116 224.45 171.221C224.45 172.287 224.245 173.556 223.834 175.029C223.458 176.366 222.971 177.545 222.374 178.564C219.719 183.118 215.516 185.256 209.764 184.977C208.508 184.915 207.25 184.859 205.991 184.808C200.727 184.603 196.942 182.196 194.636 177.587C194.566 177.448 194.392 177.407 194.27 177.494C189.402 180.831 184.136 183.052 178.473 184.157C175.973 184.642 172.111 184.884 166.886 184.884C148.913 184.876 130.94 184.837 112.967 184.768C108.871 184.748 105.593 183.268 103.136 180.326C103.002 180.163 102.764 180.14 102.601 180.273ZM84.9384 175.942C86.0585 176.632 87.3124 177.031 88.7 177.14C94.2582 177.574 97.9345 175.545 99.7291 171.052C100.221 169.816 100.467 168.147 100.467 166.047C100.467 162.709 100.467 159.415 100.467 156.163C100.467 155.89 100.247 155.669 99.9733 155.669C98.1244 155.669 96.3279 155.669 94.5837 155.669C91.0256 155.669 89.231 155.671 89.2 155.675C85.2155 156.035 82.4016 158.074 80.7582 161.791C80.3551 162.709 80.1419 163.828 80.1186 165.145C80.0837 166.913 80.0837 168.066 80.1186 168.605C80.231 170.426 80.8706 172.025 82.0372 173.401C82.9132 174.44 83.8802 175.287 84.9384 175.942Z" fill="#0066CC"/>
<path d="M243.242 175.989C243.874 176.783 244.696 177.18 245.707 177.18C248.01 177.18 250.42 177.175 252.94 177.163C255.246 177.155 256.796 176.322 257.591 174.663C257.979 173.853 258.172 172.304 258.172 170.018C258.172 168.607 258.172 167.196 258.172 165.785C258.172 164.099 258.3 162.7 258.556 161.587C260.01 155.262 263.769 151.023 269.835 148.872C271.948 148.124 274.333 147.775 276.992 147.826C279.515 147.872 281.849 148.304 283.992 149.122C289.608 151.266 293.203 155.351 294.777 161.378C295.083 162.553 295.236 163.994 295.236 165.704C295.236 167.157 295.236 168.611 295.236 170.064C295.236 172.409 295.467 174.016 295.928 174.884C296.824 176.558 298.484 177.357 300.911 177.279C302.36 177.237 303.81 177.208 305.26 177.192C307.248 177.173 308.653 176.915 309.475 176.419C310.874 175.578 311.686 174.188 311.911 172.25C311.969 171.766 311.998 171.277 311.998 170.785C312.06 155.967 312.093 141.147 312.097 126.326C312.097 123.768 312.145 122.304 312.242 121.936C312.723 120.134 314.176 119.256 316.603 119.303C317.521 119.322 318.356 119.332 319.108 119.332C319.411 119.332 319.655 119.576 319.655 119.878C319.655 136.808 319.655 153.632 319.655 170.349C319.655 172.787 319.188 175.074 318.254 177.21C317.254 179.492 315.862 181.277 314.079 182.564C312.037 184.037 309.632 184.795 306.864 184.837C304.732 184.868 302.601 184.878 300.469 184.866C296.291 184.851 292.878 183.297 290.231 180.204C290.126 180.082 289.94 180.07 289.818 180.175C286.884 182.744 283.566 184.275 279.864 184.768C276.868 185.163 274.048 185.025 271.405 184.355C268.688 183.665 266.124 182.299 263.713 180.256C263.527 180.099 263.254 180.116 263.091 180.297C261.041 182.541 258.674 183.973 255.992 184.593C254.833 184.861 253.025 184.983 250.568 184.96C247.502 184.929 245.692 184.882 245.137 184.82C241.73 184.444 238.965 182.903 236.841 180.198C235.837 178.919 235.058 177.384 234.504 175.593C234.105 174.318 233.895 172.638 233.876 170.553C233.725 153.851 233.684 136.996 233.754 119.989C233.76 119.622 234.05 119.332 234.417 119.332C235.622 119.332 236.661 119.351 237.533 119.39C240.068 119.51 241.333 120.847 241.329 123.401C241.318 139.049 241.306 154.698 241.294 170.349C241.291 172.465 241.94 174.345 243.242 175.989ZM287.609 165.303C287.579 159.843 283.132 155.436 277.668 155.466L275.575 155.477C270.114 155.506 265.707 159.954 265.737 165.418L265.747 167.36C265.777 172.82 270.225 177.227 275.689 177.197L277.782 177.186C283.242 177.157 287.649 172.71 287.619 167.245L287.609 165.303Z" fill="#0066CC"/>
<path d="M329.498 121.046C330.37 119.779 331.597 119.184 333.178 119.262C334.093 119.308 335.027 119.331 335.98 119.331C336.277 119.331 336.515 119.57 336.515 119.866C336.515 140.052 336.525 160.223 336.544 180.378C336.544 182.048 335.802 183.233 334.317 183.93C332.643 184.717 330.973 185.347 329.306 185.82C329.149 185.866 328.992 185.744 328.992 185.581L328.957 122.779C328.957 122.147 329.137 121.57 329.498 121.046Z" fill="#0066CC"/>
<path d="M436.306 181.826C434.419 183.764 431.969 184.758 428.957 184.808C426.709 184.843 424.461 184.866 422.213 184.878C419.895 184.89 418.029 184.644 416.614 184.14C412.618 182.721 409.959 180.085 408.637 176.233C408.037 174.481 407.736 171.397 407.736 166.983C407.736 151.289 407.736 135.583 407.736 119.866C407.736 119.57 407.975 119.332 408.271 119.332C409.322 119.332 410.355 119.324 411.37 119.308C412.676 119.289 413.678 119.696 414.376 120.529C414.868 121.111 415.114 122.051 415.114 123.349C415.134 138.969 415.176 154.587 415.242 170.204C415.254 172.44 415.816 174.27 416.928 175.692C417.769 176.762 419.017 177.279 420.672 177.244C422.901 177.202 425.128 177.221 427.353 177.302C429.988 177.399 431.794 176.353 432.771 174.163C433.225 173.147 433.442 171.828 433.422 170.204C433.353 164.002 433.318 157.801 433.318 151.599C433.318 150.63 433.482 149.81 433.812 149.14C434.145 148.457 434.756 147.969 435.643 147.675C437.031 147.213 438.649 147.101 440.498 147.337C440.8 147.378 441.021 147.634 441.021 147.936C441.021 156.006 441.021 163.899 441.021 171.616C441.021 173.213 441.225 174.363 441.632 175.064C442.085 175.839 442.738 176.417 443.591 176.797C444.161 177.052 444.988 177.18 446.074 177.18C448.112 177.18 450.151 177.18 452.19 177.18C454.701 177.18 456.167 177.124 456.585 177.012C457.729 176.709 458.62 176.041 459.26 175.006C459.69 174.304 459.915 173.283 459.934 171.942C459.961 169.938 460.012 167.936 460.085 165.936C460.17 163.467 460.449 161.496 460.922 160.023C462.729 154.337 466.657 150.512 472.707 148.547C473.68 148.233 474.744 148.043 475.899 147.977C476.62 147.938 477.694 147.913 479.12 147.901C485.713 147.851 490.831 150.549 494.475 155.994C495.951 158.204 496.835 160.808 497.126 163.808C497.285 165.444 497.345 167.771 497.306 170.791C497.283 172.721 497.448 174.045 497.8 174.762C498.269 175.719 499.025 176.403 500.068 176.814C500.688 177.058 501.649 177.18 502.951 177.18C504.641 177.18 506.329 177.18 508.015 177.18C509.449 177.18 510.564 176.936 511.358 176.448C513.013 175.425 513.841 173.876 513.841 171.802C513.841 155.961 513.839 140.118 513.835 124.273C513.831 120.452 516.147 118.855 520.783 119.483C521.283 119.552 521.649 119.983 521.643 120.483C521.585 126.719 521.581 133.118 521.632 139.68C521.663 143.89 521.659 147.764 521.62 151.302C521.535 159.376 521.51 164.514 521.544 166.715C521.595 169.851 521.467 172.219 521.161 173.82C520.118 179.192 517.213 182.669 512.446 184.25C511.163 184.676 509.446 184.886 507.294 184.878C505.554 184.87 503.812 184.855 502.068 184.832C498.215 184.781 494.951 183.244 492.277 180.221C492.167 180.093 491.975 180.082 491.853 180.192C488.577 183.068 484.717 184.667 480.271 184.989C474.659 185.395 469.74 183.824 465.515 180.273C465.393 180.175 465.207 180.186 465.097 180.302C463.488 182.058 461.616 183.324 459.481 184.099C458.023 184.626 455.763 184.886 452.701 184.878C450.407 184.874 448.112 184.864 445.818 184.849C442.76 184.83 439.926 183.801 437.318 181.762C437.015 181.523 436.579 181.552 436.306 181.826ZM471.934 175.483C473.275 176.417 474.719 176.977 476.265 177.163C477.672 177.333 479.18 177.335 480.789 177.169C482.599 176.983 484.205 176.345 485.608 175.256C488.178 173.26 489.517 170.51 489.626 167.006C489.785 162.01 487.882 158.535 483.917 156.582C482.51 155.888 480.973 155.487 479.306 155.378C477.543 155.266 475.936 155.471 474.486 155.994C470.475 157.448 468.24 160.134 467.783 164.052C467.512 166.363 467.618 168.421 468.103 170.227C468.669 172.347 469.946 174.099 471.934 175.483Z" fill="#0066CC"/>
<path d="M530.811 185.476C530.664 164.538 530.639 143.761 530.735 123.145C530.743 121.664 531.365 120.571 532.602 119.866C533.237 119.505 534.139 119.323 535.305 119.319C536.282 119.319 537.218 119.333 538.113 119.36C538.358 119.366 538.549 119.564 538.549 119.808C538.549 140.083 538.542 160.176 538.526 180.087C538.526 181.137 538.255 182.05 537.712 182.825C537.297 183.422 536.557 183.93 535.491 184.348C534.166 184.872 532.774 185.368 531.317 185.837C531.067 185.918 530.811 185.738 530.811 185.476Z" fill="#0066CC"/>
<path d="M748.161 177.383C743.099 180.891 737.606 183.176 731.684 184.238C729.296 184.668 725.43 184.883 720.085 184.883C712.748 184.883 705.409 184.883 698.068 184.883C695.478 184.883 693.612 184.705 692.469 184.348C690.74 183.813 689.05 182.901 687.399 181.61C687.213 181.465 686.946 181.47 686.765 181.633C685.393 182.846 683.816 183.72 682.033 184.255C680.878 184.6 679.126 184.802 676.777 184.86C674.354 184.914 671.932 184.924 669.509 184.889C666.207 184.835 663.395 183.759 661.073 181.662C660.94 181.546 660.736 181.534 660.597 181.645C657.837 183.761 654.945 184.823 651.922 184.831C634.287 184.866 616.651 184.883 599.015 184.883C594.961 184.883 591.597 183.37 588.922 180.343C588.818 180.22 588.632 180.215 588.509 180.319C586.223 182.308 583.802 183.624 581.248 184.267C575.341 185.751 570.178 184.922 565.759 181.779C562.783 179.662 560.632 176.893 559.306 173.47C557.953 169.982 557.672 166.325 558.463 162.5C559.92 155.434 563.852 150.893 570.259 148.877C572.135 148.288 574.792 147.982 578.23 147.959C583.285 147.92 588.337 147.957 593.387 148.069C593.544 148.075 593.672 148.209 593.678 148.372C593.856 159.453 593.891 167.215 593.783 171.657C593.728 173.831 594.444 175.408 595.928 176.389C596.726 176.916 597.973 177.18 599.666 177.18C616.496 177.18 633.323 177.18 650.149 177.18C652.056 177.18 653.399 176.986 654.178 176.598C655.112 176.133 655.831 175.424 656.335 174.47C656.688 173.804 656.864 172.86 656.864 171.639C656.864 165.054 656.86 158.47 656.852 151.889C656.849 148.777 658.403 147.224 661.515 147.232C662.29 147.236 663.18 147.238 664.184 147.238C664.393 147.238 664.568 147.412 664.568 147.622C664.568 155.095 664.568 162.556 664.568 170.005C664.568 172.412 664.802 174.054 665.271 174.93C665.953 176.193 667.071 176.934 668.626 177.151C668.757 177.17 670.027 177.182 672.434 177.186C674.124 177.189 675.814 177.184 677.504 177.168C679.12 177.149 680.298 176.887 681.038 176.383C681.81 175.856 682.366 175.141 682.707 174.238C682.916 173.676 683.027 172.812 683.039 171.645C683.194 155.734 683.24 139.823 683.178 123.912C683.174 122.482 683.428 121.428 683.94 120.75C684.734 119.699 685.889 119.199 687.405 119.25C688.091 119.273 688.661 119.286 689.114 119.29C689.602 119.294 690.085 119.346 690.562 119.447C690.725 119.482 690.841 119.627 690.841 119.802C690.88 136.996 690.891 154.188 690.876 171.377C690.876 172.986 691.135 174.178 691.655 174.953C692.166 175.717 692.849 176.308 693.701 176.726C694.321 177.029 695.18 177.18 696.277 177.18C705.583 177.18 714.891 177.18 724.201 177.18C726.682 177.18 728.676 177.042 730.184 176.767C732.172 176.403 734.112 175.87 736.004 175.168C738.077 174.401 740.271 173.248 742.585 171.709C744.616 170.356 746.616 168.876 748.585 167.267C748.695 167.18 748.678 167.005 748.556 166.936C743.157 163.862 737.723 160.802 732.254 157.755C728.645 155.744 724.856 155.149 720.887 155.97C719.287 156.3 718.162 156.383 717.515 156.22C715.422 155.697 714.5 153.978 714.748 151.063C714.777 150.662 715.056 150.319 715.445 150.209C716.298 149.965 717.205 149.672 718.166 149.331C719.364 148.905 720.273 148.626 720.893 148.494C725.854 147.439 730.734 148.22 735.533 150.837C742.889 154.841 750.195 158.936 757.451 163.122C757.608 163.209 757.725 163.36 757.771 163.54C758.256 165.505 758.411 167.498 758.236 169.517C758.219 169.703 758.12 169.877 757.975 169.982L755.318 171.895C755.009 172.122 754.858 172.488 754.922 172.843C755.457 175.722 757.122 177.164 759.916 177.168C762.599 177.176 765.281 177.18 767.963 177.18C769.331 177.18 770.407 176.939 771.19 176.459C772.616 175.579 773.478 174.314 773.777 172.662C773.839 172.329 773.87 170.879 773.87 168.314C773.87 162.306 773.87 156.298 773.87 150.29C773.87 149.158 774.569 148.323 775.969 147.784C777.298 147.269 778.907 147.11 780.794 147.308C781.073 147.337 781.283 147.575 781.283 147.854C781.283 156.067 781.283 164.098 781.283 171.947C781.283 173.97 782.017 175.465 783.486 176.43C784.242 176.93 785.347 177.18 786.8 177.18C788.281 177.18 789.761 177.18 791.242 177.18C794.234 177.18 795.827 177.158 796.021 177.116C797.831 176.732 799.071 175.494 799.742 173.401C799.858 173.044 799.998 172.368 800.161 171.372C800.269 170.72 800.323 170.032 800.323 169.308C800.323 154.04 800.323 138.773 800.323 123.505C800.323 122.381 800.451 121.558 800.707 121.034C801.161 120.12 801.905 119.6 802.94 119.476C804.475 119.294 805.961 119.253 807.399 119.354C807.591 119.366 807.736 119.529 807.736 119.72C807.736 136.418 807.736 152.955 807.736 169.331C807.736 172.013 807.502 174.098 807.033 175.587C805.61 180.122 802.819 183.021 798.661 184.284C797.331 184.688 795.319 184.887 792.626 184.883C790.587 184.879 788.55 184.872 786.515 184.86C783.523 184.841 780.63 183.825 777.835 181.814C777.637 181.674 777.37 181.674 777.178 181.819C774.453 183.835 771.655 184.85 768.783 184.866C766.407 184.877 764.033 184.883 761.661 184.883C758.575 184.883 756.006 184.389 753.951 183.401C751.335 182.145 749.517 180.174 748.498 177.488C748.445 177.354 748.277 177.302 748.161 177.383ZM569.475 175.034C571.168 176.438 573.068 177.178 575.172 177.255C579.854 177.434 583.139 175.73 585.027 172.145C585.736 170.8 586.153 168.953 586.277 166.604C586.459 163.131 586.447 159.593 586.242 155.988C586.23 155.808 586.085 155.668 585.905 155.668C583.11 155.668 580.312 155.668 577.509 155.668C574.885 155.668 572.976 155.907 571.783 156.383C569.818 157.166 568.296 158.49 567.219 160.354C565.556 163.242 565.215 166.474 566.195 170.052C566.73 172.013 567.823 173.674 569.475 175.034Z" fill="#0066CC"/>
<path d="M975.491 175.546C975.864 175.314 975.927 174.796 975.614 174.488L961.904 161.099C961.701 160.895 961.59 160.616 961.614 160.337L962.073 154.785C962.102 154.43 962.288 154.11 962.584 153.907C971.321 147.833 980.896 146.045 991.311 148.541C993.555 149.079 995.66 149.911 997.625 151.035C999.935 152.353 1001.47 153.777 1002.24 155.308C1003.41 157.649 1002.78 160.01 1000.36 162.389C998.462 164.258 994.16 168.347 987.451 174.657C987.334 174.767 987.334 174.948 987.445 175.052C988.666 176.215 990.069 176.913 991.654 177.145C991.805 177.169 993.321 177.18 996.201 177.18C999.325 177.18 1002.45 177.18 1005.57 177.18C1005.61 177.18 1006.08 177.203 1006.98 177.25C1009.08 177.355 1010.63 176.496 1011.63 174.674C1012.43 173.198 1012.8 171.545 1012.74 169.715C1012.7 168.645 1012.68 168.097 1012.68 168.07C1012.68 153.857 1012.68 139.643 1012.68 125.43C1012.68 123.577 1012.68 122.614 1012.69 122.541C1012.86 121.428 1013.4 120.572 1014.32 119.971C1014.94 119.56 1015.86 119.345 1017.06 119.326C1018.06 119.31 1019.02 119.32 1019.94 119.355C1020.19 119.366 1020.38 119.57 1020.38 119.814C1020.38 136.643 1020.38 153.295 1020.38 169.767C1020.38 172.655 1019.77 175.337 1018.56 177.814C1017.68 179.577 1016.56 181.017 1015.18 182.134C1013.67 183.347 1011.97 184.163 1010.1 184.581C1009.19 184.783 1006.54 184.884 1002.14 184.884C999.356 184.884 996.569 184.88 993.782 184.872C989.491 184.868 985.553 183.455 981.968 180.634C981.724 180.442 981.375 180.448 981.131 180.645C977.84 183.393 973.966 184.779 969.509 184.802C961.222 184.849 952.933 184.876 944.643 184.884C941.612 184.884 939.418 184.655 938.061 184.198C935.782 183.43 933.922 182.097 932.48 180.198C931.216 178.527 930.334 176.577 929.834 174.349C929.54 173.046 929.393 170.948 929.393 168.052C929.393 152.13 929.393 136.039 929.393 119.779C929.393 119.552 929.573 119.366 929.794 119.36C930.941 119.322 932.16 119.358 933.451 119.471C935.238 119.626 936.342 120.393 936.765 121.773C936.889 122.18 936.951 123.368 936.951 125.337C936.951 140.194 936.941 155.052 936.922 169.913C936.918 172.11 937.424 173.94 938.439 175.401C939.098 176.347 939.988 176.92 941.108 177.122C941.329 177.161 942.336 177.18 944.131 177.18C952.732 177.18 961.331 177.18 969.927 177.18C971.055 177.18 972.015 177.048 972.805 176.785C973.782 176.459 974.677 176.046 975.491 175.546ZM993.48 157.715C985.945 154.126 978.269 154.223 970.451 158.006C970.265 158.099 970.224 158.343 970.369 158.488L981.247 169.366C981.416 169.535 981.689 169.541 981.864 169.384C984.91 166.636 987.809 163.849 990.561 161.023C991.522 160.035 992.517 159.167 993.544 158.419C993.794 158.232 993.759 157.849 993.48 157.715Z" fill="#0066CC"/>
<path d="M1030.21 120.965C1031.02 119.915 1032 119.376 1033.17 119.349C1034.37 119.318 1035.46 119.32 1036.46 119.355C1036.73 119.366 1036.95 119.593 1036.95 119.866V181.977C1036.95 182.814 1036.55 183.384 1035.75 183.686L1030.05 185.826C1029.8 185.919 1029.54 185.727 1029.54 185.454L1029.57 122.826C1029.57 122.132 1029.78 121.512 1030.21 120.965Z" fill="#0066CC"/>
<path d="M1310.55 155.598C1313.35 151.428 1317.26 148.932 1322.27 148.11C1323.47 147.912 1325.46 147.881 1328.23 148.017C1330.99 148.149 1333.55 148.928 1335.91 150.354C1341.87 153.955 1344.79 159.312 1344.68 166.424C1344.62 169.932 1344.66 172.209 1344.8 173.255C1345 174.775 1345.73 175.877 1346.98 176.564C1347.73 176.97 1348.92 177.178 1350.57 177.186C1352.47 177.193 1354.38 177.217 1356.28 177.255C1357.78 177.283 1359.01 176.639 1359.95 175.325C1360.88 174.038 1361.34 172.719 1361.34 171.366C1361.36 155.963 1361.37 140.562 1361.37 125.162C1361.37 123.209 1361.56 121.874 1361.96 121.157C1362.71 119.761 1364.12 119.127 1366.17 119.255C1366.94 119.306 1367.73 119.331 1368.54 119.331C1368.83 119.331 1369.07 119.569 1369.07 119.866C1369.07 136.66 1369.07 153.439 1369.07 170.203C1369.07 172.831 1368.5 175.325 1367.36 177.686C1365.57 181.379 1362.79 183.662 1359.02 184.534C1358 184.771 1356.46 184.885 1354.39 184.877C1352.84 184.874 1351.29 184.866 1349.74 184.854C1345.63 184.819 1342.3 183.271 1339.75 180.209C1339.61 180.046 1339.36 180.023 1339.2 180.168C1336.94 182.188 1334.43 183.56 1331.66 184.284C1329 184.982 1326.22 185.164 1323.3 184.831C1319.41 184.385 1315.92 182.808 1312.83 180.098C1312.76 180.029 1312.64 180.04 1312.57 180.122C1310.01 183.195 1306.7 184.765 1302.65 184.831C1300.32 184.866 1297.83 184.883 1295.18 184.883C1294.78 184.883 1294.46 185.232 1294.5 185.633C1294.97 190.606 1293.66 194.959 1290.57 198.691C1288.21 201.548 1285.34 203.467 1281.94 204.447C1280.47 204.874 1278.27 205.087 1275.33 205.087C1273.1 205.087 1270.86 205.087 1268.64 205.087C1267.05 205.087 1265.92 204.565 1265.25 203.523C1265.07 203.24 1264.7 202.265 1264.14 200.598C1263.83 199.695 1263.57 198.781 1263.36 197.854C1263.32 197.703 1263.44 197.564 1263.59 197.564C1267.28 197.533 1270.98 197.519 1274.68 197.523C1277.23 197.523 1279.18 197.267 1280.51 196.755C1284.96 195.042 1287.15 191.3 1287.09 185.529C1287.08 185.162 1286.78 184.866 1286.41 184.872C1283.76 184.922 1281.2 184.92 1278.73 184.866C1275.56 184.8 1273.04 184.43 1271.17 183.755C1265.31 181.651 1261.61 177.279 1260.06 170.639C1259.87 169.802 1259.8 168.033 1259.86 165.331C1259.91 163.3 1260.17 161.564 1260.64 160.122C1262.37 154.877 1265.63 151.296 1270.42 149.377C1274.07 147.912 1277.86 147.691 1281.8 148.715C1287.56 150.207 1291.5 153.912 1293.6 159.831C1294.19 161.47 1294.51 163.509 1294.58 165.947C1294.69 169.525 1294.7 173.162 1294.61 176.86C1294.61 177.034 1294.75 177.18 1294.93 177.18C1297.11 177.18 1299.3 177.18 1301.48 177.18C1303.14 177.18 1304.36 176.967 1305.15 176.54C1306.45 175.835 1307.21 174.722 1307.43 173.203C1307.44 173.133 1307.44 171.907 1307.44 169.523C1307.44 168.294 1307.45 167.067 1307.45 165.843C1307.46 162.087 1308.49 158.672 1310.55 155.598ZM1271.46 175.389C1273.03 176.583 1274.52 177.18 1275.9 177.18C1279.24 177.18 1282.83 177.18 1286.65 177.18C1286.9 177.18 1287.09 176.982 1287.09 176.732C1287.09 174.178 1287.09 171.724 1287.09 169.372C1287.09 165.953 1286.84 163.532 1286.34 162.11C1285.18 158.792 1282.81 156.682 1279.22 155.779C1277.7 155.391 1276.17 155.441 1274.65 155.93C1269.47 157.577 1267.04 161.465 1267.35 167.593C1267.52 170.852 1268.89 173.451 1271.46 175.389ZM1336.94 165.229C1336.89 159.761 1332.41 155.377 1326.95 155.437L1324.95 155.458C1319.48 155.517 1315.09 159.994 1315.15 165.457L1315.18 167.433C1315.23 172.901 1319.71 177.284 1325.17 177.225L1327.17 177.204C1332.64 177.145 1337.03 172.668 1336.97 167.205L1336.94 165.229Z" fill="#0066CC"/>
<path d="M1385.22 182.721C1384.63 183.546 1383.86 184.116 1382.92 184.43C1382.14 184.69 1381.73 184.825 1381.71 184.837C1380.7 185.236 1379.73 185.564 1378.82 185.82C1378.53 185.901 1378.23 185.674 1378.23 185.366C1378.23 165.416 1378.23 145.57 1378.23 125.825C1378.23 123.732 1378.38 122.327 1378.68 121.61C1379.36 119.994 1380.75 119.217 1382.87 119.279C1382.93 119.279 1383.42 119.283 1384.34 119.29C1384.77 119.294 1385.2 119.345 1385.61 119.442C1385.78 119.477 1385.9 119.633 1385.9 119.808C1385.94 139.851 1385.95 159.895 1385.93 179.942C1385.93 181.132 1385.7 182.058 1385.22 182.721Z" fill="#0066CC"/>
<path d="M1269.43 138.18C1268.49 137.041 1267.83 135.702 1267.44 134.163C1267.36 133.872 1267.63 133.593 1267.95 133.611L1269.85 133.721C1270.23 133.744 1270.53 133.378 1270.44 132.989C1270 130.911 1270.17 129.004 1270.96 127.268C1272.57 123.71 1275.38 121.996 1279.4 122.128C1280.93 122.182 1282.47 122.229 1284.01 122.268C1284.16 122.274 1284.27 122.413 1284.24 122.558C1283.82 124.376 1283.5 125.469 1283.28 125.837C1282.72 126.76 1281.92 127.204 1280.88 127.169C1279.69 127.13 1279.08 127.111 1279.06 127.111C1276.09 127.514 1274.94 129.334 1275.61 132.57C1275.78 133.341 1276.25 133.725 1277.03 133.721L1284.67 133.692C1284.83 133.686 1284.99 133.803 1285.02 133.971C1285.26 135.118 1285.29 136.498 1285.13 138.111C1285.11 138.337 1284.92 138.512 1284.69 138.512L1269.92 138.413C1269.72 138.413 1269.54 138.326 1269.43 138.18Z" fill="#0066CC"/>
<path d="M87.0383 139.529C89.7162 139.529 91.8871 137.358 91.8871 134.68C91.8871 132.002 89.7162 129.831 87.0383 129.831C84.3603 129.831 82.1895 132.002 82.1895 134.68C82.1895 137.358 84.3603 139.529 87.0383 139.529Z" fill="#0066CC"/>
<path d="M100.224 139.623C102.899 139.623 105.067 137.454 105.067 134.78C105.067 132.105 102.899 129.937 100.224 129.937C97.5492 129.937 95.3809 132.105 95.3809 134.78C95.3809 137.454 97.5492 139.623 100.224 139.623Z" fill="#0066CC"/>
<path d="M572.845 139.506C575.51 139.506 577.671 137.345 577.671 134.68C577.671 132.015 575.51 129.854 572.845 129.854C570.18 129.854 568.02 132.015 568.02 134.68C568.02 137.345 570.18 139.506 572.845 139.506Z" fill="#0066CC"/>
<path d="M586.015 139.617C588.69 139.617 590.858 137.448 590.858 134.774C590.858 132.099 588.69 129.931 586.015 129.931C583.34 129.931 581.172 132.099 581.172 134.774C581.172 137.448 583.34 139.617 586.015 139.617Z" fill="#0066CC"/>
<path d="M770.119 139.506C772.784 139.506 774.944 137.345 774.944 134.68C774.944 132.015 772.784 129.854 770.119 129.854C767.453 129.854 765.293 132.015 765.293 134.68C765.293 137.345 767.453 139.506 770.119 139.506Z" fill="#0066CC"/>
<path d="M783.288 139.605C785.963 139.605 788.131 137.437 788.131 134.762C788.131 132.087 785.963 129.919 783.288 129.919C780.614 129.919 778.445 132.087 778.445 134.762C778.445 137.437 780.614 139.605 783.288 139.605Z" fill="#0066CC"/>
<path d="M850.189 139.511C852.864 139.511 855.032 137.343 855.032 134.668C855.032 131.993 852.864 129.825 850.189 129.825C847.514 129.825 845.346 131.993 845.346 134.668C845.346 137.343 847.514 139.511 850.189 139.511Z" fill="#0066CC"/>
<path d="M863.357 139.627C866.031 139.627 868.2 137.459 868.2 134.784C868.2 132.11 866.031 129.941 863.357 129.941C860.682 129.941 858.514 132.11 858.514 134.784C858.514 137.459 860.682 139.627 863.357 139.627Z" fill="#0066CC"/>
<path d="M1075.68 139.517C1078.35 139.517 1080.52 137.349 1080.52 134.674C1080.52 131.999 1078.35 129.831 1075.68 129.831C1073 129.831 1070.83 131.999 1070.83 134.674C1070.83 137.349 1073 139.517 1075.68 139.517Z" fill="#0066CC"/>
<path d="M1088.87 139.622C1091.54 139.622 1093.7 137.459 1093.7 134.79C1093.7 132.122 1091.54 129.959 1088.87 129.959C1086.2 129.959 1084.04 132.122 1084.04 134.79C1084.04 137.459 1086.2 139.622 1088.87 139.622Z" fill="#0066CC"/>
<path d="M1092.46 180.971C1092.24 180.739 1092.03 180.512 1091.8 180.291C1091.69 180.175 1091.5 180.169 1091.38 180.273C1086.37 184.343 1080.99 185.768 1075.25 184.547C1071.23 183.694 1067.96 181.855 1065.42 179.029C1062.67 175.979 1061.26 172.225 1061.16 167.768C1061.12 165.841 1061.16 164.266 1061.28 163.041C1061.43 161.421 1061.85 159.884 1062.53 158.43C1064.83 153.516 1068.39 150.31 1073.21 148.814C1075.03 148.248 1077.92 147.965 1081.89 147.965C1086.72 147.965 1091.55 147.965 1096.39 147.965C1096.57 147.965 1096.71 148.105 1096.72 148.285C1096.92 155.351 1096.91 162.318 1096.69 169.186C1096.61 171.426 1096.69 172.921 1096.92 173.669C1097.34 175.103 1098.14 176.107 1099.32 176.68C1100.01 177.014 1101.19 177.18 1102.86 177.18C1103.97 177.18 1105.09 177.18 1106.2 177.18C1107.63 177.18 1108.71 176.977 1109.44 176.57C1111.05 175.671 1111.85 174.13 1111.83 171.948C1111.82 167.952 1111.81 163.956 1111.8 159.959C1111.8 157.029 1111.86 155.337 1111.97 154.884C1112.51 152.69 1114.2 151.677 1117.04 151.843C1117.08 151.843 1117.47 151.845 1118.21 151.849C1118.54 151.849 1118.87 151.894 1119.19 151.983C1119.36 152.029 1119.47 152.18 1119.47 152.361C1119.51 158.446 1119.53 164.533 1119.51 170.622C1119.51 172.459 1119.74 173.787 1120.2 174.605C1120.7 175.496 1121.42 176.182 1122.36 176.663C1123.03 177.008 1123.97 177.18 1125.18 177.18C1126.41 177.18 1127.63 177.18 1128.86 177.18C1130.73 177.18 1132.1 176.915 1132.96 176.384C1133.85 175.83 1134.53 175.062 1135 174.082C1135.33 173.395 1135.5 172.428 1135.5 171.18C1135.5 165.518 1135.5 159.826 1135.5 154.105C1135.5 153.925 1135.64 153.779 1135.82 153.779H1142.4C1142.68 153.779 1142.91 154.006 1142.91 154.285C1142.91 159.394 1142.91 164.556 1142.91 169.773C1142.91 171.967 1143.19 173.558 1143.74 174.547C1144.88 176.57 1146.88 177.496 1149.75 177.326C1150.81 177.26 1151.88 177.217 1152.94 177.198C1154.36 177.167 1155.39 176.998 1156.05 176.692C1157.18 176.153 1157.99 175.304 1158.47 174.145C1158.76 173.459 1158.9 172.361 1158.9 170.849C1158.9 163.899 1158.93 156.95 1158.99 150C1159.02 146.775 1160.68 145.293 1163.99 145.552C1164.71 145.611 1165.48 145.64 1166.28 145.64C1166.46 145.64 1166.6 145.785 1166.6 145.965C1166.59 154.353 1166.6 162.628 1166.63 170.791C1166.64 172.888 1166.93 174.349 1167.5 175.175C1168.43 176.512 1169.97 177.18 1172.12 177.18C1177.83 177.18 1183.53 177.18 1189.23 177.18C1192.06 177.18 1193.73 177.109 1194.24 176.965C1195.64 176.558 1196.61 175.642 1197.14 174.215C1197.42 173.471 1197.56 172.233 1197.56 170.5C1197.56 166.535 1197.56 162.572 1197.56 158.611C1197.56 156.316 1197.57 155.136 1197.58 155.07C1197.81 153.628 1198.66 152.657 1200.11 152.157C1200.63 151.979 1201.36 151.89 1202.31 151.89C1203.1 151.89 1203.84 151.89 1204.54 151.89C1204.86 151.89 1205.12 152.151 1205.12 152.471C1205.12 158.335 1205.12 164.004 1205.12 169.477C1205.12 170.682 1205.17 171.715 1205.29 172.576C1205.43 173.715 1205.82 174.653 1206.43 175.39C1207.24 176.359 1208.28 176.944 1209.53 177.145C1209.69 177.169 1210.92 177.18 1213.21 177.18C1214.03 177.18 1214.85 177.18 1215.67 177.18C1216.62 177.18 1217.41 177.027 1218.03 176.721C1220.18 175.663 1221.25 173.83 1221.25 171.221C1221.25 165.647 1221.25 159.942 1221.25 154.105C1221.25 153.925 1221.4 153.779 1221.58 153.779H1228.41C1228.57 153.779 1228.71 153.913 1228.71 154.076C1228.67 159.638 1228.65 165.116 1228.66 170.512C1228.66 172.426 1228.93 173.812 1229.46 174.669C1230.03 175.591 1230.83 176.279 1231.86 176.733C1232.54 177.031 1233.54 177.18 1234.85 177.18C1235.95 177.18 1237.05 177.18 1238.15 177.18C1240.05 177.18 1241.42 176.909 1242.27 176.366C1243.2 175.777 1243.86 174.948 1244.27 173.878C1244.53 173.215 1244.65 172.202 1244.65 170.837C1244.65 163.76 1244.65 156.682 1244.65 149.605C1244.65 148.74 1244.79 148.062 1245.08 147.57C1245.46 146.915 1245.98 146.413 1246.64 146.064C1247.19 145.781 1248.02 145.64 1249.14 145.64C1250.03 145.64 1250.89 145.64 1251.72 145.64C1251.99 145.64 1252.21 145.861 1252.21 146.134C1252.21 154.27 1252.21 162.306 1252.21 170.244C1252.21 172.93 1251.95 175.002 1251.44 176.459C1250.02 180.467 1247.22 183.099 1243.04 184.355C1241.84 184.715 1240.27 184.888 1238.35 184.872C1236.77 184.861 1235.19 184.837 1233.61 184.802C1230.47 184.733 1227.67 183.634 1225.19 181.506C1225.06 181.39 1224.86 181.39 1224.73 181.506C1221.93 183.897 1218.74 185.045 1215.15 184.948C1213.55 184.905 1211.95 184.874 1210.35 184.855C1207.06 184.82 1204.22 183.727 1201.82 181.576C1201.65 181.43 1201.4 181.43 1201.23 181.576C1198.53 183.917 1195.37 185.064 1191.75 185.018C1185.84 184.94 1179.92 184.895 1174.01 184.884C1171.31 184.88 1169.39 184.719 1168.25 184.401C1166.45 183.894 1164.69 183.014 1162.97 181.762C1162.75 181.605 1162.46 181.616 1162.25 181.785C1159.79 183.82 1157.02 184.847 1153.96 184.866C1152.41 184.878 1150.86 184.915 1149.31 184.977C1145.66 185.124 1142.44 184.014 1139.66 181.645C1139.48 181.494 1139.23 181.489 1139.05 181.622C1136.14 183.762 1133.21 184.843 1130.26 184.866C1128.42 184.878 1126.58 184.878 1124.74 184.866C1121.56 184.843 1118.67 183.739 1116.06 181.552C1115.89 181.407 1115.64 181.419 1115.47 181.57C1113.09 183.799 1110.17 184.923 1106.72 184.942C1104.52 184.958 1102.33 184.874 1100.15 184.692C1097.09 184.436 1094.53 183.196 1092.46 180.971ZM1072.66 175.343C1074.17 176.483 1076.02 177.095 1078.23 177.18C1082.93 177.363 1086.27 175.461 1088.22 171.477C1088.72 170.458 1088.98 169.113 1088.98 167.442C1089 163.624 1088.99 159.806 1088.95 155.989C1088.95 155.832 1088.82 155.704 1088.65 155.698C1085.52 155.659 1082.38 155.603 1079.25 155.529C1077.92 155.502 1076.8 155.645 1075.9 155.959C1071.63 157.463 1069.23 160.244 1068.71 164.302C1068.42 166.489 1068.53 168.471 1069.05 170.25C1069.63 172.273 1070.84 173.971 1072.66 175.343Z" fill="#0066CC"/>
<path d="M370.491 152.146C373.755 149.429 377.351 148.035 381.282 147.966C383.708 147.923 389.753 147.935 399.415 148C399.578 148 399.706 148.134 399.706 148.297C399.741 154.266 399.755 160.235 399.747 166.204C399.743 169.049 399.483 171.299 398.968 172.954C397.158 178.741 393.237 182.512 387.206 184.268C383.194 185.435 379.324 185.295 375.596 183.849C372.235 182.547 369.508 180.446 367.415 177.547C365.241 174.535 364.13 171.099 364.084 167.239C364.049 164.126 364.485 161.392 365.392 159.035C366.396 156.435 368.096 154.138 370.491 152.146ZM371.665 165.483C371.491 167.235 371.596 168.663 371.979 169.768C373.596 174.404 376.611 176.892 381.026 177.233C383.251 177.404 385.266 177.008 387.072 176.047C389.115 174.962 390.565 173.347 391.421 171.204C391.952 169.874 392.208 167.696 392.189 164.669C392.173 161.824 392.171 158.936 392.183 156.006C392.183 155.82 392.032 155.669 391.851 155.669C388.925 155.669 385.985 155.623 383.032 155.53C378.001 155.374 374.561 157.322 372.712 161.373C372.165 162.57 371.817 163.94 371.665 165.483Z" fill="#0066CC"/>
<path d="M865.625 180.261C863.435 182.463 860.809 183.88 857.747 184.511C854.143 185.252 850.708 185.073 847.445 183.976C844.499 182.988 842.022 181.372 840.015 179.128C837.937 176.81 836.575 174.054 835.927 170.86C835.738 169.918 835.643 168.697 835.643 167.197C835.643 166.376 835.643 165.556 835.643 164.738C835.643 163.785 835.707 162.973 835.834 162.302C836.439 159.097 837.817 156.292 839.968 153.889C843.41 150.037 847.782 148.087 853.084 148.04C858.949 147.99 864.912 147.965 870.974 147.965C871.148 147.965 871.288 148.104 871.288 148.279C871.315 155.957 871.265 163.653 871.137 171.366C871.067 175.537 873.143 177.509 877.364 177.285C878.67 177.215 879.972 177.132 881.27 177.035C882.724 176.93 883.827 176.378 884.579 175.378C885.083 174.703 885.395 173.616 885.515 172.116C885.708 169.694 885.757 167.263 885.66 164.825C885.567 162.43 886.046 160.159 887.096 158.011C889.732 152.639 893.908 149.382 899.625 148.238C900.536 148.056 901.691 147.965 903.09 147.965C903.865 147.965 904.641 147.965 905.416 147.965C906.323 147.965 907.09 148.013 907.718 148.11C911.772 148.738 915.133 150.471 917.8 153.308C920.311 155.975 921.846 159.066 922.404 162.581C922.939 165.969 922.753 169.29 921.846 172.546C920.699 176.659 918.187 179.911 914.311 182.302C912.125 183.651 909.728 184.48 907.119 184.79C904.565 185.089 902.075 185.007 899.648 184.546C896.404 183.93 893.503 182.461 890.945 180.139C890.829 180.035 890.648 180.046 890.544 180.163C888.331 182.787 885.604 184.323 882.363 184.773C880.643 185.013 878.563 185.079 876.125 184.971C873.765 184.866 871.716 184.341 869.98 183.395C868.468 182.569 867.253 181.542 866.334 180.314C866.16 180.081 865.829 180.058 865.625 180.261ZM914.864 165.28C914.834 159.814 910.381 155.407 904.917 155.437L902.917 155.447C897.451 155.476 893.044 159.93 893.074 165.394L893.084 167.371C893.114 172.837 897.567 177.244 903.031 177.214L905.031 177.204C910.497 177.174 914.904 172.721 914.874 167.257L914.864 165.28ZM850.509 176.901C852.303 177.416 854.131 177.442 855.991 176.976C857.798 176.519 859.358 175.694 860.672 174.5C862.408 172.918 863.367 170.953 863.55 168.604C863.677 166.942 863.644 162.763 863.451 156.069C863.445 155.907 863.317 155.773 863.154 155.767C861.367 155.69 859.581 155.649 857.794 155.645C854.197 155.637 852.315 155.641 852.148 155.657C848.524 156.033 845.821 158 844.038 161.558C843.577 162.484 843.298 163.961 843.201 165.988C843.069 168.775 843.658 171.118 844.968 173.017C846.274 174.913 848.121 176.207 850.509 176.901Z" fill="#0066CC"/>
<path d="M424.32 196.119C424.04 198.782 425.957 201.166 428.601 201.444C431.245 201.722 433.616 199.788 433.896 197.125C434.175 194.462 432.259 192.077 429.615 191.8C426.971 191.522 424.6 193.455 424.32 196.119Z" fill="#0066CC"/>
<path d="M652.812 201.465C655.487 201.465 657.655 199.297 657.655 196.622C657.655 193.948 655.487 191.779 652.812 191.779C650.137 191.779 647.969 193.948 647.969 196.622C647.969 199.297 650.137 201.465 652.812 201.465Z" fill="#0066CC"/>
<path d="M442.283 201.541C444.945 201.541 447.102 199.383 447.102 196.721C447.102 194.059 444.945 191.901 442.283 191.901C439.621 191.901 437.463 194.059 437.463 196.721C437.463 199.383 439.621 201.541 442.283 201.541Z" fill="#0066CC"/>
<path d="M665.98 201.558C668.651 201.558 670.817 199.393 670.817 196.721C670.817 194.049 668.651 191.884 665.98 191.884C663.308 191.884 661.143 194.049 661.143 196.721C661.143 199.393 663.308 201.558 665.98 201.558Z" fill="#0066CC"/>
<path d="M1169.87 226.274L1170.96 227.663C1171.06 227.791 1171.05 227.989 1170.95 228.157C1168.05 232.774 1166.31 237.196 1165.73 241.425C1164.89 247.502 1164.75 253.946 1165.29 260.756C1165.79 266.853 1167.67 272.295 1170.94 277.082C1171.05 277.245 1171.07 277.436 1171.01 277.605C1170.62 278.566 1169.94 279.21 1168.96 279.535C1168.79 279.588 1168.61 279.529 1168.5 279.384C1164.78 274.496 1162.63 268.967 1162.06 262.797C1161.47 256.452 1161.44 250.103 1161.95 243.75C1162.45 237.549 1164.52 231.791 1168.15 226.477C1168.73 225.628 1169.31 225.56 1169.87 226.274Z" fill="#0066CC"/>
<path d="M1377.12 279.273L1375.8 277.924C1375.62 277.744 1375.6 277.448 1375.75 277.204C1378.39 273.01 1380.12 268.727 1380.96 264.355C1381.82 259.82 1382.03 254.163 1381.57 247.384C1381.1 240.221 1379.21 233.909 1375.91 228.448C1375.8 228.273 1375.76 228.081 1375.79 227.907C1375.97 226.837 1376.57 226.188 1377.61 225.959C1377.78 225.919 1377.97 225.983 1378.08 226.128C1381.24 230.062 1383.17 234.143 1383.9 238.372C1385.32 246.674 1385.55 255.012 1384.59 263.384C1383.93 269.116 1381.91 274.316 1378.54 278.983C1378.16 279.506 1377.49 279.645 1377.12 279.273Z" fill="#0066CC"/>
<path d="M470.578 236.245C472.31 234.415 474.305 233.06 476.56 232.181C478.13 231.572 480.448 231.212 483.514 231.099C488.227 230.925 492.942 230.869 497.659 230.931C499.907 230.958 501.19 231.022 501.508 231.123C503.043 231.607 503.648 233.037 503.322 235.413C503.281 235.692 503.043 235.902 502.764 235.902C496.097 235.902 489.566 235.921 483.171 235.96C479.415 235.983 476.396 237.233 474.113 239.71C472.779 241.159 471.898 242.971 471.467 245.146C471.115 246.944 470.946 248.998 470.961 251.309C470.977 253.611 471.049 255.555 471.177 257.14C471.355 259.365 471.857 261.219 472.682 262.704C473.989 265.045 475.88 266.686 478.357 267.628C479.806 268.183 482.179 268.46 485.473 268.46C491.186 268.46 496.983 268.46 502.863 268.46C503.148 268.46 503.374 268.686 503.374 268.971C503.374 269.502 503.374 270.068 503.374 270.669C503.374 271.363 503.254 271.9 503.014 272.279C502.541 273.028 501.837 273.402 500.903 273.402C494.946 273.402 488.987 273.394 483.025 273.378C480.618 273.371 478.345 272.927 476.206 272.047C474.074 271.175 472.202 269.9 470.589 268.221C468.039 265.578 466.613 262.411 466.31 258.721C465.938 254.163 465.938 249.803 466.31 245.64C466.632 242.043 468.055 238.911 470.578 236.245Z" fill="#0066CC"/>
<path d="M804.973 268.744C801.663 265.613 799.985 261.739 799.938 257.122C799.903 253.828 799.903 250.533 799.938 247.239C799.977 243.506 801.134 240.175 803.409 237.244C805.161 234.993 807.386 233.334 810.084 232.268C811.781 231.597 814.237 231.206 817.45 231.093C822.027 230.931 826.609 230.876 831.194 230.931C833.5 230.958 834.814 231.018 835.136 231.111C836.748 231.587 837.39 233.029 837.06 235.436C837.025 235.704 836.793 235.907 836.514 235.907C830.63 235.861 824.876 235.874 819.252 235.948C815.752 235.994 813.227 236.332 811.677 236.96C807.944 238.479 805.661 241.518 804.828 246.076C804.572 247.479 804.516 250.27 804.659 254.448C804.775 257.839 805.202 260.341 805.938 261.954C807.182 264.686 809.231 266.58 812.084 267.634C813.568 268.184 815.936 268.458 819.188 268.454C824.998 268.446 830.808 268.46 836.619 268.494C836.799 268.494 836.956 268.605 837.002 268.768C837.568 270.675 837.088 272.153 835.56 273.204C835.409 273.308 835.223 273.367 835.025 273.367C828.882 273.409 822.741 273.413 816.601 273.378C812.089 273.355 808.213 271.81 804.973 268.744Z" fill="#0066CC"/>
<path d="M157.287 271.662C155.458 270.236 154.533 268.344 154.514 265.988C154.417 254.515 154.388 243.044 154.427 231.575C154.427 231.406 154.555 231.267 154.723 231.25C155.929 231.118 156.969 231.226 157.845 231.575C158.725 231.928 159.138 232.612 159.084 233.627C159.057 234.12 159.043 234.375 159.043 234.395C159.043 243.969 159.043 253.542 159.043 263.116C159.043 265.058 159.318 266.428 159.869 267.226C160.795 268.563 162.303 269.096 164.392 268.825C164.555 268.802 164.706 268.918 164.712 269.069L164.874 273.11C164.88 273.279 164.752 273.424 164.578 273.453C161.865 273.93 159.435 273.333 157.287 271.662Z" fill="#0066CC"/>
<path d="M308.276 265.157C308.443 265.611 308.613 265.611 308.788 265.157L321.125 232.861C321.328 232.32 321.741 231.884 322.27 231.652C323.259 231.214 324.675 231.113 326.52 231.349C326.77 231.384 326.921 231.64 326.834 231.873L310.927 273.268C310.863 273.437 310.706 273.547 310.526 273.547H306.654C306.363 273.547 306.102 273.367 305.997 273.094L298.921 254.489C298.782 254.113 298.64 254.113 298.497 254.489L291.288 273.309C291.224 273.483 291.049 273.599 290.857 273.593L286.945 273.553C286.753 273.553 286.578 273.437 286.509 273.262C281.404 260.103 276.334 246.894 271.299 233.634C271.291 233.607 271.109 233.218 270.753 232.466C270.288 231.481 270.65 231.039 271.84 231.14C272.313 231.183 272.793 231.192 273.282 231.169C274.855 231.103 275.923 231.809 276.485 233.285C280.555 243.952 284.571 254.512 288.532 264.966C288.741 265.516 288.948 265.518 289.154 264.971L295.863 247.227C295.933 247.047 295.933 246.849 295.863 246.675L291.014 233.576C290.933 233.367 291.09 233.14 291.311 233.14C292.28 233.14 293.1 233.103 293.77 233.03C294.925 232.898 295.776 233.196 296.322 233.925C296.446 234.092 296.762 234.84 297.27 236.169C300.991 245.886 304.66 255.549 308.276 265.157Z" fill="#0066CC"/>
<path d="M371.205 241.68L371.112 231.959C371.107 231.599 371.397 231.302 371.764 231.279C374.969 231.081 376.397 232.428 376.048 235.319C375.928 236.319 375.959 238.513 376.141 241.901C376.153 242.064 376.281 242.192 376.444 242.197L382.048 242.395C382.235 242.401 382.38 242.535 382.374 242.697L382.31 246.767C382.304 246.93 382.159 247.064 381.979 247.064L376.729 247.087C376.374 247.093 376.089 247.372 376.083 247.715C376.045 253.199 376.031 258.765 376.043 264.412C376.047 265.819 376.264 266.823 376.694 267.424C377.36 268.358 378.405 268.827 379.828 268.831C380.766 268.831 381.622 268.779 382.397 268.674C382.641 268.639 382.862 268.802 382.909 269.04C383.219 270.606 383.266 272.002 383.048 273.226C383.019 273.395 382.874 273.517 382.7 273.529C380.328 273.684 378.607 273.63 377.537 273.366C374.777 272.684 372.897 271.24 371.897 269.035C371.37 267.864 371.107 265.699 371.107 262.54C371.107 257.699 371.107 252.703 371.107 247.552C371.107 247.302 370.909 247.099 370.665 247.104L366.136 247.145C365.932 247.145 365.764 246.988 365.764 246.796L365.746 242.843C365.74 242.447 366.095 242.145 366.49 242.192C368.242 242.409 369.725 242.36 370.938 242.046C371.095 242.005 371.205 241.854 371.205 241.68Z" fill="#0066CC"/>
<path d="M1043.75 247.232C1042.2 247.007 1040.65 246.998 1039.09 247.203C1038.9 247.226 1038.74 247.087 1038.73 246.895L1038.66 242.697C1038.66 242.523 1038.79 242.383 1038.95 242.383L1043.44 242.308C1043.79 242.302 1044.07 242.035 1044.07 241.703V231.802C1044.07 231.581 1044.24 231.395 1044.45 231.366C1046.35 231.087 1047.71 231.467 1048.52 232.506C1048.63 232.645 1048.69 232.831 1048.69 233.029L1048.76 241.971C1048.76 242.133 1048.89 242.267 1049.06 242.267L1054.95 242.29C1055.13 242.296 1055.26 242.436 1055.26 242.61V246.726C1055.26 247.011 1055.01 247.232 1054.73 247.203C1052.83 246.998 1050.94 247.009 1049.05 247.238C1048.88 247.256 1048.76 247.395 1048.76 247.564C1048.72 253.126 1048.69 258.686 1048.68 264.244C1048.68 267.527 1050.34 269.05 1053.67 268.814C1054.25 268.771 1054.92 268.75 1055.69 268.75C1055.86 268.75 1055.99 268.883 1055.99 269.052V273.104C1055.99 273.302 1055.83 273.471 1055.64 273.488C1054.18 273.612 1052.83 273.604 1051.58 273.465C1050.12 273.302 1048.84 272.909 1047.76 272.285C1045.77 271.149 1044.58 269.48 1044.18 267.279C1044.11 266.891 1044.07 264.959 1044.08 261.482C1044.09 256.843 1044.07 252.203 1044.04 247.564C1044.04 247.395 1043.92 247.256 1043.75 247.232Z" fill="#0066CC"/>
<path d="M1287.92 269.965C1285.14 267.764 1283.29 265.06 1282.36 261.855C1281.93 260.347 1281.72 257.851 1281.72 254.366C1281.73 251.843 1281.74 249.322 1281.76 246.802C1281.78 244.202 1282.45 241.785 1283.76 239.552C1285.93 235.859 1288.9 233.386 1292.65 232.134C1294.42 231.545 1297.43 231.25 1301.69 231.25C1306.57 231.25 1311.44 231.252 1316.31 231.256C1317.31 231.256 1318.03 231.624 1318.47 232.36C1318.68 232.721 1318.78 233.26 1318.78 233.977C1318.78 234.531 1318.78 235.091 1318.78 235.657C1318.78 235.953 1318.54 236.192 1318.25 236.192C1311.71 236.176 1305.19 236.184 1298.68 236.215C1296.61 236.227 1294.96 236.483 1293.73 236.983C1290.73 238.219 1288.62 240.347 1287.38 243.366C1286.9 244.545 1286.66 246.099 1286.66 248.029C1286.66 250.382 1286.66 252.733 1286.66 255.081C1286.66 258.07 1286.93 260.262 1287.48 261.657C1288.55 264.362 1290.47 266.328 1293.23 267.552C1295.12 268.386 1297.48 268.797 1300.32 268.785C1306.18 268.762 1312.17 268.75 1318.3 268.75C1318.54 268.75 1318.73 268.936 1318.75 269.174C1318.79 269.822 1318.8 270.504 1318.78 271.221C1318.75 272.109 1318.42 272.733 1317.8 273.093C1317.44 273.298 1316.82 273.401 1315.93 273.401C1310.43 273.401 1304.94 273.401 1299.45 273.401C1296.74 273.401 1294.73 273.207 1293.4 272.82C1291.42 272.242 1289.59 271.291 1287.92 269.965Z" fill="#0066CC"/>
<path d="M1337.34 270.116C1334.59 267.988 1332.72 265.356 1331.71 262.221C1331.23 260.721 1330.99 258.457 1330.99 255.43C1330.99 253.135 1330.99 250.841 1330.99 248.546C1330.99 244.678 1331.83 241.44 1333.52 238.831C1335.64 235.537 1338.43 233.3 1341.89 232.122C1343.6 231.54 1346.35 231.248 1350.14 231.244C1355.1 231.24 1360.07 231.252 1365.03 231.279C1366.03 231.283 1366.78 231.525 1367.28 232.006C1368.29 232.963 1368.57 234.254 1368.1 235.878C1368.06 236.04 1367.9 236.157 1367.73 236.151C1360.83 236.128 1353.92 236.176 1347.02 236.296C1345.27 236.327 1343.83 236.593 1342.71 237.093C1339.75 238.414 1337.72 240.538 1336.61 243.465C1336.06 244.934 1335.79 247.288 1335.79 250.529C1335.79 252.122 1335.79 253.715 1335.79 255.308C1335.79 257.288 1335.96 258.864 1336.29 260.035C1337.44 264.069 1339.86 266.705 1343.54 267.942C1345.14 268.48 1348.43 268.75 1353.42 268.75C1358.07 268.75 1362.79 268.75 1367.59 268.75C1367.85 268.75 1368.07 268.942 1368.1 269.197C1368.3 270.67 1368.09 271.804 1367.46 272.599C1367.06 273.106 1366.37 273.364 1365.38 273.372C1359.81 273.403 1354.23 273.414 1348.66 273.407C1345.99 273.403 1344.02 273.221 1342.74 272.86C1340.79 272.31 1338.99 271.395 1337.34 270.116Z" fill="#0066CC"/>
<path d="M109.661 253.308C112.389 256.188 113.424 259.636 112.765 263.651C111.986 268.376 109.657 271.477 105.777 272.954C104.227 273.543 101.618 273.839 97.9515 273.843C89.8894 273.851 81.8274 273.838 73.7654 273.803C73.5503 273.803 73.3701 273.715 73.2887 273.582C73.1918 273.403 73.1646 273.194 73.2073 272.954C73.2499 272.737 73.2577 272.547 73.2305 272.384C73.0367 271.229 73.3643 270.318 74.2131 269.651C74.3584 269.541 74.5445 269.477 74.7422 269.471C83.1879 269.386 91.6356 269.299 100.085 269.21C101.992 269.19 103.463 268.921 104.498 268.401C106.494 267.401 107.721 265.839 108.178 263.715C108.67 261.421 108.347 259.316 107.207 257.401C105.928 255.25 103.779 254.188 100.76 254.215C91.1705 254.305 85.1995 254.268 82.8468 254.105C81.0755 253.985 79.3991 253.432 77.8177 252.448C76.3255 251.518 75.122 250.299 74.2073 248.791C72.8003 246.481 72.3003 243.977 72.7073 241.279C73.3817 236.799 75.6743 233.812 79.5852 232.32C80.9418 231.801 82.8856 231.541 85.4166 231.541C93.6104 231.541 101.915 231.541 110.329 231.541C110.498 231.541 110.643 231.669 110.672 231.838C111.114 234.617 110.184 235.998 107.882 235.983C100.591 235.932 93.3022 235.905 86.0154 235.901C83.6666 235.901 82.0019 236.134 81.0212 236.599C79.8739 237.142 78.9573 237.965 78.2712 239.07C77.6743 240.039 77.3449 241.177 77.2829 242.483C77.1472 245.514 78.3642 247.65 80.934 248.89C82.0154 249.409 83.5774 249.677 85.6201 249.692C90.8604 249.723 96.1007 249.748 101.341 249.768C104.659 249.776 107.432 250.956 109.661 253.308Z" fill="#0066CC"/>
<path d="M1180.08 251.488C1178.36 250.097 1177.22 248.447 1176.67 246.54C1175.79 243.533 1176.07 240.645 1177.5 237.878C1178.85 235.257 1180.76 233.438 1183.24 232.418C1184.66 231.833 1187.08 231.54 1190.48 231.54C1197.91 231.54 1205.35 231.54 1212.78 231.54C1212.82 231.54 1213.13 231.502 1213.72 231.424C1214.29 231.35 1214.56 231.649 1214.51 232.319C1214.48 232.719 1214.47 233.071 1214.49 233.378C1214.54 234.153 1214.32 234.79 1213.84 235.29C1213.47 235.674 1212.9 235.866 1212.12 235.866C1204.95 235.885 1197.79 235.907 1190.62 235.93C1187.62 235.938 1185.54 236.238 1184.38 236.831C1182.81 237.633 1181.73 238.912 1181.15 240.668C1180.64 242.23 1180.68 243.792 1181.28 245.354C1182.08 247.428 1183.52 248.812 1185.61 249.505C1186.62 249.835 1188.49 250 1191.24 250C1195.77 250 1200.3 250 1204.83 250C1206.63 250 1208.15 250.284 1209.4 250.854C1214.5 253.176 1216.89 257.205 1216.56 262.941C1216.36 266.449 1214.9 269.284 1212.18 271.447C1210.08 273.122 1207.68 273.949 1204.97 273.93C1195.82 273.868 1186.66 273.837 1177.5 273.837C1177.32 273.837 1177.16 273.732 1177.1 273.575C1176.44 271.901 1176.78 270.589 1178.13 269.639C1178.28 269.534 1178.46 269.476 1178.66 269.471C1186.72 269.323 1194.78 269.271 1202.85 269.314C1205.26 269.325 1207.02 269.067 1208.13 268.54C1210.68 267.323 1211.94 265.031 1211.91 261.662C1211.89 258.713 1210.79 256.639 1208.63 255.441C1207.52 254.825 1205.71 254.49 1203.19 254.436C1198.21 254.331 1193.23 254.321 1188.26 254.407C1185.27 254.453 1182.54 253.48 1180.08 251.488Z" fill="#0066CC"/>
<path d="M1239.06 265.395L1246 247.366C1246.07 247.192 1246.07 246.994 1246 246.814L1241.01 233.593C1240.96 233.447 1241.05 233.296 1241.2 233.273C1241.7 233.203 1242.57 233.159 1243.78 233.139C1245.43 233.112 1246.48 233.728 1246.94 234.988C1250.7 245.155 1254.54 255.288 1258.47 265.389C1258.54 265.571 1258.61 265.571 1258.68 265.389L1271.29 232.878C1271.62 232.021 1272.29 231.579 1273.31 231.552L1276.5 231.471C1276.77 231.465 1276.97 231.721 1276.88 231.965L1261.01 273.267C1260.94 273.436 1260.79 273.546 1260.61 273.546H1256.53C1256.34 273.546 1256.17 273.424 1256.1 273.244L1249.04 254.738C1248.85 254.223 1248.65 254.223 1248.46 254.738L1241.45 273.168C1241.39 273.343 1241.23 273.459 1241.06 273.465L1236.86 273.523C1236.67 273.529 1236.48 273.395 1236.4 273.192L1220.6 231.93C1220.51 231.692 1220.7 231.436 1220.97 231.442L1224.54 231.546C1225.42 231.573 1226.01 231.967 1226.3 232.726L1238.84 265.389C1238.91 265.575 1238.99 265.577 1239.06 265.395Z" fill="#0066CC"/>
<path d="M176.241 237.43C177.856 237.43 179.165 236.121 179.165 234.505C179.165 232.89 177.856 231.581 176.241 231.581C174.626 231.581 173.316 232.89 173.316 234.505C173.316 236.121 174.626 237.43 176.241 237.43Z" fill="#0066CC"/>
<path d="M707.073 237.436C708.688 237.436 709.997 236.126 709.997 234.511C709.997 232.896 708.688 231.587 707.073 231.587C705.458 231.587 704.148 232.896 704.148 234.511C704.148 236.126 705.458 237.436 707.073 237.436Z" fill="#0066CC"/>
<path d="M1068.46 237.424C1070.08 237.424 1071.39 236.115 1071.39 234.5C1071.39 232.885 1070.08 231.575 1068.46 231.575C1066.85 231.575 1065.54 232.885 1065.54 234.5C1065.54 236.115 1066.85 237.424 1068.46 237.424Z" fill="#0066CC"/>
<path d="M432.387 244.54C434.236 243.122 436.581 242.228 439.422 241.86C441.371 241.608 444.083 241.6 447.556 241.837C447.724 241.849 447.846 242 447.806 242.151L446.986 245.244C446.734 246.186 446.042 246.657 444.91 246.657C443.782 246.657 442.693 246.657 441.643 246.657C440.294 246.657 439.216 246.769 438.41 246.994C435.523 247.8 433.496 249.523 432.329 252.162C431.825 253.306 431.573 254.907 431.573 256.965C431.573 262.283 431.573 267.703 431.573 273.226C431.573 273.401 431.428 273.546 431.247 273.546L427.027 273.575C426.887 273.581 426.777 273.471 426.771 273.331L426.672 241.604C426.672 241.43 426.788 241.285 426.951 241.25C428.013 241.025 429.065 241.021 430.108 241.238C430.782 241.378 431.218 241.695 431.416 242.192C431.621 242.703 431.658 243.31 431.527 244.011C431.348 244.938 431.635 245.114 432.387 244.54Z" fill="#0066CC"/>
<path d="M536.336 261.466C536.357 268.081 531.014 273.459 524.402 273.485L522.448 273.492C515.834 273.517 510.45 268.168 510.43 261.557L510.4 253.196C510.38 246.581 515.723 241.203 522.335 241.178L524.289 241.171C530.903 241.145 536.287 246.494 536.307 253.106L536.336 261.466ZM531.403 253.465C531.403 249.325 528.043 245.965 523.903 245.965H522.834C518.694 245.965 515.334 249.325 515.334 253.465V261.209C515.334 265.349 518.694 268.709 522.834 268.709H523.903C528.043 268.709 531.403 265.349 531.403 261.209V253.465Z" fill="#0066CC"/>
<path d="M650.787 244.866C650.787 245.173 650.909 245.225 651.154 245.023C653.444 243.136 656.074 242.08 659.043 241.855C661.454 241.669 664.026 241.669 666.758 241.855C666.979 241.872 667.136 242.087 667.078 242.302C666.876 243.074 666.627 243.923 666.328 244.849C665.886 246.229 664.909 246.876 663.398 246.791C662.398 246.729 661.396 246.688 660.392 246.669C659.252 246.649 658.272 246.775 657.45 247.047C654.628 247.977 652.652 249.752 651.52 252.372C651.012 253.539 650.758 255.194 650.758 257.337C650.758 262.643 650.758 267.95 650.758 273.256C650.758 273.419 650.63 273.547 650.468 273.547H646.2C645.991 273.547 645.816 273.372 645.816 273.163V241.436C645.816 241.268 645.95 241.134 646.119 241.134H649.532C650.353 241.134 650.766 241.558 650.77 242.407L650.787 244.866Z" fill="#0066CC"/>
<path d="M688.846 261C688.381 260.481 687.808 260.147 687.125 260C683.951 259.322 681.017 258.684 678.323 258.087C673.672 257.056 671.309 254.407 671.236 250.139C671.209 248.481 671.56 246.992 672.288 245.674C673.106 244.198 674.242 243.074 675.695 242.302C676.97 241.632 679.108 241.24 682.108 241.128C685.472 241.004 687.753 241.017 688.951 241.168C690.831 241.409 691.654 242.515 691.422 244.488C691.375 244.86 691.335 245.232 691.3 245.605C691.288 245.767 691.149 245.895 690.986 245.895C687.703 245.938 684.42 245.942 681.137 245.907C679.904 245.895 678.823 246.19 677.893 246.791C676.889 247.438 676.278 248.293 676.061 249.355C675.802 250.606 676.246 251.731 677.393 252.727C677.92 253.184 678.897 253.55 680.323 253.825C682.063 254.167 683.081 254.372 683.375 254.442C684.844 254.802 686.315 255.159 687.788 255.512C693.098 256.779 695.387 260.077 694.654 265.407C694.158 269.008 692.387 271.448 689.34 272.727C688.038 273.273 686.015 273.546 683.271 273.546C681.042 273.546 678.813 273.546 676.585 273.546C676.565 273.546 676.306 273.56 675.806 273.587C674.585 273.649 673.794 273.103 673.434 271.948C673.139 271.006 673.145 270.019 673.451 268.988C673.503 268.825 673.66 268.715 673.835 268.715C680.164 268.785 683.906 268.796 685.061 268.75C687.081 268.668 688.521 267.769 689.381 266.052C689.8 265.215 689.974 264.368 689.904 263.512C689.823 262.539 689.47 261.701 688.846 261Z" fill="#0066CC"/>
<path d="M746.092 261.455C746.113 268.07 740.77 273.453 734.152 273.479L732.21 273.486C725.589 273.512 720.206 268.163 720.185 261.545L720.156 253.208C720.136 246.593 725.479 241.209 732.097 241.184L734.039 241.177C740.659 241.151 746.043 246.5 746.063 253.118L746.092 261.455ZM741.152 253.457C741.148 249.32 737.781 245.971 733.645 245.976L732.564 245.978C728.427 245.982 725.078 249.349 725.083 253.485L725.096 261.229C725.101 265.366 728.467 268.715 732.603 268.71L733.685 268.708C737.822 268.703 741.171 265.337 741.166 261.201L741.152 253.457Z" fill="#0066CC"/>
<path d="M870.116 261.565C870.142 268.139 864.828 273.488 858.251 273.514L856.344 273.52C849.77 273.546 844.421 268.232 844.395 261.655L844.365 253.097C844.34 246.523 849.653 241.174 856.231 241.148L858.138 241.142C864.712 241.116 870.06 246.43 870.086 253.007L870.116 261.565ZM865.153 253.215C865.119 249.162 861.805 245.907 857.752 245.942L856.543 245.953C852.491 245.988 849.235 249.302 849.27 253.354L849.34 261.447C849.374 265.5 852.688 268.755 856.741 268.72L857.95 268.709C862.002 268.674 865.258 265.36 865.223 261.308L865.153 253.215Z" fill="#0066CC"/>
<path d="M884.525 244.64C884.553 245.031 884.715 245.117 885.014 244.896C887.382 243.152 889.82 242.14 892.328 241.861C894.281 241.644 897.008 241.626 900.508 241.809C900.677 241.82 900.793 241.966 900.752 242.111L899.781 245.431C899.537 246.268 898.872 246.681 897.787 246.669C896.473 246.654 895.266 246.652 894.165 246.663C892.735 246.675 891.558 246.853 890.636 247.198C888.093 248.136 886.295 249.812 885.241 252.227C884.733 253.386 884.481 255.041 884.485 257.192C884.493 262.533 884.479 267.874 884.444 273.216C884.444 273.378 884.316 273.512 884.153 273.518L879.962 273.582C879.729 273.588 879.537 273.396 879.537 273.163V241.471C879.537 241.291 879.671 241.152 879.834 241.157L883.491 241.285C883.932 241.297 884.299 241.657 884.334 242.117L884.525 244.64Z" fill="#0066CC"/>
<path d="M969.483 261.46C969.503 268.075 964.16 273.459 957.542 273.485L955.6 273.492C948.98 273.517 943.596 268.168 943.576 261.551L943.547 253.202C943.527 246.587 948.87 241.203 955.488 241.178L957.429 241.171C964.05 241.145 969.433 246.494 969.454 253.112L969.483 261.46ZM964.55 253.459C964.55 249.32 961.195 245.965 957.056 245.965H955.974C951.835 245.965 948.48 249.32 948.48 253.459V261.215C948.48 265.355 951.835 268.709 955.974 268.709H957.056C961.195 268.709 964.55 265.355 964.55 261.215V253.459Z" fill="#0066CC"/>
<path d="M983.416 273.593L979.282 273.581C979.102 273.576 978.957 273.436 978.957 273.267L978.922 241.529C978.922 241.361 979.044 241.221 979.207 241.192C979.602 241.134 980.001 241.107 980.404 241.111C980.466 241.111 980.858 241.101 981.579 241.081C983.207 241.039 983.926 241.981 983.736 243.907C983.635 244.957 984.001 245.157 984.835 244.506C986.629 243.107 988.637 242.262 990.858 241.971C991.777 241.851 993.242 241.764 995.253 241.709C996.653 241.674 998.122 241.744 999.66 241.919C999.904 241.948 1000.06 242.186 999.992 242.424L999.201 245.151C998.918 246.116 998.28 246.611 997.288 246.634C996.269 246.657 995.166 246.669 993.98 246.669C992.585 246.665 991.494 246.766 990.707 246.971C987.796 247.727 985.755 249.421 984.585 252.052C984.058 253.235 983.786 254.938 983.771 257.163C983.744 262.531 983.738 267.901 983.753 273.273C983.753 273.448 983.602 273.593 983.416 273.593Z" fill="#0066CC"/>
<path d="M1107.5 261.551C1107.48 268.168 1102.1 273.517 1095.48 273.492L1093.53 273.485C1086.92 273.459 1081.57 268.075 1081.59 261.46L1081.62 253.112C1081.64 246.494 1087.03 241.145 1093.65 241.171L1095.59 241.178C1102.21 241.203 1107.55 246.587 1107.53 253.202L1107.5 261.551ZM1102.61 253.465C1102.61 249.32 1099.25 245.959 1095.11 245.959H1094.04C1089.89 245.959 1086.53 249.32 1086.53 253.465V261.209C1086.53 265.355 1089.89 268.715 1094.04 268.715H1095.11C1099.25 268.715 1102.61 265.355 1102.61 261.209V253.465Z" fill="#0066CC"/>
<path d="M911.624 243.314C911.694 243.419 911.833 243.46 911.95 243.401C915.585 241.599 919.188 240.927 922.758 241.384C925.913 241.787 928.579 242.934 930.758 244.826C933.134 246.892 934.568 249.634 935.06 253.053C935.312 254.808 935.389 256.717 935.293 258.779C935.192 260.985 934.878 262.857 934.351 264.396C933.013 268.314 930.475 271.027 926.734 272.535C924.3 273.516 921.858 273.834 919.409 273.489C916.967 273.148 914.593 272.204 912.287 270.657C911.992 270.46 911.843 270.537 911.839 270.89C911.8 274.649 911.787 278.467 911.798 282.343C911.802 283.471 911.67 284.268 911.403 284.733C910.919 285.582 910.083 285.952 908.897 285.843C908.622 285.816 908.238 285.822 907.746 285.861C907.114 285.907 906.833 285.638 906.903 285.053C906.973 284.46 907.008 284.151 907.008 284.128C907.058 270.198 907.023 256.266 906.903 242.332C906.897 242.157 907.008 241.994 907.17 241.936C909.085 241.239 910.57 241.698 911.624 243.314ZM915.531 266.919C917.043 268.082 918.684 268.713 920.455 268.814C922.064 268.899 923.692 268.498 925.339 267.611C928.211 266.053 929.874 263.651 930.327 260.407C930.638 258.186 930.632 256.093 930.31 254.128C929.806 251.078 928.064 248.731 925.083 247.087C923.7 246.328 921.829 246.027 919.473 246.186C916.791 246.365 914.729 247.26 913.287 248.872C912.229 250.055 911.713 251.448 911.74 253.053C911.767 254.7 911.787 256.345 911.798 257.989C911.81 260.217 912.015 261.837 912.415 262.849C913.043 264.45 914.081 265.806 915.531 266.919Z" fill="#0066CC"/>
<path d="M229.823 270.93C227.893 269.465 226.511 267.669 225.677 265.541C225.15 264.204 224.887 262.142 224.887 259.355C224.887 257.956 224.887 256.556 224.887 255.157C224.887 253.409 225.018 252.02 225.282 250.989C226.154 247.585 227.993 245.049 230.8 243.378C233.3 241.894 236.154 241.32 239.363 241.657C244.441 242.188 247.92 244.981 249.8 250.035C250.253 251.256 250.515 252.717 250.584 254.419C250.643 255.934 250.664 257.432 250.648 258.913C250.648 259.128 250.474 259.302 250.259 259.302H230.061C229.77 259.302 229.532 259.547 229.538 259.837C229.581 263.186 230.739 265.642 233.015 267.204C234.507 268.227 236.356 268.717 238.561 268.675C240.561 268.636 242.491 268.2 244.352 267.366C245.305 266.94 246.028 266.752 246.52 266.802C247.466 266.907 248.117 267.436 248.474 268.39C248.598 268.719 248.732 269.012 248.875 269.268C248.987 269.469 249.086 269.676 249.172 269.89C249.236 270.052 249.172 270.233 249.026 270.332C245.778 272.463 242.092 273.535 237.968 273.547C234.848 273.554 232.133 272.682 229.823 270.93ZM242.817 248.204C241.817 247.374 240.708 246.802 239.491 246.489C238.336 246.194 237.133 246.227 235.881 246.587C232.327 247.611 230.247 250.196 229.643 254.343C229.619 254.506 229.741 254.651 229.904 254.645L245.422 254.552C245.584 254.547 245.712 254.419 245.706 254.256C245.672 251.795 244.708 249.777 242.817 248.204Z" fill="#0066CC"/>
<path d="M395.347 270.53C393.304 268.917 391.959 266.725 391.312 263.954C390.696 261.314 390.616 257.78 391.074 253.349C391.519 249.004 393.287 245.799 396.376 243.733C399.186 241.857 402.442 241.188 406.143 241.727C410.891 242.413 414.159 245.185 415.946 250.041C416.411 251.305 416.701 252.758 416.818 254.402C416.922 255.909 416.949 257.404 416.899 258.884C416.887 259.117 416.696 259.303 416.463 259.303H396.19C395.951 259.303 395.765 259.495 395.771 259.733C395.934 265.454 398.76 268.46 404.248 268.75C405.957 268.84 407.924 268.438 410.149 267.547C411.498 267.008 412.418 266.805 412.911 266.936C413.849 267.188 414.544 268.049 414.998 269.518C415.149 270 414.951 270.524 414.521 270.791C413.23 271.586 411.814 272.198 410.271 272.628C408.74 273.055 407.24 273.353 405.771 273.524C401.903 273.966 398.428 272.967 395.347 270.53ZM408.789 248.076C407.886 247.347 406.839 246.828 405.649 246.518C404.541 246.227 403.411 246.231 402.26 246.53C398.74 247.452 396.57 249.936 395.748 253.983C395.678 254.314 395.928 254.628 396.26 254.623L411.556 254.553C411.713 254.547 411.841 254.413 411.835 254.25C411.719 251.673 410.703 249.615 408.789 248.076Z" fill="#0066CC"/>
<path d="M612.578 268.372C611.101 266.345 610.338 263.952 610.287 261.192C610.252 259.351 610.229 257.512 610.218 255.675C610.202 253.465 610.436 251.653 610.921 250.239C612.576 245.401 615.809 242.576 620.619 241.762C623.983 241.192 627.02 241.682 629.729 243.233C632.741 244.95 634.692 247.648 635.584 251.326C635.809 252.252 635.923 253.51 635.927 255.099C635.931 256.32 635.948 257.593 635.979 258.919C635.985 259.128 635.816 259.303 635.601 259.303H615.607C615.363 259.303 615.165 259.494 615.154 259.739C615.014 263.65 616.392 266.318 619.287 267.744C620.756 268.469 622.499 268.762 624.514 268.622C626.332 268.494 628.095 268.08 629.805 267.378C630.859 266.948 631.607 266.752 632.049 266.791C633.002 266.88 633.663 267.462 634.031 268.535C634.186 268.989 634.342 269.44 634.497 269.89C634.555 270.058 634.491 270.239 634.351 270.337C632.859 271.372 631.061 272.2 628.956 272.82C625.181 273.932 621.644 273.865 618.345 272.617C615.884 271.686 613.962 270.272 612.578 268.372ZM627.828 247.931C625.844 246.411 623.749 245.938 621.543 246.512C617.923 247.454 615.772 249.888 615.09 253.814C615.026 254.192 615.31 254.541 615.694 254.558C620.555 254.744 625.557 254.731 630.7 254.518C630.863 254.512 630.997 254.378 630.991 254.221C630.96 251.617 629.906 249.52 627.828 247.931Z" fill="#0066CC"/>
<path d="M560.752 246.546C556.453 246.554 553.51 248.391 551.921 252.058C551.436 253.174 551.196 254.649 551.2 256.482C551.207 261.773 551.194 267.077 551.159 272.395C551.155 273.104 550.781 273.475 550.037 273.506L546.682 273.639C546.45 273.651 546.252 273.465 546.252 273.238C546.252 263.358 546.252 253.566 546.252 243.86C546.252 243.825 546.229 243.562 546.182 243.07C546.12 242.449 546.405 242.161 547.037 242.203C547.475 242.234 547.824 242.242 548.083 242.227C549.525 242.122 550.583 242.895 551.258 244.546C551.322 244.709 551.525 244.767 551.665 244.657C554.692 242.354 558.122 241.411 561.955 241.825C566.335 242.298 569.242 244.287 570.676 247.791C571.254 249.205 571.545 251.492 571.548 254.651C571.556 260.841 571.543 267.029 571.508 273.215C571.508 273.389 571.374 273.535 571.217 273.529L567.002 273.465C566.839 273.459 566.711 273.32 566.705 273.145C566.597 267.06 566.556 260.975 566.583 254.889C566.595 252.234 566.409 250.453 566.025 249.546C565.172 247.542 563.415 246.542 560.752 246.546Z" fill="#0066CC"/>
<path d="M196.119 244.529C196.143 244.698 196.335 244.785 196.474 244.686C199.288 242.744 202.249 241.772 205.358 241.768C208.559 241.76 211.197 242.665 213.271 244.483C214.922 245.932 215.937 247.808 216.317 250.111C216.41 250.684 216.457 252.744 216.457 256.291C216.457 261.868 216.457 267.494 216.457 273.169C216.457 273.39 216.271 273.564 216.038 273.57L212.579 273.628C212.149 273.634 211.794 273.32 211.8 272.93C211.866 266.682 211.838 260.572 211.718 254.599C211.668 252.037 211.397 250.271 210.904 249.303C209.932 247.392 208.149 246.461 205.556 246.512C201.296 246.597 198.391 248.465 196.84 252.116C196.352 253.26 196.108 254.799 196.108 256.733C196.108 262.24 196.108 267.748 196.108 273.256C196.108 273.419 195.98 273.547 195.817 273.547H191.538C191.335 273.547 191.166 273.378 191.166 273.175V242.622C191.166 242.442 191.306 242.303 191.486 242.297C192.133 242.285 192.763 242.287 193.375 242.303C194.166 242.318 194.761 242.475 195.16 242.773C195.718 243.192 196.038 243.777 196.119 244.529Z" fill="#0066CC"/>
<path d="M760.911 244.442C760.957 244.669 761.219 244.779 761.411 244.645C764.62 242.413 768 241.455 771.55 241.773C775.953 242.173 778.922 244.182 780.457 247.802C780.981 249.031 781.25 250.756 781.265 252.977C781.304 259.721 781.298 266.467 781.248 273.215C781.248 273.372 781.12 273.506 780.963 273.512L776.899 273.64C776.591 273.651 776.341 273.413 776.341 273.116C776.341 266.132 776.341 259.192 776.341 252.297C776.341 251.118 776.165 250.202 775.812 249.547C775.506 248.969 775.11 248.452 774.626 247.994C774.184 247.579 773.628 247.266 772.957 247.052C769.698 246.01 766.727 246.626 764.044 248.901C762.75 250.002 761.857 251.31 761.364 252.826C761.077 253.705 760.94 255.231 760.952 257.401C760.979 262.649 760.938 267.899 760.829 273.151C760.824 273.326 760.696 273.459 760.539 273.465L756.388 273.529C756.172 273.535 755.992 273.349 755.992 273.116V242.855C755.992 242.657 756.132 242.488 756.324 242.454C759.01 241.95 760.539 242.612 760.911 244.442Z" fill="#0066CC"/>
<path d="M1122.88 244.529C1124.61 243.192 1126.57 242.354 1128.75 242.017C1130.89 241.684 1132.96 241.732 1134.97 242.162C1138.18 242.848 1140.46 244.713 1141.81 247.755C1142.35 248.961 1142.63 250.599 1142.67 252.668C1142.81 259.521 1142.83 266.374 1142.74 273.226C1142.73 273.389 1142.6 273.523 1142.43 273.517H1138.23C1138 273.517 1137.82 273.331 1137.82 273.099C1137.82 266.083 1137.82 259.255 1137.82 252.616C1137.82 250.717 1137.27 249.236 1136.15 248.174C1135.18 247.24 1133.84 246.707 1132.12 246.575C1130.25 246.432 1128.48 246.858 1126.81 247.854C1124.97 248.963 1123.67 250.455 1122.93 252.331C1122.49 253.443 1122.28 255.312 1122.29 257.936C1122.32 263.033 1122.27 268.108 1122.12 273.162C1122.12 273.378 1121.94 273.552 1121.72 273.552L1117.72 273.575C1117.58 273.581 1117.47 273.471 1117.47 273.331L1117.37 242.773C1117.37 242.593 1117.48 242.442 1117.64 242.395C1118.05 242.29 1118.47 242.244 1118.9 242.255C1118.98 242.259 1119.29 242.261 1119.83 242.261C1120.99 242.257 1121.81 242.953 1122.28 244.349C1122.36 244.599 1122.67 244.686 1122.88 244.529Z" fill="#0066CC"/>
<path d="M591.178 265.011C591.282 265.29 591.387 265.29 591.492 265.011C594.081 258.042 596.68 251.079 599.288 244.122C599.575 243.362 599.939 242.85 600.381 242.587C600.951 242.246 601.614 242.112 602.37 242.186C603.137 242.259 603.976 242.296 604.887 242.296C605.056 242.296 605.178 242.471 605.114 242.627L593.619 273.314C593.556 273.488 593.375 273.604 593.166 273.604L589.608 273.622C589.422 273.627 589.265 273.529 589.207 273.383L577.207 242.755C577.154 242.61 577.242 242.459 577.387 242.436C578.348 242.296 579.313 242.24 580.282 242.267C581.162 242.29 581.833 242.525 582.294 242.971C582.701 243.366 582.994 243.848 583.172 244.418C583.42 245.217 583.55 245.631 583.561 245.662C586.185 252.1 588.724 258.55 591.178 265.011Z" fill="#0066CC"/>
<path d="M178.119 244.337C178.511 244.957 178.693 245.779 178.666 246.802C178.545 251.135 178.58 259.94 178.77 273.215C178.776 273.383 178.642 273.517 178.485 273.517L174.235 273.546C174.032 273.552 173.869 273.383 173.869 273.174V243.843C173.869 243.657 174.014 243.506 174.201 243.494C174.987 243.443 175.701 243.436 176.34 243.471C177.189 243.513 177.782 243.802 178.119 244.337Z" fill="#0066CC"/>
<path d="M708.032 243.605C709.094 244.047 709.625 244.841 709.625 245.988L709.591 273.215C709.591 273.378 709.463 273.512 709.3 273.517L705.16 273.581C704.899 273.587 704.684 273.372 704.684 273.11V243.89C704.684 243.721 704.8 243.57 704.968 243.535C706.201 243.244 707.222 243.267 708.032 243.605Z" fill="#0066CC"/>
<path d="M1066.14 273.221L1066.03 243.953C1066.03 243.692 1066.22 243.482 1066.47 243.482H1069.33C1069.51 243.482 1069.7 243.546 1069.85 243.663C1070.59 244.252 1070.96 245.056 1070.96 246.075C1070.98 255.122 1070.97 264.168 1070.93 273.215C1070.93 273.384 1070.8 273.523 1070.64 273.523L1066.44 273.529C1066.27 273.529 1066.14 273.389 1066.14 273.221Z" fill="#0066CC"/>
<path d="M1024.12 246.931C1024.64 247.57 1024.9 247.483 1024.89 246.669L1024.85 244.326C1024.84 244.128 1024.98 243.96 1025.15 243.966L1028.14 243.983C1028.78 243.987 1029.1 244.417 1029.1 245.274C1029.1 251.867 1029.1 258.336 1029.1 264.681C1029.1 265.747 1029.13 266.656 1029.2 267.407C1029.25 267.997 1029.52 268.853 1029.99 269.977C1030.35 270.83 1030.61 271.718 1030.76 272.64C1030.79 272.797 1030.68 272.942 1030.53 272.954C1029.46 273.035 1028.4 273.026 1027.35 272.925C1026.67 272.863 1026.28 272.225 1026.16 271.012C1026.09 270.311 1025.79 270.185 1025.25 270.634C1022.98 272.502 1020.14 273.444 1016.75 273.46C1011.68 273.475 1007.81 271.555 1005.15 267.698C1003.7 265.59 1002.99 263.107 1003.01 260.25C1003.03 258.46 1003.04 257.537 1003.04 257.483C1003 255.603 1003.07 254.332 1003.26 253.669C1005.05 247.487 1008.96 244.148 1015 243.652C1016.89 243.497 1018.52 243.638 1019.9 244.076C1021.59 244.611 1023 245.562 1024.12 246.931ZM1010.21 267C1013.02 269.384 1016.22 269.975 1019.83 268.774C1023.3 267.615 1025 265.247 1024.93 261.669C1024.91 260.692 1024.9 260.179 1024.9 260.128C1024.91 258.966 1024.89 257.803 1024.85 256.64C1024.79 254.977 1024.49 253.607 1023.96 252.53C1022.55 249.673 1020.29 248.061 1017.19 247.692C1014.94 247.425 1012.92 247.874 1011.14 249.041C1009.21 250.301 1007.93 252.117 1007.3 254.489C1007.1 255.26 1007 256.249 1007.01 257.454C1007.03 258.458 1007.05 259.462 1007.08 260.466C1007.16 263.128 1008.21 265.307 1010.21 267Z" fill="#0066CC"/>
<path d="M139.119 248.646L139.125 246.186C139.125 245.965 139.299 245.785 139.514 245.785H141.985C142.578 245.785 143.055 246.262 143.055 246.855C143.055 252.684 143.055 258.481 143.055 264.244C143.055 267.69 143.584 270.593 144.642 272.954C144.706 273.087 144.619 273.244 144.474 273.273C143.268 273.49 142.057 273.496 140.84 273.291C140.421 273.221 140.119 272.645 140.148 271.948C140.183 270.959 139.795 270.812 138.985 271.506C137.656 272.642 136.179 273.364 134.555 273.675C133.315 273.911 131.712 273.971 129.747 273.855C124.278 273.529 120.574 270.616 118.636 265.116C118.233 263.973 118.02 262.489 117.997 260.663C117.974 258.771 118.036 257.285 118.183 256.204C118.385 254.742 118.811 253.353 119.462 252.035C120.102 250.744 120.968 249.613 122.061 248.64C124.898 246.116 128.357 245.091 132.439 245.564C134.834 245.843 136.867 246.938 138.538 248.849C138.921 249.283 139.115 249.215 139.119 248.646ZM125.439 268.337C128.198 270.299 131.228 270.7 134.526 269.541C136.584 268.82 137.983 267.516 138.724 265.628C138.995 264.942 139.131 264.002 139.131 262.808C139.131 261.843 139.131 260.878 139.131 259.913C139.131 259.878 139.146 259.374 139.177 258.401C139.27 255.394 138.259 253.014 136.142 251.262C134.956 250.277 133.64 249.638 132.195 249.343C130.656 249.029 129.14 249.151 127.648 249.709C124.958 250.717 123.179 252.57 122.311 255.268C122.09 255.95 121.98 256.814 121.98 257.861C121.98 258.744 121.98 259.628 121.98 260.512C121.98 262.283 122.129 263.589 122.427 264.43C122.989 266 123.993 267.302 125.439 268.337Z" fill="#0066CC"/>
<path d="M351.461 248.814C351.954 249.48 352.204 249.395 352.211 248.558L352.234 246.11C352.24 245.948 352.374 245.814 352.537 245.808L354.985 245.785C355.752 245.777 356.136 246.17 356.136 246.965C356.136 253.593 356.136 260.225 356.136 266.86C356.136 267.965 356.302 269.004 356.636 269.977C356.977 270.965 357.345 271.959 357.74 272.959C357.822 273.168 357.671 273.395 357.45 273.395L354.281 273.378C354.054 273.372 353.868 273.279 353.804 273.139L353.002 271.314C352.909 271.11 352.676 271.035 352.525 271.163C351.203 272.291 349.795 273.072 348.298 273.506C347.543 273.727 346.455 273.837 345.037 273.837C344.304 273.837 343.572 273.837 342.839 273.837C342.041 273.837 341.324 273.746 340.688 273.564C334.847 271.909 331.672 268.184 331.165 262.389C330.959 260.037 330.975 257.979 331.211 256.215C331.401 254.792 331.81 253.436 332.438 252.145C333.05 250.886 333.882 249.769 334.932 248.796C337.862 246.075 341.475 245.011 345.769 245.604C348.231 245.946 350.128 247.015 351.461 248.814ZM337.932 267.913C339.223 269.079 340.649 269.783 342.211 270.023C343.657 270.248 345.184 270.176 346.793 269.808C348.936 269.316 350.5 268.101 351.485 266.163C351.969 265.209 352.211 263.884 352.211 262.186C352.211 260.822 352.211 259.455 352.211 258.087C352.211 256.951 352.097 256.031 351.868 255.325C351.57 254.411 351.151 253.562 350.612 252.779C349.833 251.651 348.793 250.767 347.49 250.128C344.909 248.864 342.328 248.87 339.746 250.145C338.452 250.785 337.413 251.634 336.63 252.692C335.781 253.839 335.258 255.122 335.06 256.541C334.777 258.579 334.847 260.814 335.269 263.244C335.579 265.031 336.467 266.587 337.932 267.913Z" fill="#0066CC"/>
</svg>
