<svg width="1235" height="400" viewBox="0 0 1235 400" fill="none" xmlns="http://www.w3.org/2000/svg">
<path fill-rule="evenodd" clip-rule="evenodd" d="M136.947 19.6191C167.049 23.1879 207.237 41.1873 232.064 68.9622C199.634 28.7739 155.567 1.61968 113.206 0.0680154C44.6225 -2.41466 6.14107 63.3761 27.5541 147.011C30.5023 158.649 34.5366 170.131 39.3468 180.993C46.1741 197.906 55.6393 214.974 67.8975 231.422C75.9662 242.284 84.8107 252.525 94.2759 262.145C87.6037 255.163 81.397 247.715 75.5007 239.956C19.4854 164.235 26.4679 80.4445 94.2759 56.0833C123.758 45.5319 162.084 50.187 197.617 61.9797C163.946 38.5495 123.292 23.9637 78.1385 39.1701C61.3805 44.9113 48.812 55.1523 40.1226 68.807C54.398 33.2738 85.8969 13.4124 136.947 19.6191Z" fill="#0071BC"/>
<path d="M284.976 176.337H284.511C324.544 242.594 333.543 310.402 307.01 346.711C271.166 395.899 177.756 368.744 98.3102 286.04C20.7268 205.043 -14.8065 101.081 17.1579 50.3418C16.3821 51.2728 15.6063 52.2038 14.9856 53.1348C-23.3406 105.892 14.3649 220.25 99.3964 308.85C184.273 397.295 284.2 426.466 322.526 373.71C352.784 331.97 335.56 251.748 284.976 176.337Z" fill="#FF7300"/>
<path d="M266.356 143.599C276.442 155.857 279.545 169.822 273.338 175.098C267.132 180.218 253.787 174.632 243.701 162.374C233.616 150.116 230.512 136.151 236.719 130.875C242.926 125.755 256.115 131.496 266.356 143.599Z" fill="#FF7300"/>
<path d="M424.006 165.942C425.247 165.942 426.644 166.407 428.04 167.338C429.282 168.114 430.523 169.045 431.764 169.821C434.868 165.166 436.419 162.683 436.419 162.373C436.419 160.821 435.644 159.425 434.247 158.183C432.851 156.942 431.299 156.321 429.592 156.321C424.782 156.321 420.437 158.338 416.248 162.373C412.058 166.407 410.041 170.752 410.041 175.407C410.041 177.424 411.438 178.821 413.92 179.752C415.937 180.217 418.11 180.838 420.127 181.303C417.955 182.545 416.093 183.941 414.231 185.648C412.058 187.975 410.972 189.992 410.972 191.699V192.475C418.265 185.803 426.954 182.389 436.885 182.079C439.212 178.821 441.385 175.717 443.247 172.769C429.282 172.769 420.903 171.372 418.42 168.735C420.748 166.873 422.61 165.942 424.006 165.942Z" fill="#0071BC"/>
<path d="M503.45 165.786C503.45 162.372 502.674 158.804 501.277 155.235C499.726 151.666 497.708 148.873 495.226 146.7L489.019 157.873C490.26 158.959 491.657 160.821 493.209 163.614C494.76 166.407 495.536 168.424 495.536 169.976C495.536 170.131 495.536 170.286 495.381 170.286H471.485C469.313 170.286 468.227 169.665 468.072 168.579C467.141 164.7 466.365 158.493 465.744 149.649C465.278 143.132 464.813 136.615 464.503 130.098C463.727 130.718 462.33 132.425 460.313 134.908C458.141 137.701 457.055 139.408 457.055 139.873L460.779 181.923H500.191C502.363 181.923 503.45 176.493 503.45 165.786Z" fill="#0071BC"/>
<path d="M490.729 191.39C488.091 189.063 486.539 187.821 486.229 187.821C485.763 187.821 484.367 189.063 481.884 191.39C479.402 193.718 478.16 195.114 478.16 195.58C478.16 195.89 479.402 197.131 481.729 199.149C484.057 201.011 485.608 202.097 486.229 202.097C491.815 198.993 494.608 196.821 494.608 195.58C494.763 195.114 493.367 193.718 490.729 191.39Z" fill="#0071BC"/>
<path d="M568.775 165.165C566.448 166.096 564.12 166.872 561.948 167.803H561.172C565.517 162.062 569.241 158.338 571.723 156.631C572.034 157.251 572.034 158.182 572.034 159.113C572.034 161.906 570.948 163.924 568.775 165.165ZM572.034 185.647H569.551C567.689 185.647 565.827 185.026 564.12 183.785C562.413 182.544 561.172 180.992 560.396 179.285C562.413 179.285 564.586 179.751 566.913 180.682C569.551 181.768 571.103 183.164 572.034 184.871V185.647ZM658.151 138.476C654.738 136.459 652.876 134.907 652.41 133.976C652.1 133.045 651.79 131.804 651.79 130.408L651.169 129.942C648.841 132.425 646.359 136.614 643.566 142.511C644.652 143.907 645.738 144.993 646.824 145.769C647.445 147.321 648.221 151.045 649.152 157.096C650.083 163.148 650.548 167.027 650.548 169.044C650.548 169.354 650.393 169.82 650.238 170.13H642.169C640.462 170.13 639.531 170.13 639.376 169.975C638.29 169.82 637.825 169.199 637.669 168.268C637.359 165.63 636.894 159.269 636.118 149.028C635.652 140.959 634.721 134.597 633.48 129.787L633.014 129.477L624.791 141.114L629.135 170.13H618.118H616.101C612.998 170.13 608.653 167.027 603.222 161.131C599.498 156.786 595.619 152.441 591.895 148.097L616.256 143.131C617.498 139.097 618.584 135.218 619.36 131.649C618.429 131.494 607.722 133.666 587.24 138.166C585.223 143.442 583.671 148.717 582.895 154.148L599.654 170.285H583.051H572.965C574.206 167.492 575.447 164.699 576.534 161.906C578.085 158.027 578.706 155.234 578.706 153.372V147.166C575.447 147.166 571.723 149.028 567.534 152.752C563.965 155.855 561.172 159.113 559.155 162.682C557.603 165.941 556.517 168.423 555.896 170.285H550.31C545.811 170.285 542.397 168.734 540.069 165.63C537.897 162.372 535.725 159.113 533.708 155.855C533.087 156.631 532.001 158.338 530.139 161.286C528.432 164.079 527.501 165.786 527.501 166.251C527.501 166.406 528.587 167.803 530.604 170.441C532.621 173.078 533.708 175.096 533.708 176.337C533.708 178.82 530.604 182.078 524.708 186.112C518.812 190.147 514.312 192.009 511.208 192.009C509.191 192.009 507.019 191.388 504.381 189.836C501.743 188.44 500.657 187.664 500.812 187.664C500.502 187.664 500.347 187.664 500.347 187.819V189.216C502.209 191.388 505.777 193.716 510.743 196.198C515.863 198.681 519.587 199.922 522.225 199.922C526.26 199.922 529.673 197.595 533.087 192.94C535.414 189.061 537.587 185.026 539.759 181.147L540.38 180.526C542.087 181.457 543.638 181.768 544.569 181.768H552.483C552.793 181.768 553.569 183.164 554.965 185.647C556.672 188.905 558.224 191.388 559.62 193.095C561.793 195.733 563.965 196.974 566.293 196.974C572.189 196.974 576.689 191.854 579.947 181.768H600.274L604.619 174.475L612.377 181.768H621.222H625.877L629.756 174.63C629.911 176.027 629.911 177.423 629.911 178.664C630.221 180.682 630.842 181.613 631.618 181.613H653.496C654.427 181.147 655.048 180.682 655.203 180.526C655.669 179.906 656.289 177.733 657.065 174.009C657.841 170.441 658.151 168.113 657.996 167.182L656.755 152.596L665.134 141.735C663.117 141.424 660.789 140.183 658.151 138.476Z" fill="#0071BC"/>
<path d="M700.978 136.306C705.943 139.41 708.891 140.806 709.822 140.806C710.288 140.806 711.374 139.72 713.081 137.703C714.633 135.841 715.719 134.444 716.184 133.669L707.185 128.858C703.305 131.807 701.443 133.358 701.598 133.358C700.357 133.358 697.564 131.807 693.53 128.858C689.961 132.738 687.789 135.22 687.168 135.996C690.892 138.479 693.995 140.03 696.013 140.651C698.65 138.168 700.202 136.772 700.978 136.306Z" fill="#0071BC"/>
<path d="M749.389 191.698C747.993 193.095 747.217 193.871 746.596 193.871C745.82 193.871 743.183 192.319 738.993 189.371C736.821 191.854 734.959 194.181 733.252 196.664C734.959 198.215 737.752 199.922 741.476 201.939C743.648 199.612 745.2 198.06 746.286 197.129L754.355 201.939C756.217 200.388 758.234 197.905 760.561 194.491L752.027 189.216C751.562 189.526 750.631 190.302 749.389 191.698Z" fill="#0071BC"/>
<path d="M705.013 164.236C706.565 162.839 707.961 161.908 709.047 161.443C711.375 159.27 712.926 157.563 713.857 156.167L715.719 165.632L705.013 164.236ZM751.097 158.184C754.201 162.374 756.373 166.408 757.77 170.287H730.15C727.357 170.287 725.65 169.511 725.185 167.804C724.098 164.701 723.012 159.736 721.926 152.598C720.53 144.374 719.443 138.943 718.823 136.461L718.202 136.15L711.84 147.167C711.995 148.253 712.306 149.184 712.926 150.426C709.047 152.598 705.013 154.926 701.289 157.098C698.496 158.805 696.479 160.822 695.237 163.305C693.996 165.632 692.444 169.977 691.048 176.339L710.444 179.752C711.375 179.907 712.461 178.821 714.013 176.183C715.719 173.235 716.65 171.528 717.271 171.063C718.047 173.39 718.668 175.718 719.443 177.89C720.685 180.528 722.392 181.925 724.719 181.925H763.356C764.907 173.701 765.683 168.115 765.683 165.167C765.683 160.046 762.89 154.15 757.304 147.633L751.097 158.184Z" fill="#0071BC"/>
<path d="M784.458 144.993L780.734 157.407C782.751 157.717 785.389 159.268 788.647 162.372C791.751 165.32 793.457 167.803 793.457 169.82C793.457 169.975 793.457 170.13 793.302 170.285H772.199L771.113 182.078H797.026C799.354 182.078 800.595 178.044 800.595 169.82C800.595 158.182 795.319 149.959 784.458 144.993Z" fill="#0071BC"/>
<path d="M828.059 170.287C824.955 170.287 822.783 169.201 821.542 167.028C821.697 166.873 821.697 166.718 821.542 166.563C821.542 166.097 822.007 165.321 822.938 164.39C823.869 163.459 824.645 162.994 825.111 162.994C826.197 162.994 827.283 163.925 828.214 165.632C828.369 165.787 828.99 167.183 830.076 169.666C829.455 170.132 828.835 170.287 828.059 170.287ZM950.485 138.478C947.072 136.46 945.21 134.909 944.744 133.978C944.279 133.047 944.124 131.805 944.124 130.409L943.503 129.943C941.175 132.426 938.693 136.616 935.9 142.512C936.986 143.908 938.072 144.995 939.158 145.77C939.779 147.322 940.555 151.046 941.486 157.098C942.417 163.149 942.882 167.028 942.882 169.045C942.882 169.356 942.727 169.821 942.572 170.132H932.176C928.917 170.132 927.21 167.959 927.21 163.459C927.21 163.149 927.366 162.684 927.366 161.908C927.366 161.132 927.21 160.666 927.21 160.356C927.21 158.494 927.055 156.942 926.745 155.856C925.969 156.322 924.573 157.873 922.555 160.201C920.693 162.528 919.762 164.235 919.762 165.166C919.762 165.632 919.918 166.252 920.073 167.028C920.228 167.959 920.383 168.58 920.383 168.89C920.383 169.356 920.073 169.821 919.918 170.132C914.952 169.976 912.159 169.976 911.694 170.132C912.935 165.166 913.401 160.511 913.401 156.011C913.401 155.701 913.401 155.236 913.09 154.77C912.004 155.856 910.452 157.563 908.435 160.201C906.263 163.149 905.332 165.166 905.332 166.097C905.332 168.114 905.022 169.356 904.401 169.976H894.936C897.108 163.77 898.194 159.735 898.194 157.718L898.039 154.925C896.953 155.391 895.401 156.787 893.229 159.115C891.212 161.442 890.126 163.149 890.126 164.235C890.126 166.252 889.66 168.114 888.729 169.821H879.885C878.643 169.821 877.557 169.821 876.471 169.821C874.454 169.821 873.212 169.821 872.902 169.821C873.678 168.58 874.454 167.339 875.074 166.097C876.005 164.546 876.471 163.304 876.471 162.218C876.471 159.27 874.919 156.787 871.816 154.46C868.868 152.443 865.919 151.512 862.816 151.512C857.851 151.512 854.127 152.753 851.799 155.236C850.403 156.632 848.696 160.046 846.213 165.477C848.541 165.166 849.937 165.011 850.092 165.011C853.506 165.011 856.299 166.563 858.472 169.666H838.455C836.593 157.253 833.179 151.201 828.214 151.201C825.111 151.201 822.007 154.149 818.749 160.201C815.956 165.632 814.559 169.976 814.559 173.235C814.559 176.338 816.266 178.511 819.99 179.752C820.456 179.907 823.559 180.528 829.3 181.614C826.662 184.097 823.559 186.424 819.835 188.441C815.645 190.614 811.921 191.7 808.818 191.7C807.887 191.7 806.335 191.389 804.163 190.769C801.991 190.148 800.439 189.993 799.353 189.993C799.043 189.993 798.732 190.148 798.422 190.303V191.389C800.129 193.407 803.232 195.269 807.266 196.82C811.146 198.372 814.559 199.148 817.663 199.148C821.387 199.148 825.111 197.131 828.99 192.786C832.093 189.372 834.576 185.648 836.438 181.459H859.247C860.799 179.131 862.04 177.269 862.661 176.028C864.057 178.355 865.144 180.217 865.764 181.459H885.47C886.091 181.459 886.867 180.993 887.643 180.062C888.419 179.131 889.039 178.666 889.35 178.355C889.97 179.442 890.281 180.373 890.281 181.304H903.004C903.16 181.304 903.625 180.993 904.246 180.373C904.866 179.752 905.332 179.442 905.487 179.442C905.953 179.442 906.728 180.062 907.659 181.304H922.09C923.021 179.907 923.797 178.976 924.262 178.355C924.883 179.752 925.348 180.683 925.659 181.304H945.52C946.606 180.838 947.072 180.373 947.227 180.217C947.692 179.597 948.313 177.424 949.089 173.7C949.865 170.132 950.175 167.804 950.02 166.873L948.779 152.287L957.158 141.426C955.296 141.426 953.123 140.184 950.485 138.478Z" fill="#0071BC"/>
<path d="M966.16 148.252L971.126 182.854C975.315 178.044 977.332 171.837 977.332 164.545C977.332 158.338 976.246 148.097 974.229 134.132C970.195 139.718 967.557 144.373 966.16 148.252Z" fill="#0071BC"/>
<path d="M1017.98 136.306C1022.95 139.41 1025.9 140.806 1026.83 140.806C1027.29 140.806 1028.38 139.72 1030.09 137.703C1031.64 135.841 1032.72 134.444 1033.19 133.669L1024.19 128.858C1020.31 131.807 1018.45 133.358 1018.45 133.358C1017.21 133.358 1014.57 131.807 1010.38 128.858C1006.81 132.738 1004.64 135.22 1004.02 135.996C1007.9 138.479 1010.84 140.03 1013.02 140.651C1015.66 138.168 1017.21 136.772 1017.98 136.306Z" fill="#0071BC"/>
<path d="M1022.02 164.235C1023.72 162.838 1024.97 161.907 1026.05 161.442C1028.38 159.269 1029.93 157.563 1030.86 156.166L1032.88 165.631L1022.02 164.235ZM1074.77 158.028C1070.58 154.614 1066.4 151.356 1062.21 147.942C1072.29 144.839 1080.05 142.511 1085.02 140.96C1086.26 136.615 1087.34 132.736 1088.12 129.167L1054.14 139.098C1053.52 141.425 1053.05 143.753 1052.43 146.08C1051.65 149.028 1051.19 151.356 1051.19 153.063C1051.19 153.683 1052.43 155.39 1055.07 158.028C1057.71 160.666 1059.26 162.062 1060.03 162.062C1060.81 162.062 1061.43 161.597 1061.9 160.821L1074 170.131H1047.15C1044.36 170.131 1042.65 169.355 1042.19 167.648C1041.26 164.545 1040.02 159.58 1038.93 152.442C1037.53 144.218 1036.6 138.787 1035.98 136.305L1035.36 135.994L1028.84 147.011C1029 148.097 1029.47 149.028 1029.93 150.27C1026.05 152.442 1022.17 154.77 1018.14 156.942C1015.5 158.649 1013.48 160.666 1012.09 163.149C1010.85 165.476 1009.45 169.821 1007.9 176.183L1027.29 179.596C1028.22 179.751 1029.47 178.665 1031.02 176.027C1032.57 173.079 1033.66 171.372 1034.28 170.907C1035.05 173.234 1035.67 175.562 1036.45 177.734C1037.69 180.372 1039.4 181.769 1041.72 181.769H1080.83C1083.15 174.476 1084.24 170.131 1084.24 169.045C1084.08 167.183 1080.98 163.459 1074.77 158.028Z" fill="#0071BC"/>
<path d="M1161.36 145.46L1170.51 150.115C1174.08 147.632 1176.26 145.304 1177.03 142.977L1167.88 137.856C1166.95 138.787 1166.01 139.718 1164.93 140.494C1163.22 141.891 1162.29 142.667 1162.14 142.667C1160.89 142.667 1158.1 141.115 1153.91 138.012C1150.5 141.115 1148.33 143.442 1147.08 145.149C1152.51 148.408 1155.62 149.959 1156.39 149.959C1156.08 149.804 1157.79 148.408 1161.36 145.46Z" fill="#0071BC"/>
<path d="M1157.79 137.082C1159.81 138.634 1160.89 139.565 1161.2 139.565C1161.82 139.565 1163.06 138.789 1164.77 137.237C1166.32 135.841 1167.25 134.91 1167.72 134.134C1163.99 130.255 1161.82 128.392 1161.2 128.237C1157.01 131.496 1155 133.358 1155 134.134C1154.84 134.444 1155.77 135.375 1157.79 137.082Z" fill="#0071BC"/>
<path d="M1205.27 138.478C1201.86 136.46 1200 134.909 1199.53 133.978C1199.22 133.047 1198.91 131.805 1198.91 130.409L1198.29 129.943C1195.96 132.426 1193.48 136.616 1190.69 142.512C1191.77 143.908 1192.86 144.995 1193.94 145.77C1194.56 147.322 1195.34 151.046 1196.27 157.098C1197.2 163.149 1197.67 167.028 1197.67 169.045C1197.67 169.356 1197.51 169.821 1197.36 170.132H1187.12C1183.7 170.132 1182.15 167.959 1182.15 163.459C1182.31 163.149 1182.31 162.684 1182.31 161.908C1182.31 161.132 1182.31 160.666 1182.15 160.356C1182.15 158.494 1182 156.942 1181.69 155.856C1180.91 156.322 1179.51 157.873 1177.5 160.201C1175.63 162.528 1174.55 164.235 1174.55 165.166C1174.55 165.632 1174.7 166.252 1174.86 167.028C1175.01 167.959 1175.17 168.58 1175.17 168.89C1175.17 169.356 1175.01 169.821 1174.7 170.132C1169.74 169.976 1166.94 169.976 1166.63 170.132C1167.88 165.166 1168.5 160.511 1168.5 156.011C1168.5 155.701 1168.34 155.236 1168.19 154.925C1167.1 155.856 1165.55 157.718 1163.53 160.356C1161.36 163.304 1160.43 165.321 1160.43 166.252C1160.43 168.114 1160.12 169.511 1159.5 170.132H1150.03C1152.2 163.925 1153.29 159.891 1153.29 157.873L1153.13 155.08C1152.05 155.546 1150.5 156.942 1148.48 159.27C1146.31 161.597 1145.38 163.304 1145.38 164.39C1145.38 166.408 1144.91 168.27 1143.98 169.976H1133.43C1128.93 169.976 1125.52 168.425 1123.19 165.321C1121.02 162.063 1118.84 158.804 1116.83 155.546C1116.21 156.322 1115.12 158.029 1113.41 160.977C1111.71 163.77 1110.77 165.477 1110.77 165.942C1110.77 166.097 1111.86 167.494 1113.88 170.132C1115.89 172.769 1116.98 174.787 1116.98 176.028C1116.98 178.511 1114.03 181.769 1107.98 185.803C1102.09 189.838 1097.59 191.7 1094.48 191.7C1092.46 191.7 1090.14 191.079 1087.65 189.527C1085.02 188.131 1083.93 187.355 1084.09 187.355C1083.78 187.355 1083.62 187.355 1083.62 187.51V188.907C1085.48 191.079 1089.05 193.407 1094.02 195.889C1098.98 198.372 1102.86 199.613 1105.5 199.613C1109.38 199.613 1113.1 197.286 1116.36 192.631C1118.53 188.752 1120.86 184.717 1123.03 180.838L1123.65 180.217C1125.52 181.148 1126.76 181.459 1127.84 181.459H1141.5C1142.12 181.459 1142.89 180.993 1143.67 180.062C1144.45 179.131 1145.07 178.666 1145.38 178.355C1146 179.442 1146.31 180.373 1146.31 181.304H1159.03C1159.19 181.304 1159.65 180.993 1160.27 180.373C1160.89 179.752 1161.36 179.442 1161.51 179.442C1161.98 179.442 1162.76 180.062 1163.69 181.304H1178.12C1179.05 179.907 1179.82 178.976 1180.29 178.355C1180.91 179.752 1181.38 180.683 1181.69 181.304H1201.08C1202.01 180.838 1202.63 180.373 1202.79 180.217C1203.25 179.597 1203.87 177.424 1204.65 173.7C1205.43 170.132 1205.74 167.804 1205.58 166.873L1204.34 152.287L1212.72 141.426C1210.24 141.426 1207.91 140.184 1205.27 138.478Z" fill="#0071BC"/>
<path d="M1229.01 134.132C1224.98 139.563 1222.49 144.218 1221.1 148.252L1225.91 182.854C1230.1 178.044 1232.27 171.837 1232.27 164.545C1232.11 158.338 1231.03 148.252 1229.01 134.132Z" fill="#0071BC"/>
<path d="M438.592 263.388C436.42 262.147 433.006 261.061 428.351 259.975C423.696 258.888 420.748 257.802 419.662 256.871C418.731 256.095 418.265 255.164 418.265 253.923C418.265 252.682 418.731 251.751 419.817 250.975C421.368 249.889 423.541 249.268 426.334 249.268C428.972 249.268 430.989 249.734 432.385 250.82C433.782 251.906 434.558 253.613 435.023 256.095L444.488 255.785C444.333 251.44 442.782 247.872 439.833 245.234C436.885 242.596 432.385 241.354 426.489 241.354C422.92 241.354 419.817 241.975 417.179 243.061C414.696 244.148 412.679 245.699 411.283 247.872C409.886 250.044 409.265 252.216 409.265 254.699C409.265 258.423 410.662 261.526 413.61 264.164C415.627 266.026 419.196 267.578 424.317 268.819C428.196 269.75 430.834 270.526 431.92 270.836C433.627 271.457 434.713 272.078 435.334 272.853C435.954 273.629 436.264 274.56 436.264 275.646C436.264 277.353 435.489 278.905 433.937 280.146C432.385 281.388 430.058 282.163 427.11 282.163C424.161 282.163 421.834 281.388 420.127 279.991C418.42 278.439 417.334 276.267 416.713 273.164L407.559 274.095C408.179 279.37 410.041 283.405 413.3 286.198C416.558 288.991 421.058 290.387 426.954 290.387C430.989 290.387 434.558 289.767 437.195 288.68C439.988 287.594 442.006 285.732 443.557 283.405C445.109 281.077 445.73 278.595 445.73 275.802C445.73 272.853 445.109 270.371 443.868 268.354C442.471 266.181 440.764 264.63 438.592 263.388Z" fill="#0071BC"/>
<path d="M472.572 274.871C472.572 277.043 472.417 278.595 472.262 279.371C471.952 280.612 471.176 281.543 470.09 282.319C468.693 283.405 466.986 284.026 465.435 284.026C464.038 284.026 462.797 283.56 461.866 282.629C460.935 281.698 460.469 280.612 460.469 279.371C460.469 278.129 461.09 277.043 462.176 276.112C462.952 275.647 464.504 275.026 467.142 274.561C469.624 273.94 471.486 273.474 472.572 273.164V274.871ZM481.417 278.129L481.572 267.578C481.572 263.699 481.107 260.906 480.331 259.509C479.555 258.113 478.158 256.871 476.141 255.94C474.124 255.009 471.176 254.544 467.142 254.544C462.642 254.544 459.383 255.32 457.056 256.871C454.728 258.423 453.176 260.906 452.401 264.164L460.469 265.716C461.09 264.164 461.711 262.923 462.642 262.302C463.573 261.682 464.814 261.371 466.366 261.371C468.693 261.371 470.4 261.837 471.176 262.458C471.952 263.233 472.417 264.475 472.417 266.337V267.268C470.865 268.043 467.917 268.664 463.728 269.44C460.624 270.061 458.297 270.681 456.59 271.612C454.883 272.388 453.642 273.629 452.711 275.026C451.78 276.578 451.314 278.284 451.314 280.146C451.314 283.095 452.245 285.422 454.263 287.439C456.28 289.301 459.073 290.232 462.486 290.232C464.504 290.232 466.366 289.922 468.072 289.146C469.779 288.37 471.486 287.129 473.038 285.733C473.038 285.888 473.193 286.198 473.348 286.819C473.659 288.06 473.969 288.836 474.124 289.457H483.124C482.348 287.75 481.727 286.353 481.417 284.801C481.572 283.405 481.417 281.233 481.417 278.129Z" fill="#0071BC"/>
<path d="M512.294 269.75C512.294 274.715 512.139 277.819 511.674 279.06C511.208 280.301 510.432 281.387 509.191 282.318C507.95 283.249 506.553 283.56 505.002 283.56C503.605 283.56 502.519 283.249 501.588 282.629C500.657 282.008 500.191 281.077 499.726 279.991C499.416 278.905 499.26 275.957 499.26 271.146V255.319H490.261V277.043C490.261 280.301 490.726 282.784 491.502 284.646C492.278 286.508 493.674 287.904 495.536 288.835C497.398 289.922 499.416 290.387 501.743 290.387C504.071 290.387 506.088 289.766 508.26 288.68C510.277 287.594 511.984 286.198 513.07 284.336V289.456H521.449V255.319H512.45V269.75" fill="#0071BC"/>
<path d="M550.778 280.456C549.381 282.163 547.519 283.094 545.502 283.094C542.864 283.094 540.847 282.008 539.295 279.525C538.364 277.818 537.744 275.18 537.744 271.612C537.744 268.198 538.52 265.56 539.916 263.853C541.313 262.146 543.175 261.215 545.347 261.215C547.519 261.215 549.381 262.146 550.778 263.853C552.174 265.56 552.95 268.508 552.95 272.387C552.95 276.111 552.174 278.749 550.778 280.456ZM552.795 259.353C550.002 256.25 546.743 254.543 542.864 254.543C538.675 254.543 535.261 256.095 532.623 259.043C529.83 262.146 528.589 266.491 528.589 272.387C528.589 278.129 529.985 282.473 532.778 285.577C535.571 288.835 538.985 290.387 542.864 290.387C544.726 290.387 546.743 289.921 548.605 288.835C550.467 287.904 552.174 286.352 553.571 284.335V289.301H561.95V242.13H552.95V259.353" fill="#0071BC"/>
<path d="M579.793 242.13H570.793V250.509H579.793V242.13Z" fill="#0071BC"/>
<path d="M579.793 255.162H570.793V289.299H579.793V255.162Z" fill="#0071BC"/>
<path d="M617.032 268.508H640.618V260.595H617.032V250.199H642.325V242.13H607.412V289.301H643.256V281.387H617.032V268.508Z" fill="#0071BC"/>
<path d="M660.325 242.13H651.325V289.301H660.325V242.13Z" fill="#0071BC"/>
<path d="M676.307 269.44C676.307 266.957 676.928 264.94 678.169 263.544C679.41 262.147 681.117 261.371 683.134 261.371C684.996 261.371 686.548 262.147 687.789 263.388C689.031 264.785 689.807 266.802 689.807 269.44H676.307ZM694.617 259.509C691.669 256.251 687.634 254.544 682.669 254.544C678.169 254.544 674.445 256.096 671.497 259.354C668.549 262.613 666.997 266.957 666.997 272.698C666.997 277.509 668.083 281.388 670.411 284.491C673.204 288.37 677.704 290.388 683.6 290.388C687.324 290.388 690.427 289.457 692.91 287.75C695.393 286.043 697.255 283.405 698.341 280.146L689.341 278.595C688.876 280.302 688.1 281.543 687.169 282.319C686.238 283.095 684.996 283.56 683.6 283.56C681.583 283.56 679.721 282.784 678.324 281.233C676.928 279.681 676.152 277.664 676.152 274.871H698.806C698.961 268.044 697.565 262.923 694.617 259.509Z" fill="#0071BC"/>
<path d="M725.184 281.54C724.098 282.471 722.701 282.936 720.994 282.936C718.667 282.936 716.96 282.161 715.563 280.454C714.167 278.747 713.546 275.954 713.546 271.764C713.546 268.04 714.167 265.403 715.563 263.851C716.96 262.299 718.667 261.523 720.994 261.523C722.701 261.523 724.098 261.989 725.184 262.765C726.27 263.696 726.891 264.937 727.201 266.644L736.046 265.092C734.959 261.523 733.253 258.73 730.77 257.024C728.287 255.317 725.029 254.386 720.839 254.386C715.719 254.386 711.684 255.937 708.736 259.196C705.788 262.299 704.236 266.799 704.236 272.385C704.236 277.971 705.788 282.316 708.736 285.419C711.684 288.522 715.719 290.229 720.684 290.229C725.029 290.229 728.598 289.143 731.235 287.126C733.873 285.109 735.58 282.005 736.511 277.816L727.666 276.419C727.046 278.747 726.27 280.454 725.184 281.54Z" fill="#0071BC"/>
<path d="M754.975 282.782C754.354 282.782 753.889 282.626 753.423 282.316C752.958 282.006 752.802 281.695 752.647 281.23C752.492 280.764 752.492 279.213 752.492 276.42V262.61H758.699V255.472H752.492V243.524L743.492 248.8V255.472H739.458V262.61H743.492V277.661C743.492 280.92 743.647 283.092 743.803 284.023C743.958 285.575 744.423 286.661 745.044 287.592C745.665 288.523 746.596 289.143 747.837 289.764C749.078 290.385 750.63 290.54 752.182 290.54C754.82 290.54 757.147 290.074 759.319 289.143L758.699 282.161C756.992 282.471 755.906 282.782 754.975 282.782Z" fill="#0071BC"/>
<path d="M776.543 255.473C775.302 256.249 774.061 257.645 772.664 259.973V255.163H764.285V289.299H773.285V278.748C773.285 273.007 773.44 269.128 774.061 267.266C774.526 265.404 775.302 264.162 776.078 263.541C777.009 262.921 777.94 262.455 779.336 262.455C780.578 262.455 782.129 262.921 783.526 263.852L786.319 255.938C784.457 254.852 782.44 254.231 780.422 254.231C779.026 254.542 777.785 254.852 776.543 255.473Z" fill="#0071BC"/>
<path d="M799.354 255.162H790.354V289.299H799.354V255.162Z" fill="#0071BC"/>
<path d="M799.354 242.13H790.354V250.509H799.354V242.13Z" fill="#0071BC"/>
<path d="M827.596 281.54C826.51 282.471 825.113 282.936 823.406 282.936C821.079 282.936 819.372 282.161 817.975 280.454C816.579 278.747 815.958 275.954 815.958 271.764C815.958 268.04 816.579 265.403 817.975 263.851C819.217 262.299 821.079 261.523 823.251 261.523C824.958 261.523 826.199 261.989 827.285 262.765C828.372 263.696 828.992 264.937 829.303 266.644L838.147 265.092C837.061 261.523 835.354 258.73 832.871 257.024C830.389 255.317 827.13 254.386 822.941 254.386C817.82 254.386 813.786 255.937 810.838 259.196C807.89 262.299 806.338 266.799 806.338 272.385C806.338 277.971 807.734 282.316 810.683 285.419C813.631 288.522 817.665 290.229 822.63 290.229C826.975 290.229 830.544 289.143 833.182 287.126C835.82 285.109 837.526 282.005 838.457 277.816L829.458 276.419C829.458 278.747 828.682 280.454 827.596 281.54Z" fill="#0071BC"/>
<path d="M854.284 255.162H845.284V289.299H854.284V255.162Z" fill="#0071BC"/>
<path d="M854.284 242.13H845.284V250.509H854.284V242.13Z" fill="#0071BC"/>
<path d="M875.697 282.782C875.077 282.782 874.456 282.626 874.146 282.316C873.68 282.006 873.37 281.695 873.37 281.23C873.215 280.764 873.215 279.213 873.215 276.42V262.61H879.421V255.472H873.215V243.524L864.06 248.8V255.472H860.025V262.61H864.06V277.661C864.06 280.92 864.215 283.092 864.37 284.023C864.68 285.575 864.991 286.661 865.611 287.592C866.232 288.523 867.163 289.143 868.56 289.764C869.801 290.385 871.353 290.54 872.904 290.54C875.542 290.54 877.87 290.074 880.042 289.143L879.421 282.161C877.87 282.471 876.628 282.782 875.697 282.782Z" fill="#0071BC"/>
<path d="M898.816 279.523L890.592 255.162H881.127L894.006 289.454C893.54 291.316 892.764 293.023 891.678 294.264C890.747 295.505 889.196 296.126 887.023 296.126C885.937 296.126 884.696 295.971 883.144 295.661L883.92 302.798C885.627 303.109 887.178 303.264 889.04 303.264C890.747 303.264 892.299 303.109 893.54 302.798C894.937 302.333 896.023 301.867 896.954 301.247C897.885 300.626 898.661 299.695 899.282 298.609C900.057 297.523 900.833 295.971 901.609 293.954L903.937 287.902L915.884 255.007H906.574L898.816 279.523Z" fill="#0071BC"/>
<path d="M966.779 279.68C964.917 281.231 962.744 282.007 960.262 282.007C956.848 282.007 954.055 280.766 951.883 278.283C949.71 275.801 948.624 271.456 948.624 265.56C948.624 259.974 949.71 255.784 951.883 253.301C954.055 250.819 957.003 249.577 960.417 249.577C963.055 249.577 965.072 250.353 966.934 251.75C968.796 253.146 969.882 255.008 970.503 257.491L979.813 255.163C978.726 251.439 977.175 248.491 975.002 246.629C971.278 243.216 966.623 241.509 960.882 241.509C954.21 241.509 948.934 243.681 944.9 248.026C940.866 252.37 938.693 258.422 938.693 266.335C938.693 273.784 940.711 279.68 944.745 283.869C948.779 288.214 953.9 290.231 960.106 290.231C965.227 290.231 969.416 288.99 972.675 286.507C975.933 284.025 978.261 280.145 979.813 274.87L970.503 272.077C969.882 275.49 968.641 277.973 966.779 279.68Z" fill="#0071BC"/>
<path d="M1009.45 280.302C1007.9 282.164 1005.88 283.095 1003.55 283.095C1001.23 283.095 999.209 282.164 997.658 280.302C995.951 278.44 995.175 275.957 995.175 272.543C995.175 269.13 995.951 266.492 997.658 264.63C999.209 262.768 1001.23 261.837 1003.55 261.837C1006.04 261.837 1007.9 262.768 1009.45 264.63C1011.16 266.492 1011.93 268.974 1011.93 272.388C1011.93 275.802 1011 278.44 1009.45 280.302ZM1003.4 254.544C999.985 254.544 997.037 255.32 994.244 256.716C991.451 258.268 989.434 260.285 987.882 263.233C986.331 266.026 985.71 268.974 985.71 271.923C985.71 275.802 986.486 279.216 987.882 282.009C989.434 284.802 991.451 286.819 994.399 288.215C997.347 289.612 1000.3 290.388 1003.4 290.388C1008.52 290.388 1012.71 288.681 1015.97 285.267C1019.38 281.853 1021.09 277.664 1021.09 272.388C1021.09 267.268 1019.38 262.923 1016.12 259.664C1012.86 256.251 1008.67 254.544 1003.4 254.544Z" fill="#0071BC"/>
<path d="M1072.91 256.096C1071.21 255.009 1069.03 254.544 1066.55 254.544C1064.53 254.544 1062.67 255.009 1060.96 255.94C1059.26 256.871 1057.55 258.113 1056.15 259.975C1055.07 258.113 1053.83 256.871 1052.12 255.94C1050.57 255.009 1048.55 254.544 1046.38 254.544C1042.19 254.544 1038.62 256.406 1035.67 259.975V255.32H1027.29V289.457H1036.29V272.854C1036.29 269.595 1036.6 267.268 1037.07 265.871C1037.53 264.475 1038.46 263.388 1039.55 262.613C1040.64 261.837 1041.88 261.526 1043.43 261.526C1044.52 261.526 1045.45 261.837 1046.22 262.302C1046.84 262.768 1047.46 263.544 1047.62 264.475C1047.93 265.406 1048.09 267.578 1048.09 270.836V289.612H1057.09V273.164C1057.09 269.905 1057.4 267.578 1057.86 266.181C1058.33 264.63 1059.1 263.544 1060.34 262.768C1061.43 261.992 1062.67 261.526 1063.91 261.526C1065.62 261.526 1067.02 262.147 1067.79 263.544C1068.41 264.475 1068.72 266.802 1068.72 270.061V289.612H1077.72V267.733C1077.72 264.475 1077.41 262.147 1076.79 260.751C1076.02 258.578 1074.77 257.027 1072.91 256.096Z" fill="#0071BC"/>
<path d="M1108.6 280.612C1107.21 282.319 1105.5 283.095 1103.33 283.095C1101.15 283.095 1099.29 282.164 1097.74 280.302C1096.19 278.44 1095.41 275.647 1095.41 271.768C1095.41 268.509 1096.19 265.871 1097.59 264.164C1098.98 262.457 1100.84 261.682 1103.17 261.682C1105.19 261.682 1107.05 262.613 1108.45 264.319C1109.84 266.026 1110.62 268.664 1110.62 272.388C1110.62 276.112 1109.84 278.905 1108.6 280.612ZM1105.65 254.544C1103.33 254.544 1101.31 255.009 1099.45 256.096C1097.59 257.182 1096.03 258.578 1094.95 260.285V255.32H1086.41V302.491H1095.41V285.422C1097.12 287.284 1098.67 288.526 1100.22 289.301C1101.78 290.077 1103.48 290.388 1105.34 290.388C1109.38 290.388 1112.64 288.836 1115.43 285.577C1118.22 282.474 1119.62 277.974 1119.62 272.233C1119.62 266.647 1118.22 262.302 1115.43 259.199C1112.95 256.096 1109.53 254.544 1105.65 254.544Z" fill="#0071BC"/>
<path d="M1145.84 274.871C1145.84 277.043 1145.69 278.595 1145.38 279.371C1145.07 280.612 1144.29 281.543 1143.2 282.319C1141.65 283.405 1140.26 284.026 1138.55 284.026C1137 284.026 1135.91 283.56 1134.98 282.629C1134.05 281.698 1133.58 280.612 1133.58 279.371C1133.58 278.129 1134.21 277.043 1135.29 276.112C1136.07 275.647 1137.77 275.026 1140.26 274.561C1142.74 273.94 1144.45 273.474 1145.69 273.164V274.871M1154.69 278.129L1154.84 267.578C1154.84 263.699 1154.38 260.906 1153.6 259.509C1152.83 258.113 1151.43 256.871 1149.41 255.94C1147.39 255.009 1144.45 254.544 1140.41 254.544C1135.91 254.544 1132.65 255.32 1130.33 256.871C1128 258.423 1126.45 260.906 1125.52 264.164L1133.74 265.716C1134.36 264.164 1134.98 262.923 1135.91 262.302C1136.84 261.682 1138.08 261.371 1139.64 261.371C1142.12 261.371 1143.67 261.837 1144.45 262.458C1145.38 263.233 1145.84 264.475 1145.84 266.337V267.268C1144.14 268.043 1141.34 268.664 1137 269.44C1133.89 270.061 1131.57 270.681 1129.86 271.612C1128.15 272.388 1126.91 273.629 1125.98 275.026C1125.05 276.578 1124.58 278.284 1124.58 280.146C1124.58 283.095 1125.67 285.422 1127.69 287.439C1129.71 289.301 1132.5 290.232 1135.91 290.232C1137.93 290.232 1139.79 289.922 1141.5 289.146C1143.2 288.37 1144.91 287.129 1146.46 285.733C1146.46 285.888 1146.62 286.198 1146.77 286.819C1147.08 288.06 1147.39 288.836 1147.7 289.457H1156.7C1155.93 287.75 1155.31 286.353 1155.15 284.801C1154.69 283.405 1154.69 281.233 1154.69 278.129Z" fill="#0071BC"/>
<path d="M1192.39 258.265C1191.46 257.179 1190.22 256.248 1188.67 255.472C1186.96 254.696 1185.25 254.386 1183.24 254.386C1178.74 254.386 1175.01 256.248 1172.06 260.127V255.162H1163.69V289.298H1172.69V273.782C1172.69 269.902 1172.84 267.42 1173.31 266.023C1173.77 264.627 1174.55 263.385 1175.79 262.61C1177.03 261.679 1178.43 261.368 1179.98 261.368C1181.22 261.368 1182.15 261.679 1183.08 262.299C1183.86 262.92 1184.63 263.696 1184.94 264.782C1185.25 265.868 1185.56 268.196 1185.56 271.92V289.298H1194.56V268.04C1194.56 265.403 1194.41 263.385 1194.1 261.989C1193.79 260.592 1193.17 259.351 1192.39 258.265Z" fill="#0071BC"/>
<path d="M1225.13 255.162L1217.22 279.523L1208.99 255.162H1199.53L1212.41 289.454C1211.94 291.316 1211.17 293.023 1210.08 294.264C1209.15 295.505 1207.6 296.126 1205.42 296.126C1204.34 296.126 1203.1 295.971 1201.55 295.661L1202.32 302.798C1203.87 303.109 1205.73 303.264 1207.44 303.264C1209.15 303.264 1210.7 303.109 1212.1 302.798C1213.49 302.333 1214.58 301.867 1215.51 301.247C1216.44 300.626 1217.22 299.695 1217.99 298.609C1218.77 297.523 1219.39 295.971 1220.32 293.954L1222.49 287.902L1234.44 255.007H1225.13" fill="#0071BC"/>
</svg>
