<svg width="902" height="400" viewBox="0 0 902 400" fill="none" xmlns="http://www.w3.org/2000/svg">
<path d="M718.126 154.249C721.644 145.086 722.885 134.083 721.849 121.239C721.685 119.194 719.967 117.599 717.881 117.599C713.272 117.599 708.95 117.353 704.914 116.862C695.752 115.744 692.425 119.098 694.934 126.925C695.261 127.988 696.365 128.765 697.674 128.806C701.901 128.943 703.483 131.029 702.419 135.065C702.065 136.401 701.983 137.737 702.174 139.073C702.692 143.3 701.11 146.286 697.429 148.031C690.312 151.385 686.726 148.999 686.671 140.873L686.467 103.855C686.426 100.624 688.594 97.7193 691.784 96.7786C699.174 94.5152 702.501 97.733 701.765 106.432C701.601 108.15 703.196 109.541 705.037 109.377L718.904 108.109C720.131 107.986 721.112 107.168 721.235 106.105C722.462 95.8514 718.958 88.8568 710.723 85.1209C703.551 81.8759 694.443 81.5214 683.399 84.0574C674.182 86.1844 669.055 92.2519 668.019 102.26C666.574 115.976 666.519 128.697 667.855 140.423C668.701 147.949 671.455 153.471 676.118 156.989C682.799 162.061 691.007 163.984 700.742 162.757" stroke="#86A6D1" stroke-width="2"/>
<path d="M190.466 89.13C182.639 102.928 185.107 114 197.869 122.344C204.496 126.68 211.149 130.975 217.83 135.229C222.057 137.928 222.766 141.623 219.957 146.314C219.303 147.459 218.199 148.277 216.89 148.604C208.927 150.595 205.177 147.418 205.641 139.074C205.723 137.806 204.864 136.701 203.759 136.66L187.684 136.047C186.498 136.006 185.516 137.028 185.475 138.296C184.957 153.731 192.756 162.171 208.872 163.616C215.881 164.243 222.275 163.357 228.056 160.957C234.137 158.394 238.119 153.922 240 147.541C243.245 136.606 239.469 127.593 228.67 120.503C223.652 117.231 218.58 114.04 213.454 110.932C210.318 109.023 208.163 107.087 206.991 105.123C204.209 100.379 205.873 97.188 211.981 95.5519C213.331 95.1837 214.722 95.3883 215.785 96.0836C218.567 97.9107 220.094 100.583 220.366 104.101C220.448 105.287 221.348 106.228 222.412 106.228H236.237C237.423 106.228 238.487 105.328 238.691 104.101C240.273 94.9929 236.796 88.6255 228.261 84.9987C221.771 82.2445 214.967 81.1264 207.85 81.6445" stroke="#86A6D1" stroke-width="2"/>
<path d="M436.995 135.638C435.85 135.556 434.909 136.415 434.868 137.56C434.786 152.722 442.326 161.148 457.488 162.839C462.642 163.412 467.755 163.153 472.827 162.062C483.025 159.908 488.52 154.031 489.311 144.432C490.211 133.797 487.116 126.189 480.026 121.608C473.536 117.408 466.923 113.427 460.187 109.664C453.316 105.819 451.775 102.41 455.565 99.438C463.555 93.2206 468.095 94.5977 469.186 103.569C469.35 104.837 470.209 105.819 471.313 106.064C476.222 107.155 481.144 107.087 486.08 105.86C487.307 105.574 488.166 104.51 488.247 103.283C488.847 94.0114 484.771 87.794 476.017 84.6307C463.064 79.9677 451.966 81.413 442.721 88.9666C439.231 91.8026 437.049 95.2249 436.177 99.2334C435.195 103.815 435.59 108.123 437.363 112.159C438.999 115.922 443.13 119.863 449.757 123.98C458.592 129.516 464.278 133.443 466.814 135.761C471.122 139.687 471.872 143.301 469.064 146.6C467.4 148.591 465.273 149.532 462.683 149.423C459.71 149.259 457.515 147.814 456.097 145.087C455.606 144.146 455.443 142.714 455.647 141.119C456.192 136.592 454.665 134.615 451.066 135.188C447.357 135.761 445.394 136.047 445.176 136.047C442.64 136.047 439.913 135.911 436.995 135.638Z" stroke="#86A6D1" stroke-width="2"/>
<path d="M283.398 98.1694C284.107 93.3973 284.83 93.3836 285.566 98.1285L294.769 158.298C294.974 159.607 295.915 160.589 297.019 160.548L313.176 159.934C314.321 159.893 315.14 158.748 314.894 157.48L301.6 86.5936C301.355 85.3664 300.332 84.4666 299.146 84.4257L271.004 84.0575C269.123 84.0166 267.527 85.4074 267.2 87.2889L254.315 158.298C254.111 159.403 254.97 160.425 256.074 160.425L272.027 160.384C273.213 160.384 274.195 159.484 274.399 158.257L283.398 98.1694Z" stroke="#86A6D1" stroke-width="2"/>
<path d="M351.751 99.3966L362.918 156.662C363.327 158.83 365.085 160.425 367.131 160.425H381.447C382.592 160.425 383.615 159.525 383.86 158.298L394.986 100.133C396.268 93.4792 396.95 93.561 397.031 100.378L397.727 158.789C397.727 159.894 398.668 160.793 399.854 160.793L413.679 160.834C414.825 160.834 415.765 159.894 415.725 158.748L414.293 87.1255C414.252 86.0211 413.311 85.1212 412.125 85.0803L385.006 84.5894C383.983 84.5485 383.124 85.3257 382.92 86.3483L374.534 137.11C373.798 141.555 373.075 141.528 372.366 137.028L364.431 86.9619C364.227 85.7756 363.204 84.8758 361.936 84.8758H335.307C333.958 84.8758 332.853 85.9393 332.853 87.2073L332.281 158.789C332.24 159.934 333.221 160.875 334.408 160.834L347.701 160.425C348.847 160.384 349.747 159.444 349.787 158.257L351.219 99.4376C351.274 97.8287 351.451 97.815 351.751 99.3966Z" stroke="#86A6D1" stroke-width="2"/>
<path d="M530.622 148.031C528.25 146.313 526.859 143.531 526.859 140.504L526.696 86.1023C526.655 84.9569 525.755 84.0162 524.609 84.0162L510.17 83.8525C508.698 83.8525 507.471 85.0797 507.471 86.634C507.471 104.877 507.689 122.357 508.125 139.073C508.48 153.444 514.82 161.284 527.145 162.593C532.845 163.193 538.149 163.165 543.057 162.511C549.329 161.665 554.142 158.857 557.496 154.085C560.278 150.049 561.682 143.15 561.709 133.387C561.764 118.007 561.668 102.614 561.423 87.2067C561.382 85.6932 560.482 84.4252 559.419 84.4661L544.775 84.7933C543.303 84.8342 542.157 86.225 542.116 87.9838L541.339 143.122C541.298 144.513 540.848 145.822 539.989 146.845C537.153 150.117 534.031 150.512 530.622 148.031Z" stroke="#86A6D1" stroke-width="2"/>
<path d="M602.45 104.427L619.63 158.339C620.039 159.525 621.102 160.343 622.288 160.384L644.049 160.588C645.972 160.588 647.567 158.993 647.567 156.989V87.084C647.567 85.6523 646.503 84.4661 645.235 84.4661L630.142 84.3843C629.119 84.3843 628.301 85.5296 628.301 86.9203L628.056 137.764C628.056 139.591 627.797 139.645 627.279 137.928L612.43 86.634C611.981 84.9979 610.549 83.8525 608.913 83.8525L585.434 84.0571C584.289 84.0571 583.389 84.9978 583.389 86.1841C583.116 107.263 583.034 128.356 583.143 149.462C583.143 149.79 582.966 151.699 582.611 155.189C582.202 159.525 584.166 161.488 588.502 161.079C590.111 160.916 591.992 160.875 594.146 160.956C596.219 161.066 598.128 160.629 599.873 159.647C600.896 159.075 601.509 157.848 601.509 156.416L601.755 104.591C601.755 103.064 601.986 103.009 602.45 104.427Z" stroke="#86A6D1" stroke-width="2"/>
<path d="M609.978 0C623.285 0 636.579 0 649.859 0C684.9 1.19985 719.546 5.48113 753.796 12.8438C771.384 16.607 787.787 23.2198 803.003 32.6822C818.738 42.4719 824.873 55.4384 821.41 71.5819C818.819 83.6622 811.198 95.1562 798.545 106.064C774.548 126.761 747.742 142.823 718.128 154.249C721.645 145.086 722.886 134.083 721.85 121.239C721.686 119.194 719.968 117.599 717.882 117.599C713.274 117.599 708.951 117.353 704.916 116.863C695.753 115.744 692.426 119.099 694.935 126.925C695.262 127.988 696.367 128.766 697.676 128.806C701.902 128.943 703.484 131.029 702.42 135.065C702.066 136.401 701.984 137.737 702.175 139.073C702.693 143.3 701.112 146.286 697.43 148.031C690.313 151.385 686.727 148.999 686.672 140.873L686.468 103.855C686.427 100.624 688.595 97.7195 691.785 96.7787C699.175 94.5153 702.502 97.7331 701.766 106.432C701.602 108.15 703.198 109.541 705.038 109.377L718.905 108.109C720.132 107.986 721.114 107.168 721.236 106.105C722.463 95.8515 718.959 88.8569 710.724 85.1211C703.552 81.876 694.444 81.5215 683.4 84.0576C674.183 86.1846 669.056 92.252 668.02 102.26C666.575 115.976 666.52 128.697 667.857 140.423C668.702 147.949 671.456 153.472 676.119 156.989C682.8 162.061 691.008 163.984 700.743 162.757C696.871 164.775 690.654 167.365 682.091 170.528C554.88 217.404 423.387 242.424 287.614 245.587C249.219 246.487 211.028 244.183 173.042 238.674C144.709 234.557 120.944 226.499 101.746 214.5C83.8576 203.292 77.4221 189.344 82.4396 172.655C85.3847 162.811 93.211 152.094 105.919 140.505C130.515 118.062 158.698 100.937 190.467 89.1296C182.641 102.928 185.108 113.999 197.871 122.344C204.497 126.679 211.151 130.974 217.832 135.228C222.058 137.928 222.767 141.623 219.959 146.313C219.304 147.459 218.2 148.277 216.891 148.604C208.928 150.595 205.179 147.418 205.642 139.073C205.724 137.805 204.865 136.701 203.761 136.66L187.685 136.046C186.499 136.006 185.518 137.028 185.477 138.296C184.959 153.731 192.758 162.17 208.874 163.616C215.882 164.243 222.277 163.357 228.058 160.957C234.139 158.394 238.12 153.921 240.002 147.54C243.247 136.605 239.47 127.593 228.671 120.503C223.654 117.231 218.582 114.04 213.455 110.931C210.319 109.023 208.165 107.086 206.992 105.123C204.211 100.378 205.874 97.1877 211.982 95.5516C213.332 95.1834 214.723 95.3879 215.786 96.0833C218.568 97.9104 220.095 100.583 220.368 104.1C220.449 105.287 221.349 106.227 222.413 106.227H236.238C237.425 106.227 238.488 105.328 238.693 104.1C240.274 94.9925 236.797 88.6252 228.262 84.9984C221.772 82.2442 214.968 81.1261 207.851 81.6442C213.605 78.8082 219.509 76.2995 225.562 74.1179C349.72 29.369 477.858 4.66305 609.978 0ZM436.995 135.637C435.85 135.556 434.909 136.415 434.868 137.56C434.786 152.722 442.326 161.148 457.488 162.839C462.642 163.411 467.755 163.152 472.827 162.061C483.025 159.907 488.52 154.031 489.311 144.432C490.211 133.797 487.116 126.189 480.026 121.607C473.536 117.408 466.923 113.427 460.187 109.663C453.316 105.818 451.775 102.41 455.565 99.4374C463.555 93.22 468.095 94.5971 469.186 103.569C469.35 104.837 470.209 105.818 471.313 106.064C476.222 107.155 481.144 107.086 486.08 105.859C487.307 105.573 488.166 104.51 488.248 103.282C488.847 94.0108 484.771 87.7935 476.017 84.6302C463.064 79.9672 451.966 81.4124 442.721 88.966C439.231 91.802 437.049 95.2243 436.177 99.2329C435.195 103.814 435.591 108.123 437.363 112.159C438.999 115.922 443.13 119.862 449.757 123.98C458.592 129.515 464.278 133.442 466.814 135.76C471.122 139.687 471.872 143.3 469.064 146.6C467.4 148.59 465.273 149.531 462.683 149.422C459.71 149.258 457.515 147.813 456.097 145.086C455.606 144.145 455.443 142.714 455.647 141.119C456.192 136.592 454.665 134.615 451.066 135.187C447.357 135.76 445.394 136.046 445.176 136.046C442.64 136.046 439.913 135.91 436.995 135.637ZM283.401 98.1694C284.11 93.3973 284.832 93.3837 285.569 98.1285L294.772 158.298C294.976 159.607 295.917 160.589 297.022 160.548L313.179 159.934C314.324 159.893 315.142 158.748 314.897 157.48L301.603 86.5936C301.357 85.3665 300.335 84.4666 299.149 84.4257L271.007 84.0576C269.125 84.0167 267.53 85.4074 267.203 87.289L254.318 158.298C254.113 159.403 254.972 160.425 256.077 160.425L272.029 160.384C273.216 160.384 274.197 159.484 274.402 158.257L283.401 98.1694ZM351.751 99.3965L362.918 156.662C363.327 158.83 365.086 160.425 367.131 160.425H381.447C382.593 160.425 383.615 159.525 383.861 158.298L394.987 100.133C396.268 93.4791 396.95 93.5609 397.032 100.378L397.727 158.789C397.727 159.893 398.668 160.793 399.854 160.793L413.68 160.834C414.825 160.834 415.766 159.893 415.725 158.748L414.293 87.1253C414.252 86.0209 413.312 85.1211 412.125 85.0802L385.006 84.5893C383.983 84.5484 383.124 85.3256 382.92 86.3482L374.535 137.11C373.798 141.555 373.076 141.528 372.367 137.028L364.431 86.9617C364.227 85.7755 363.204 84.8756 361.936 84.8756H335.308C333.958 84.8756 332.853 85.9391 332.853 87.2072L332.281 158.789C332.24 159.934 333.222 160.875 334.408 160.834L347.702 160.425C348.847 160.384 349.747 159.443 349.788 158.257L351.219 99.4374C351.274 97.8285 351.451 97.8149 351.751 99.3965ZM530.624 148.031C528.252 146.313 526.861 143.532 526.861 140.505L526.697 86.1028C526.656 84.9574 525.756 84.0167 524.611 84.0167L510.172 83.853C508.699 83.853 507.472 85.0802 507.472 86.6345C507.472 104.878 507.691 122.357 508.127 139.073C508.481 153.444 514.821 161.284 527.147 162.593C532.846 163.193 538.15 163.166 543.059 162.511C549.331 161.666 554.144 158.857 557.498 154.085C560.279 150.049 561.684 143.15 561.711 133.388C561.765 118.008 561.67 102.614 561.425 87.2072C561.384 85.6937 560.484 84.4257 559.42 84.4666L544.777 84.7938C543.304 84.8347 542.159 86.2255 542.118 87.9843L541.341 143.123C541.3 144.514 540.85 145.822 539.991 146.845C537.155 150.117 534.033 150.513 530.624 148.031ZM602.451 104.428L619.631 158.339C620.04 159.525 621.103 160.343 622.29 160.384L644.051 160.589C645.973 160.589 647.568 158.994 647.568 156.989V87.0845C647.568 85.6528 646.505 84.4666 645.237 84.4666L630.143 84.3848C629.121 84.3848 628.303 85.5301 628.303 86.9208L628.057 137.764C628.057 139.591 627.798 139.646 627.28 137.928L612.432 86.6345C611.982 84.9983 610.55 83.853 608.914 83.853L585.435 84.0576C584.29 84.0576 583.39 84.9983 583.39 86.1846C583.117 107.264 583.036 128.357 583.145 149.463C583.145 149.79 582.967 151.699 582.613 155.189C582.204 159.525 584.167 161.489 588.503 161.08C590.112 160.916 591.993 160.875 594.148 160.957C596.22 161.066 598.129 160.63 599.874 159.648C600.897 159.075 601.51 157.848 601.51 156.417L601.756 104.591C601.756 103.064 601.988 103.01 602.451 104.428Z" fill="#0C4DA2"/>
<path d="M207.85 81.6436C214.967 81.1254 221.771 82.2435 228.261 84.9977C236.796 88.6245 240.273 94.9919 238.691 104.1C238.487 105.327 237.423 106.227 236.237 106.227H222.412C221.348 106.227 220.448 105.286 220.366 104.1C220.094 100.582 218.567 97.9097 215.785 96.0826C214.722 95.3873 213.331 95.1828 211.981 95.5509C205.873 97.1871 204.209 100.378 206.991 105.122C208.163 107.086 210.318 109.022 213.454 110.931C218.58 114.039 223.652 117.23 228.67 120.502C239.469 127.592 243.245 136.605 240 147.54C238.119 153.921 234.137 158.393 228.056 160.956C222.275 163.356 215.881 164.242 208.872 163.615C192.756 162.17 184.957 153.73 185.475 138.296C185.516 137.027 186.498 136.005 187.684 136.046L203.759 136.659C204.864 136.7 205.723 137.805 205.641 139.073C205.177 147.417 208.927 150.594 216.89 148.603C218.199 148.276 219.303 147.458 219.957 146.313C222.766 141.622 222.057 137.927 217.83 135.228C211.149 130.974 204.496 126.679 197.869 122.343C185.107 113.999 182.639 102.927 190.466 89.129C195.538 85.0386 201.332 82.5434 207.85 81.6436Z" fill="white"/>
<path d="M436.995 135.637C439.913 135.91 442.64 136.046 445.176 136.046C445.394 136.046 447.357 135.76 451.066 135.187C454.665 134.614 456.192 136.591 455.647 141.118C455.443 142.713 455.606 144.145 456.097 145.086C457.515 147.813 459.71 149.258 462.683 149.422C465.273 149.531 467.4 148.59 469.064 146.599C471.872 143.3 471.122 139.686 466.814 135.76C464.278 133.442 458.592 129.515 449.757 123.979C443.13 119.862 438.999 115.921 437.363 112.158C435.59 108.122 435.195 103.814 436.177 99.2325C437.049 95.2239 439.231 91.8016 442.721 88.9656C451.966 81.412 463.064 79.9667 476.017 84.6298C484.771 87.793 488.847 94.0104 488.247 103.282C488.166 104.509 487.307 105.573 486.08 105.859C481.144 107.086 476.222 107.154 471.313 106.063C470.209 105.818 469.35 104.836 469.186 103.568C468.095 94.5967 463.555 93.2196 455.565 99.437C451.775 102.409 453.316 105.818 460.187 109.663C466.923 113.426 473.536 117.407 480.026 121.607C487.116 126.188 490.211 133.796 489.311 144.431C488.52 154.03 483.025 159.907 472.827 162.061C467.755 163.152 462.642 163.411 457.488 162.838C442.326 161.147 434.786 152.721 434.868 137.559C434.909 136.414 435.85 135.555 436.995 135.637Z" fill="white"/>
<path d="M718.128 154.248C713.193 158.72 707.398 161.556 700.744 162.756C691.009 163.983 682.801 162.06 676.12 156.988C671.457 153.47 668.703 147.948 667.857 140.422C666.521 128.696 666.576 115.975 668.021 102.259C669.057 92.2509 674.184 86.1835 683.401 84.0565C694.445 81.5204 703.553 81.8749 710.725 85.12C718.96 88.8559 722.464 95.8504 721.237 106.104C721.114 107.167 720.133 107.985 718.905 108.108L705.039 109.376C703.198 109.54 701.603 108.149 701.767 106.431C702.503 97.732 699.176 94.5142 691.786 96.7776C688.596 97.7184 686.428 100.623 686.469 103.854L686.673 140.872C686.728 148.998 690.314 151.384 697.431 148.03C701.112 146.285 702.694 143.299 702.176 139.072C701.985 137.736 702.067 136.4 702.421 135.064C703.485 131.028 701.903 128.942 697.676 128.805C696.367 128.764 695.263 127.987 694.936 126.924C692.427 119.097 695.754 115.743 704.916 116.861C708.952 117.352 713.274 117.598 717.883 117.598C719.969 117.598 721.687 119.193 721.851 121.238C722.887 134.082 721.646 145.085 718.128 154.248Z" fill="white"/>
<path d="M283.4 98.1694L274.401 158.257C274.197 159.484 273.215 160.384 272.029 160.384L256.076 160.425C254.972 160.425 254.113 159.403 254.317 158.298L267.202 87.2889C267.529 85.4074 269.125 84.0166 271.006 84.0575L299.148 84.4257C300.334 84.4666 301.357 85.3664 301.602 86.5936L314.896 157.48C315.142 158.748 314.323 159.893 313.178 159.934L297.021 160.548C295.917 160.589 294.976 159.607 294.771 158.298L285.568 98.1285C284.832 93.3836 284.109 93.3973 283.4 98.1694Z" fill="white"/>
<path d="M351.219 99.4376L349.787 158.257C349.747 159.444 348.847 160.384 347.701 160.425L334.408 160.834C333.221 160.875 332.24 159.934 332.281 158.789L332.853 87.2073C332.853 85.9393 333.958 84.8758 335.307 84.8758H361.936C363.204 84.8758 364.227 85.7756 364.431 86.9619L372.366 137.028C373.075 141.528 373.798 141.555 374.534 137.11L382.92 86.3483C383.124 85.3257 383.983 84.5485 385.006 84.5894L412.125 85.0803C413.311 85.1212 414.252 86.0211 414.293 87.1255L415.725 158.748C415.765 159.894 414.825 160.834 413.679 160.834L399.854 160.793C398.668 160.793 397.727 159.894 397.727 158.789L397.031 100.378C396.95 93.561 396.268 93.4792 394.986 100.133L383.86 158.298C383.615 159.525 382.592 160.425 381.447 160.425H367.131C365.085 160.425 363.327 158.83 362.918 156.662L351.751 99.3966C351.451 97.815 351.274 97.8287 351.219 99.4376Z" fill="white"/>
<path d="M530.624 148.032C534.033 150.513 537.155 150.118 539.991 146.846C540.85 145.823 541.3 144.514 541.341 143.123L542.118 87.9848C542.159 86.2259 543.304 84.8352 544.777 84.7943L559.421 84.4671C560.484 84.4262 561.384 85.6942 561.425 87.2076C561.67 102.615 561.766 118.008 561.711 133.388C561.684 143.151 560.28 150.05 557.498 154.086C554.144 158.858 549.331 161.666 543.059 162.512C538.151 163.166 532.847 163.193 527.147 162.594C514.822 161.285 508.482 153.445 508.127 139.074C507.691 122.358 507.473 104.878 507.473 86.635C507.473 85.0806 508.7 83.8535 510.172 83.8535L524.611 84.0171C525.757 84.0171 526.657 84.9579 526.697 86.1032L526.861 140.505C526.861 143.532 528.252 146.314 530.624 148.032Z" fill="white"/>
<path d="M601.757 104.592L601.511 156.417C601.511 157.849 600.898 159.076 599.875 159.648C598.13 160.63 596.221 161.066 594.148 160.957C591.994 160.876 590.113 160.917 588.504 161.08C584.168 161.489 582.204 159.526 582.613 155.19C582.968 151.699 583.145 149.791 583.145 149.463C583.036 128.357 583.118 107.264 583.391 86.185C583.391 84.9988 584.291 84.058 585.436 84.058L608.915 83.8535C610.551 83.8535 611.982 84.9988 612.432 86.635L627.281 137.929C627.799 139.646 628.058 139.592 628.058 137.765L628.303 86.9213C628.303 85.5306 629.121 84.3853 630.144 84.3853L645.237 84.4671C646.505 84.4671 647.569 85.6533 647.569 87.0849V156.99C647.569 158.994 645.974 160.589 644.051 160.589L622.29 160.385C621.104 160.344 620.041 159.526 619.632 158.34L602.452 104.428C601.988 103.01 601.757 103.065 601.757 104.592Z" fill="white"/>
<path d="M0.794416 381.492C0.794416 381.111 0.794416 380.73 0.794416 380.349C3.70415 379.19 7.61171 378.992 12.5171 379.754C13.2255 379.846 13.7739 380.372 13.911 381.081C14.9927 386.28 17.1178 389.231 20.2866 389.932C23.1658 390.588 25.5271 389.604 27.3704 386.982C29.3509 384.176 28.7263 381.012 25.4966 377.49C23.7447 375.569 19.5325 372.717 12.8599 368.936C5.44084 364.712 1.85319 358.857 2.09694 351.371C2.26451 346.278 4.01645 342.199 7.35273 339.135C9.85114 336.832 12.898 335.422 16.4932 334.903C19.2963 334.507 22.5488 334.438 26.2507 334.698C35.9854 335.353 40.9746 341.041 41.2183 351.76C41.2412 352.537 40.7384 353.155 40.1215 353.178L29.9983 353.361C29.0386 353.384 28.2388 352.492 28.1931 351.394C28.056 345.279 25.0472 343.091 19.1668 344.83C18.4356 345.036 17.7958 345.47 17.3616 346.065C14.2386 350.365 15.0231 354.184 19.7153 357.523C23.2191 360.009 26.8677 362.273 30.661 364.316C40.7613 369.79 44.1357 378.039 40.7841 389.063C39.4892 393.347 36.4424 396.397 31.6436 398.211C28.1855 399.523 22.8687 399.782 15.6934 398.989C5.60842 397.891 0.642074 392.059 0.794416 381.492Z" fill="#0C4DA2"/>
<path d="M193.095 389.84C198.832 391.094 201.616 388.923 201.448 383.329C201.371 380.47 200.14 378.269 197.753 376.725C194.434 374.57 191.145 372.438 187.887 370.328C183.512 367.5 180.514 365.024 178.892 362.899C175.175 358.023 174.196 352.734 175.955 347.033C177.469 342.08 180.751 338.572 185.799 336.509C191.596 334.124 197.654 333.91 203.972 335.867C207.536 336.983 210.121 338.748 211.727 341.163C213.441 343.716 214.45 346.888 214.756 350.679C214.871 351.894 214.022 352.971 212.829 353.201C208.591 353.98 205.303 353.996 202.962 353.247C202.343 353.04 201.884 352.421 201.815 351.664C201.279 345.734 198.128 343.525 192.361 345.038C191.627 345.222 190.984 345.657 190.548 346.253C187.443 350.426 187.971 354.141 192.132 357.397C193.401 358.405 197.134 360.545 203.329 363.817C210.84 367.776 214.802 373.523 215.215 381.059C215.506 386.47 214.098 390.926 210.993 394.426C208.561 397.162 205.394 398.844 201.494 399.47C198.924 399.868 195.451 400.036 191.076 399.975C179.665 399.822 174.165 393.463 174.578 380.898C174.601 380.233 175.129 379.706 175.771 379.706L186.143 379.66C186.946 379.66 187.588 380.302 187.611 381.128C187.78 386.172 189.608 389.076 193.095 389.84Z" fill="#0C4DA2"/>
<path d="M362.428 375.846C357.446 376.685 355.66 373.848 357.07 367.334C357.254 366.465 357.99 365.847 358.841 365.87L375.925 366.076C376.569 366.099 377.098 366.648 377.121 367.334L377.42 395.34C377.443 396.667 376.454 397.811 375.097 398.04C367.402 399.382 360.535 400.031 354.495 399.985C347.719 399.939 342.676 397.681 339.365 393.212C337.264 390.36 335.785 385.57 334.927 378.843C333.455 367.266 333.846 357.183 336.099 348.595C338 341.38 342.293 336.995 348.976 335.439C354.755 334.097 360.328 334.264 365.693 335.942C372.714 338.139 376.646 343.706 377.489 352.645C377.65 354.361 376.063 355.688 374.385 355.253C372.239 354.674 369.931 354.712 367.463 355.368C365.693 355.848 363.945 354.59 363.83 352.782C363.646 350.265 363.041 348.298 362.014 346.879C360.971 345.476 359.278 344.683 356.932 344.5C352.395 344.149 349.735 346.597 348.953 351.844C347.252 363.406 347.459 374.366 349.574 384.723C350.172 387.652 351.95 389.383 354.909 389.917C360.994 391 364.022 389.742 363.991 386.142C363.961 383.579 363.961 382.176 363.991 381.932C364.129 380.193 364.053 378.469 363.761 376.761C363.669 376.143 363.072 375.754 362.428 375.846Z" fill="#0C4DA2"/>
<path d="M526.928 390.254C534.391 392.283 537.866 390.086 537.352 383.663C537.322 383.343 537.314 381.741 537.33 378.857C537.33 375.882 535.524 374.7 531.914 375.31C531.211 375.425 530.531 375.104 530.282 374.532C529.224 372.091 529.119 369.589 529.965 367.026C530.169 366.339 530.803 365.881 531.483 365.904L548.479 366.156C549.136 366.156 549.657 366.705 549.68 367.392L549.997 396.502C550.02 397.326 549.408 398.058 548.569 398.195C541.288 399.462 534.414 400.057 527.948 399.981C516.844 399.843 510.469 394.32 508.822 383.412C507.598 375.173 507.485 365.942 508.482 355.72C509.011 350.258 510.159 346.116 511.927 343.293C514.54 339.128 518.211 336.489 522.94 335.375C528.892 333.987 534.459 334.338 539.641 336.428C545.593 338.854 549.091 344.125 550.133 352.242C550.36 353.935 548.887 355.423 547.051 355.331L539.301 354.919C538.599 354.873 537.987 354.416 537.783 353.775C534.64 344.361 530.176 342.248 524.39 347.436C523.846 347.916 523.438 348.58 523.257 349.335C520.16 361.693 520.16 374.082 523.257 386.501C523.71 388.332 525.115 389.774 526.928 390.254Z" fill="#0C4DA2"/>
<path d="M886.762 375.82C881.078 376.019 879.287 373.067 881.388 366.963C881.615 366.297 882.227 365.861 882.93 365.861H899.959C900.82 365.861 901.501 366.55 901.501 367.376L901.614 395.485C901.637 396.862 900.639 398.032 899.278 398.262C891.312 399.608 884.162 400.166 877.828 399.937C871.721 399.707 867.111 397.543 863.997 393.443C861.956 390.751 860.512 386.276 859.666 380.019C858.094 368.286 858.479 357.83 860.822 348.651C862.697 341.324 866.929 336.903 873.52 335.388C879.219 334.073 884.714 334.295 890.004 336.054C896.852 338.333 900.684 343.909 901.501 352.782C901.569 353.562 901.092 354.273 900.344 354.503C896.52 355.681 892.914 355.681 889.528 354.503C888.576 354.159 887.986 353.218 888.077 352.208C888.243 350.326 887.805 348.644 886.762 347.16C885.855 345.875 884.495 345.049 882.681 344.682C877.45 343.58 874.366 345.905 873.429 351.657C872.084 359.888 872.023 369.326 873.248 379.973C873.747 384.41 874.805 387.37 876.422 388.854C878.901 391.118 882.567 391.424 887.42 389.772C888.168 389.519 888.667 388.831 888.621 388.074L888.009 376.899C887.986 376.279 887.42 375.797 886.762 375.82Z" fill="#0C4DA2"/>
<path d="M67.3886 385.228C63.3018 384.372 61.2508 386.039 61.2356 390.231C61.2203 397.575 56.6608 400.253 47.557 398.264C46.7792 398.08 46.2989 397.277 46.5048 396.497L62.9282 337.608C63.2027 336.621 64.0262 335.955 64.964 335.932L79.6948 335.657C80.3582 335.634 80.9529 336.139 81.1587 336.85L97.5594 397.323C97.7423 397.965 97.3077 398.608 96.713 398.631L85.6878 398.792C84.7271 398.815 83.8807 398.08 83.6063 397.025L80.9986 386.422C80.7013 385.205 79.5118 384.402 78.2766 384.632C73.4274 385.534 69.798 385.733 67.3886 385.228ZM70.6367 351.951L66.062 373.478C65.9247 374.121 66.4051 374.74 67.0455 374.717L76.2866 374.649C76.8585 374.649 77.2931 374.029 77.1558 373.34L72.7869 351.997C72.0854 348.539 71.3687 348.524 70.6367 351.951Z" fill="#0C4DA2"/>
<path d="M116.775 356.874L116.684 396.917C116.684 398.011 115.796 398.9 114.727 398.9H105.67C104.533 398.9 103.6 397.965 103.6 396.826V337.753C103.6 336.591 104.533 335.656 105.693 335.656H123.26C124.17 335.656 124.966 336.272 125.171 337.16L133.773 374.833C134.455 377.826 135.153 377.834 135.866 374.856L144.991 337.502C145.173 336.773 145.742 336.249 146.401 336.249H164.355C164.969 336.249 165.47 336.819 165.47 337.502L165.743 397.327C165.743 398.034 165.242 398.603 164.628 398.626L154.343 398.854C153.729 398.877 153.228 398.33 153.228 397.646L153.091 357.831C153.076 353.212 152.485 353.136 151.317 357.603L141.009 397.373C140.827 398.102 140.235 398.626 139.575 398.649L129.54 398.763C128.675 398.786 127.879 398.102 127.674 397.168L118.39 356.692C117.328 352.103 116.79 352.164 116.775 356.874Z" fill="#0C4DA2"/>
<path d="M224.072 337.474C224.072 336.291 225.19 335.403 226.33 335.722C229.097 336.465 231.818 336.48 234.494 335.767C235.839 335.403 237.162 336.404 237.185 337.793C237.352 352.041 237.421 366.54 237.39 381.288C237.375 384.323 238.302 386.69 240.172 388.39C241.966 390.028 244.148 390.651 246.717 390.256C249.287 389.846 251.141 388.458 252.282 386.091C252.951 384.725 253.285 382.609 253.285 379.741C253.255 365.781 253.391 351.829 253.695 337.884C253.718 337.156 254.152 336.541 254.79 336.359C257.299 335.585 260.742 335.577 265.121 336.336C266.192 336.518 266.968 337.451 266.968 338.521C266.968 352.618 266.846 366.304 266.603 379.581C266.344 393.071 259.435 399.876 245.873 399.998C234.061 400.104 227.044 395.711 224.825 386.819C224.43 385.271 224.201 378.14 224.141 365.424C224.11 356.654 224.087 347.337 224.072 337.474Z" fill="#0C4DA2"/>
<path d="M310.518 375.738C311.612 378.577 312.159 378.485 312.159 375.464C312.159 364.568 312.159 353.688 312.159 342.822C312.159 342.639 312.083 341.487 311.931 339.366C311.643 335.582 313.459 334.307 317.379 335.543C318.017 335.749 318.746 335.749 319.499 335.543C320.988 335.116 322.363 335.261 323.624 335.978C324.194 336.322 324.559 337.008 324.559 337.787L324.695 397.072C324.695 398.079 323.898 398.88 322.895 398.88H308.285C307.578 398.88 306.963 398.445 306.712 397.781C301.5 384.353 296.569 371.046 291.919 357.861C291.874 357.754 291.767 357.228 291.6 356.282C291.464 355.641 291.144 355.229 290.643 355.046C290.096 354.84 289.549 355.389 289.549 356.099L289.914 396.935C289.936 398.01 289.047 398.88 287.953 398.88H278.586C277.925 398.88 277.4 398.354 277.4 397.713L277.537 337.191C277.537 336.505 278.039 335.955 278.677 335.955L293.902 335.818C294.586 335.818 295.224 336.276 295.498 336.985L310.518 375.738Z" fill="#0C4DA2"/>
<path d="M421.81 361.279C425.536 361.264 429.269 361.294 433.009 361.37C433.192 361.385 434.34 361.233 436.453 360.915C439.449 360.459 440.391 363.275 439.281 369.363C439.099 370.365 438.209 371.094 437.183 371.094H421.651C420.715 371.094 419.94 371.868 419.94 372.802V387.809C419.94 388.629 420.624 389.312 421.445 389.312H440.285C441.038 389.312 441.653 389.836 441.676 390.473L441.859 397.76C441.882 398.375 441.174 398.899 440.331 398.876L408.376 398.626C407.737 398.603 407.213 398.079 407.213 397.419V337.368C407.213 336.73 407.737 336.229 408.376 336.229L439.441 336.184C440.239 336.184 440.901 336.73 440.946 337.413L441.289 344.86C441.311 345.475 440.604 345.976 439.738 345.953L422.38 345.703C421.673 345.703 421.058 346.09 420.875 346.682C419.507 351.115 419.339 355.609 420.373 360.163C420.51 360.823 421.126 361.279 421.81 361.279Z" fill="#0C4DA2"/>
<path d="M463.339 355.49L463.202 396.934C463.202 398.01 462.336 398.88 461.287 398.88H452.17C451.35 398.88 450.666 398.193 450.666 397.369V337.378C450.666 336.256 451.669 335.363 452.923 335.34L465.572 335.157C467.328 335.134 468.877 336.073 469.424 337.516L484.035 375.846C484.962 378.303 485.425 378.219 485.425 375.594C485.425 363.733 485.425 351.926 485.425 340.172C485.425 338.355 485.661 337.088 486.132 336.371C487.028 335.043 488.525 334.745 490.622 335.478C491.283 335.707 492.035 335.73 492.764 335.501C494.284 335.043 495.659 335.188 496.89 335.936C497.46 336.279 497.824 336.989 497.824 337.79L497.961 396.636C497.961 397.873 496.958 398.88 495.727 398.88H482.166C481.094 398.88 480.114 398.17 479.704 397.117L463.795 355.444C463.491 354.635 463.339 354.65 463.339 355.49Z" fill="#0C4DA2"/>
<path d="M573.596 335.833L562.729 335.852C562.099 335.853 561.589 336.365 561.59 336.995L561.696 397.767C561.697 398.397 562.209 398.908 562.839 398.907L573.706 398.888C574.337 398.886 574.847 398.374 574.846 397.744L574.74 336.972C574.739 336.342 574.227 335.831 573.596 335.833Z" fill="#0C4DA2"/>
<path d="M620.407 376.535L620.13 337.482C620.13 336.798 620.637 336.228 621.306 336.183L631.059 335.658C631.959 335.613 632.697 336.365 632.697 337.3V397.714C632.697 398.375 632.166 398.9 631.498 398.9H616.671C615.749 398.9 614.919 398.33 614.596 397.486C609.201 383.671 604.128 370.068 599.378 356.678C599.193 356.131 598.909 355.758 598.525 355.561C598.018 355.287 597.395 355.834 597.395 356.564L597.533 397.099C597.533 397.919 596.934 398.58 596.196 398.558L586.12 398.466C585.497 398.466 584.99 397.828 584.99 397.053L584.852 337.984C584.852 336.844 585.682 335.932 586.696 335.955L602.007 336.183C602.675 336.205 603.298 336.684 603.598 337.414C608.87 349.983 613.72 362.704 618.147 375.577C618.408 376.322 618.831 376.877 619.415 377.242C620.076 377.667 620.407 377.432 620.407 376.535Z" fill="#0C4DA2"/>
<path d="M656.406 372.314L656.292 387.288C656.269 388.356 657.161 389.22 658.281 389.242L676.733 389.333C677.328 389.333 677.831 389.856 677.876 390.515L678.334 396.855C678.425 397.945 677.625 398.877 676.596 398.877L644.402 398.763C643.785 398.741 643.282 398.218 643.282 397.582L643.145 337.889C643.145 337.093 643.762 336.434 644.539 336.434L675.887 336.184C676.619 336.162 677.236 336.684 677.236 337.343V344.524C677.236 345.183 676.619 345.705 675.864 345.728L657.481 345.864C656.818 345.864 656.292 346.364 656.292 346.978C656.292 350.704 656.155 353.976 655.88 356.794C655.514 360.475 656.78 362.058 659.676 361.543C662.023 361.119 663.616 360.93 664.455 360.975C667.595 361.127 670.735 361.142 673.875 361.021C674.561 360.975 675.178 361.407 675.361 362.043C676.093 364.633 676.093 367.224 675.361 369.814C675.178 370.451 674.561 370.905 673.852 370.905L657.595 371.178C656.932 371.178 656.406 371.678 656.406 372.314Z" fill="#0C4DA2"/>
<path d="M701.035 389.117L720.065 389.208C720.72 389.231 721.24 389.757 721.24 390.397V397.459C721.24 398.259 720.607 398.922 719.839 398.899L687.769 398.556C687.114 398.556 686.594 398.031 686.594 397.368L686.684 337.074C686.684 336.434 687.181 335.931 687.814 335.931L718.822 335.657C719.522 335.634 720.133 336.091 720.313 336.754C721.037 339.36 721.037 341.965 720.313 344.571C720.133 345.234 719.522 345.691 718.844 345.691L701.239 345.782C700.538 345.782 699.951 346.308 699.973 346.925L700.267 359.976C700.29 360.547 700.877 361.004 701.6 361.004L716.019 361.096C717.104 361.096 718.37 363.084 718.98 365.804C719.839 369.659 718.664 371.457 715.454 371.198C713.496 371.03 712.449 370.946 712.313 370.946C708.652 370.977 704.99 370.939 701.329 370.832C700.651 370.809 700.109 371.312 700.086 371.952L699.838 387.951C699.838 388.591 700.38 389.117 701.035 389.117Z" fill="#0C4DA2"/>
<path d="M760.008 368.759C764.218 369.199 766.771 371.999 767.667 377.159C768.078 379.481 768.541 386.303 769.058 397.624C769.081 398.33 768.579 398.899 767.987 398.876L757.843 398.535C757.182 398.512 756.612 397.966 756.543 397.237L754.492 378.457C754.401 377.592 754.15 376.863 753.74 376.385C751.217 373.244 747.866 372.166 743.687 373.153C743.026 373.312 742.57 373.904 742.57 374.61L742.456 397.169C742.456 398.125 741.704 398.899 740.792 398.876L730.625 398.831C729.987 398.831 729.463 398.307 729.463 397.647L729.759 337.299C729.759 336.684 730.284 336.184 730.945 336.184C738.133 336.229 745.321 336.297 752.509 336.388C756.855 336.449 760.13 337.231 762.333 338.733C765.57 340.964 767.478 344.075 768.055 348.067C768.663 352.24 768.503 355.784 767.576 358.697C766.482 362.142 763.853 364.935 759.689 367.075C757.896 368 758.002 368.562 760.008 368.759ZM754.651 356.284C756.505 349.303 753.223 345.729 744.804 345.562C743.505 345.54 742.456 346.564 742.456 347.816L742.57 361.202C742.57 361.93 743.003 362.567 743.664 362.795C746.415 363.766 748.793 363.622 750.799 362.362C752.608 361.239 753.892 359.213 754.651 356.284Z" fill="#0C4DA2"/>
<path d="M789.755 335.656H779.123C778.414 335.656 777.84 336.228 777.84 336.933V397.623C777.84 398.328 778.414 398.9 779.123 398.9H789.755C790.464 398.9 791.038 398.328 791.038 397.623V336.933C791.038 336.228 790.464 335.656 789.755 335.656Z" fill="#0C4DA2"/>
<path d="M833.905 373.766C835.687 378.495 836.585 378.343 836.6 373.31L836.713 337.526C836.736 336.797 837.166 336.158 837.801 335.976C839.084 335.611 840.398 335.588 841.742 335.907C842.512 336.074 843.229 336.082 843.893 335.93C847.789 335.002 849.601 336.508 849.329 340.446C849.163 343 849.08 344.376 849.08 344.574C849.306 362.135 849.125 379.688 848.536 397.234C848.514 397.964 847.993 398.534 847.359 398.534L832.478 398.648C831.844 398.671 831.232 398.169 830.961 397.439L815.627 356.137C814.616 353.4 814.11 353.499 814.11 356.433V397.394C814.11 398.101 813.612 398.648 812.977 398.671L803.352 398.899C802.717 398.922 802.196 398.374 802.196 397.69L802.061 337.184C802.061 336.34 802.74 335.656 803.578 335.656H817.847C818.843 335.656 819.727 336.249 820.067 337.161L833.905 373.766Z" fill="#0C4DA2"/>
</svg>
